G04 #@! TF.GenerationSoftware,KiCad,Pcbnew,(5.1.6)-1*
G04 #@! TF.CreationDate,2021-05-09T15:01:23+05:30*
G04 #@! TF.ProjectId,ProTag,50726f54-6167-42e6-9b69-6361645f7063,1*
G04 #@! TF.SameCoordinates,Original*
G04 #@! TF.FileFunction,Paste,Top*
G04 #@! TF.FilePolarity,Positive*
%FSLAX45Y45*%
G04 Gerber Fmt 4.5, Leading zero omitted, Abs format (unit mm)*
G04 Created by KiCad (PCBNEW (5.1.6)-1) date 2021-05-09 15:01:23*
%MOMM*%
%LPD*%
G01*
G04 APERTURE LIST*
%ADD10R,1.150000X1.800000*%
%ADD11R,1.000000X0.300000*%
%ADD12R,4.250000X4.250000*%
%ADD13R,0.300000X0.850000*%
%ADD14R,0.850000X0.300000*%
%ADD15C,0.500000*%
%ADD16R,0.650000X1.060000*%
%ADD17R,1.000000X1.250000*%
G04 APERTURE END LIST*
D10*
G04 #@! TO.C,ANT1*
X16930000Y-10730000D03*
X17230000Y-10730000D03*
G04 #@! TD*
G04 #@! TO.C,C1*
G36*
G01*
X19298000Y-12572750D02*
X19298000Y-12607250D01*
G75*
G02*
X19283250Y-12622000I-14750J0D01*
G01*
X19253750Y-12622000D01*
G75*
G02*
X19239000Y-12607250I0J14750D01*
G01*
X19239000Y-12572750D01*
G75*
G02*
X19253750Y-12558000I14750J0D01*
G01*
X19283250Y-12558000D01*
G75*
G02*
X19298000Y-12572750I0J-14750D01*
G01*
G37*
G36*
G01*
X19201000Y-12572750D02*
X19201000Y-12607250D01*
G75*
G02*
X19186250Y-12622000I-14750J0D01*
G01*
X19156750Y-12622000D01*
G75*
G02*
X19142000Y-12607250I0J14750D01*
G01*
X19142000Y-12572750D01*
G75*
G02*
X19156750Y-12558000I14750J0D01*
G01*
X19186250Y-12558000D01*
G75*
G02*
X19201000Y-12572750I0J-14750D01*
G01*
G37*
G04 #@! TD*
G04 #@! TO.C,C2*
G36*
G01*
X18488600Y-13220050D02*
X18488600Y-13199950D01*
G75*
G02*
X18496550Y-13192000I7950J0D01*
G01*
X18512450Y-13192000D01*
G75*
G02*
X18520400Y-13199950I0J-7950D01*
G01*
X18520400Y-13220050D01*
G75*
G02*
X18512450Y-13228000I-7950J0D01*
G01*
X18496550Y-13228000D01*
G75*
G02*
X18488600Y-13220050I0J7950D01*
G01*
G37*
G36*
G01*
X18419600Y-13220050D02*
X18419600Y-13199950D01*
G75*
G02*
X18427550Y-13192000I7950J0D01*
G01*
X18443450Y-13192000D01*
G75*
G02*
X18451400Y-13199950I0J-7950D01*
G01*
X18451400Y-13220050D01*
G75*
G02*
X18443450Y-13228000I-7950J0D01*
G01*
X18427550Y-13228000D01*
G75*
G02*
X18419600Y-13220050I0J7950D01*
G01*
G37*
G04 #@! TD*
G04 #@! TO.C,C3*
G36*
G01*
X19370050Y-12601400D02*
X19349950Y-12601400D01*
G75*
G02*
X19342000Y-12593450I0J7950D01*
G01*
X19342000Y-12577550D01*
G75*
G02*
X19349950Y-12569600I7950J0D01*
G01*
X19370050Y-12569600D01*
G75*
G02*
X19378000Y-12577550I0J-7950D01*
G01*
X19378000Y-12593450D01*
G75*
G02*
X19370050Y-12601400I-7950J0D01*
G01*
G37*
G36*
G01*
X19370050Y-12670400D02*
X19349950Y-12670400D01*
G75*
G02*
X19342000Y-12662450I0J7950D01*
G01*
X19342000Y-12646550D01*
G75*
G02*
X19349950Y-12638600I7950J0D01*
G01*
X19370050Y-12638600D01*
G75*
G02*
X19378000Y-12646550I0J-7950D01*
G01*
X19378000Y-12662450D01*
G75*
G02*
X19370050Y-12670400I-7950J0D01*
G01*
G37*
G04 #@! TD*
G04 #@! TO.C,C4*
G36*
G01*
X18441400Y-10709950D02*
X18441400Y-10730050D01*
G75*
G02*
X18433450Y-10738000I-7950J0D01*
G01*
X18417550Y-10738000D01*
G75*
G02*
X18409600Y-10730050I0J7950D01*
G01*
X18409600Y-10709950D01*
G75*
G02*
X18417550Y-10702000I7950J0D01*
G01*
X18433450Y-10702000D01*
G75*
G02*
X18441400Y-10709950I0J-7950D01*
G01*
G37*
G36*
G01*
X18510400Y-10709950D02*
X18510400Y-10730050D01*
G75*
G02*
X18502450Y-10738000I-7950J0D01*
G01*
X18486550Y-10738000D01*
G75*
G02*
X18478600Y-10730050I0J7950D01*
G01*
X18478600Y-10709950D01*
G75*
G02*
X18486550Y-10702000I7950J0D01*
G01*
X18502450Y-10702000D01*
G75*
G02*
X18510400Y-10709950I0J-7950D01*
G01*
G37*
G04 #@! TD*
G04 #@! TO.C,C5*
G36*
G01*
X19269600Y-12130050D02*
X19269600Y-12109950D01*
G75*
G02*
X19277550Y-12102000I7950J0D01*
G01*
X19293450Y-12102000D01*
G75*
G02*
X19301400Y-12109950I0J-7950D01*
G01*
X19301400Y-12130050D01*
G75*
G02*
X19293450Y-12138000I-7950J0D01*
G01*
X19277550Y-12138000D01*
G75*
G02*
X19269600Y-12130050I0J7950D01*
G01*
G37*
G36*
G01*
X19338600Y-12130050D02*
X19338600Y-12109950D01*
G75*
G02*
X19346550Y-12102000I7950J0D01*
G01*
X19362450Y-12102000D01*
G75*
G02*
X19370400Y-12109950I0J-7950D01*
G01*
X19370400Y-12130050D01*
G75*
G02*
X19362450Y-12138000I-7950J0D01*
G01*
X19346550Y-12138000D01*
G75*
G02*
X19338600Y-12130050I0J7950D01*
G01*
G37*
G04 #@! TD*
G04 #@! TO.C,C6*
G36*
G01*
X18441400Y-10629950D02*
X18441400Y-10650050D01*
G75*
G02*
X18433450Y-10658000I-7950J0D01*
G01*
X18417550Y-10658000D01*
G75*
G02*
X18409600Y-10650050I0J7950D01*
G01*
X18409600Y-10629950D01*
G75*
G02*
X18417550Y-10622000I7950J0D01*
G01*
X18433450Y-10622000D01*
G75*
G02*
X18441400Y-10629950I0J-7950D01*
G01*
G37*
G36*
G01*
X18510400Y-10629950D02*
X18510400Y-10650050D01*
G75*
G02*
X18502450Y-10658000I-7950J0D01*
G01*
X18486550Y-10658000D01*
G75*
G02*
X18478600Y-10650050I0J7950D01*
G01*
X18478600Y-10629950D01*
G75*
G02*
X18486550Y-10622000I7950J0D01*
G01*
X18502450Y-10622000D01*
G75*
G02*
X18510400Y-10629950I0J-7950D01*
G01*
G37*
G04 #@! TD*
G04 #@! TO.C,C7*
G36*
G01*
X19111000Y-12092750D02*
X19111000Y-12127250D01*
G75*
G02*
X19096250Y-12142000I-14750J0D01*
G01*
X19066750Y-12142000D01*
G75*
G02*
X19052000Y-12127250I0J14750D01*
G01*
X19052000Y-12092750D01*
G75*
G02*
X19066750Y-12078000I14750J0D01*
G01*
X19096250Y-12078000D01*
G75*
G02*
X19111000Y-12092750I0J-14750D01*
G01*
G37*
G36*
G01*
X19208000Y-12092750D02*
X19208000Y-12127250D01*
G75*
G02*
X19193250Y-12142000I-14750J0D01*
G01*
X19163750Y-12142000D01*
G75*
G02*
X19149000Y-12127250I0J14750D01*
G01*
X19149000Y-12092750D01*
G75*
G02*
X19163750Y-12078000I14750J0D01*
G01*
X19193250Y-12078000D01*
G75*
G02*
X19208000Y-12092750I0J-14750D01*
G01*
G37*
G04 #@! TD*
G04 #@! TO.C,C8*
G36*
G01*
X19100400Y-12959950D02*
X19100400Y-12980050D01*
G75*
G02*
X19092450Y-12988000I-7950J0D01*
G01*
X19076550Y-12988000D01*
G75*
G02*
X19068600Y-12980050I0J7950D01*
G01*
X19068600Y-12959950D01*
G75*
G02*
X19076550Y-12952000I7950J0D01*
G01*
X19092450Y-12952000D01*
G75*
G02*
X19100400Y-12959950I0J-7950D01*
G01*
G37*
G36*
G01*
X19031400Y-12959950D02*
X19031400Y-12980050D01*
G75*
G02*
X19023450Y-12988000I-7950J0D01*
G01*
X19007550Y-12988000D01*
G75*
G02*
X18999600Y-12980050I0J7950D01*
G01*
X18999600Y-12959950D01*
G75*
G02*
X19007550Y-12952000I7950J0D01*
G01*
X19023450Y-12952000D01*
G75*
G02*
X19031400Y-12959950I0J-7950D01*
G01*
G37*
G04 #@! TD*
G04 #@! TO.C,C9*
G36*
G01*
X19298000Y-12772750D02*
X19298000Y-12807250D01*
G75*
G02*
X19283250Y-12822000I-14750J0D01*
G01*
X19253750Y-12822000D01*
G75*
G02*
X19239000Y-12807250I0J14750D01*
G01*
X19239000Y-12772750D01*
G75*
G02*
X19253750Y-12758000I14750J0D01*
G01*
X19283250Y-12758000D01*
G75*
G02*
X19298000Y-12772750I0J-14750D01*
G01*
G37*
G36*
G01*
X19201000Y-12772750D02*
X19201000Y-12807250D01*
G75*
G02*
X19186250Y-12822000I-14750J0D01*
G01*
X19156750Y-12822000D01*
G75*
G02*
X19142000Y-12807250I0J14750D01*
G01*
X19142000Y-12772750D01*
G75*
G02*
X19156750Y-12758000I14750J0D01*
G01*
X19186250Y-12758000D01*
G75*
G02*
X19201000Y-12772750I0J-14750D01*
G01*
G37*
G04 #@! TD*
G04 #@! TO.C,C10*
G36*
G01*
X19074100Y-10720050D02*
X19074100Y-10699950D01*
G75*
G02*
X19082050Y-10692000I7950J0D01*
G01*
X19097950Y-10692000D01*
G75*
G02*
X19105900Y-10699950I0J-7950D01*
G01*
X19105900Y-10720050D01*
G75*
G02*
X19097950Y-10728000I-7950J0D01*
G01*
X19082050Y-10728000D01*
G75*
G02*
X19074100Y-10720050I0J7950D01*
G01*
G37*
G36*
G01*
X19143100Y-10720050D02*
X19143100Y-10699950D01*
G75*
G02*
X19151050Y-10692000I7950J0D01*
G01*
X19166950Y-10692000D01*
G75*
G02*
X19174900Y-10699950I0J-7950D01*
G01*
X19174900Y-10720050D01*
G75*
G02*
X19166950Y-10728000I-7950J0D01*
G01*
X19151050Y-10728000D01*
G75*
G02*
X19143100Y-10720050I0J7950D01*
G01*
G37*
G04 #@! TD*
G04 #@! TO.C,C11*
G36*
G01*
X18925100Y-10720050D02*
X18925100Y-10699950D01*
G75*
G02*
X18933050Y-10692000I7950J0D01*
G01*
X18948950Y-10692000D01*
G75*
G02*
X18956900Y-10699950I0J-7950D01*
G01*
X18956900Y-10720050D01*
G75*
G02*
X18948950Y-10728000I-7950J0D01*
G01*
X18933050Y-10728000D01*
G75*
G02*
X18925100Y-10720050I0J7950D01*
G01*
G37*
G36*
G01*
X18994100Y-10720050D02*
X18994100Y-10699950D01*
G75*
G02*
X19002050Y-10692000I7950J0D01*
G01*
X19017950Y-10692000D01*
G75*
G02*
X19025900Y-10699950I0J-7950D01*
G01*
X19025900Y-10720050D01*
G75*
G02*
X19017950Y-10728000I-7950J0D01*
G01*
X19002050Y-10728000D01*
G75*
G02*
X18994100Y-10720050I0J7950D01*
G01*
G37*
G04 #@! TD*
G04 #@! TO.C,C12*
G36*
G01*
X18820050Y-10821400D02*
X18799950Y-10821400D01*
G75*
G02*
X18792000Y-10813450I0J7950D01*
G01*
X18792000Y-10797550D01*
G75*
G02*
X18799950Y-10789600I7950J0D01*
G01*
X18820050Y-10789600D01*
G75*
G02*
X18828000Y-10797550I0J-7950D01*
G01*
X18828000Y-10813450D01*
G75*
G02*
X18820050Y-10821400I-7950J0D01*
G01*
G37*
G36*
G01*
X18820050Y-10890400D02*
X18799950Y-10890400D01*
G75*
G02*
X18792000Y-10882450I0J7950D01*
G01*
X18792000Y-10866550D01*
G75*
G02*
X18799950Y-10858600I7950J0D01*
G01*
X18820050Y-10858600D01*
G75*
G02*
X18828000Y-10866550I0J-7950D01*
G01*
X18828000Y-10882450D01*
G75*
G02*
X18820050Y-10890400I-7950J0D01*
G01*
G37*
G04 #@! TD*
G04 #@! TO.C,C13*
G36*
G01*
X19159950Y-10988600D02*
X19180050Y-10988600D01*
G75*
G02*
X19188000Y-10996550I0J-7950D01*
G01*
X19188000Y-11012450D01*
G75*
G02*
X19180050Y-11020400I-7950J0D01*
G01*
X19159950Y-11020400D01*
G75*
G02*
X19152000Y-11012450I0J7950D01*
G01*
X19152000Y-10996550D01*
G75*
G02*
X19159950Y-10988600I7950J0D01*
G01*
G37*
G36*
G01*
X19159950Y-10919600D02*
X19180050Y-10919600D01*
G75*
G02*
X19188000Y-10927550I0J-7950D01*
G01*
X19188000Y-10943450D01*
G75*
G02*
X19180050Y-10951400I-7950J0D01*
G01*
X19159950Y-10951400D01*
G75*
G02*
X19152000Y-10943450I0J7950D01*
G01*
X19152000Y-10927550D01*
G75*
G02*
X19159950Y-10919600I7950J0D01*
G01*
G37*
G04 #@! TD*
G04 #@! TO.C,C14*
G36*
G01*
X18750050Y-10890400D02*
X18729950Y-10890400D01*
G75*
G02*
X18722000Y-10882450I0J7950D01*
G01*
X18722000Y-10866550D01*
G75*
G02*
X18729950Y-10858600I7950J0D01*
G01*
X18750050Y-10858600D01*
G75*
G02*
X18758000Y-10866550I0J-7950D01*
G01*
X18758000Y-10882450D01*
G75*
G02*
X18750050Y-10890400I-7950J0D01*
G01*
G37*
G36*
G01*
X18750050Y-10821400D02*
X18729950Y-10821400D01*
G75*
G02*
X18722000Y-10813450I0J7950D01*
G01*
X18722000Y-10797550D01*
G75*
G02*
X18729950Y-10789600I7950J0D01*
G01*
X18750050Y-10789600D01*
G75*
G02*
X18758000Y-10797550I0J-7950D01*
G01*
X18758000Y-10813450D01*
G75*
G02*
X18750050Y-10821400I-7950J0D01*
G01*
G37*
G04 #@! TD*
G04 #@! TO.C,C15*
G36*
G01*
X19330050Y-11230400D02*
X19309950Y-11230400D01*
G75*
G02*
X19302000Y-11222450I0J7950D01*
G01*
X19302000Y-11206550D01*
G75*
G02*
X19309950Y-11198600I7950J0D01*
G01*
X19330050Y-11198600D01*
G75*
G02*
X19338000Y-11206550I0J-7950D01*
G01*
X19338000Y-11222450D01*
G75*
G02*
X19330050Y-11230400I-7950J0D01*
G01*
G37*
G36*
G01*
X19330050Y-11161400D02*
X19309950Y-11161400D01*
G75*
G02*
X19302000Y-11153450I0J7950D01*
G01*
X19302000Y-11137550D01*
G75*
G02*
X19309950Y-11129600I7950J0D01*
G01*
X19330050Y-11129600D01*
G75*
G02*
X19338000Y-11137550I0J-7950D01*
G01*
X19338000Y-11153450D01*
G75*
G02*
X19330050Y-11161400I-7950J0D01*
G01*
G37*
G04 #@! TD*
G04 #@! TO.C,C16*
G36*
G01*
X19389950Y-11198600D02*
X19410050Y-11198600D01*
G75*
G02*
X19418000Y-11206550I0J-7950D01*
G01*
X19418000Y-11222450D01*
G75*
G02*
X19410050Y-11230400I-7950J0D01*
G01*
X19389950Y-11230400D01*
G75*
G02*
X19382000Y-11222450I0J7950D01*
G01*
X19382000Y-11206550D01*
G75*
G02*
X19389950Y-11198600I7950J0D01*
G01*
G37*
G36*
G01*
X19389950Y-11129600D02*
X19410050Y-11129600D01*
G75*
G02*
X19418000Y-11137550I0J-7950D01*
G01*
X19418000Y-11153450D01*
G75*
G02*
X19410050Y-11161400I-7950J0D01*
G01*
X19389950Y-11161400D01*
G75*
G02*
X19382000Y-11153450I0J7950D01*
G01*
X19382000Y-11137550D01*
G75*
G02*
X19389950Y-11129600I7950J0D01*
G01*
G37*
G04 #@! TD*
G04 #@! TO.C,C17*
G36*
G01*
X19079950Y-11739600D02*
X19100050Y-11739600D01*
G75*
G02*
X19108000Y-11747550I0J-7950D01*
G01*
X19108000Y-11763450D01*
G75*
G02*
X19100050Y-11771400I-7950J0D01*
G01*
X19079950Y-11771400D01*
G75*
G02*
X19072000Y-11763450I0J7950D01*
G01*
X19072000Y-11747550D01*
G75*
G02*
X19079950Y-11739600I7950J0D01*
G01*
G37*
G36*
G01*
X19079950Y-11808600D02*
X19100050Y-11808600D01*
G75*
G02*
X19108000Y-11816550I0J-7950D01*
G01*
X19108000Y-11832450D01*
G75*
G02*
X19100050Y-11840400I-7950J0D01*
G01*
X19079950Y-11840400D01*
G75*
G02*
X19072000Y-11832450I0J7950D01*
G01*
X19072000Y-11816550D01*
G75*
G02*
X19079950Y-11808600I7950J0D01*
G01*
G37*
G04 #@! TD*
D11*
G04 #@! TO.C,IC1*
X18620000Y-13050000D03*
X18620000Y-13100000D03*
X18620000Y-13150000D03*
X18620000Y-13200000D03*
X18620000Y-13250000D03*
X18900000Y-13250000D03*
X18900000Y-13200000D03*
X18900000Y-13150000D03*
X18900000Y-13100000D03*
X18900000Y-13050000D03*
G04 #@! TD*
D12*
G04 #@! TO.C,IC2*
X18850000Y-11350000D03*
D13*
X18625000Y-11055000D03*
X18675000Y-11055000D03*
X18725000Y-11055000D03*
X18775000Y-11055000D03*
X18825000Y-11055000D03*
X18875000Y-11055000D03*
X18925000Y-11055000D03*
X18975000Y-11055000D03*
X19025000Y-11055000D03*
X19075000Y-11055000D03*
D14*
X19145000Y-11125000D03*
X19145000Y-11175000D03*
X19145000Y-11225000D03*
X19145000Y-11275000D03*
X19145000Y-11325000D03*
X19145000Y-11375000D03*
X19145000Y-11425000D03*
X19145000Y-11475000D03*
X19145000Y-11525000D03*
X19145000Y-11575000D03*
D13*
X19075000Y-11645000D03*
X19025000Y-11645000D03*
X18975000Y-11645000D03*
X18925000Y-11645000D03*
X18875000Y-11645000D03*
X18825000Y-11645000D03*
X18775000Y-11645000D03*
X18725000Y-11645000D03*
X18675000Y-11645000D03*
X18625000Y-11645000D03*
D14*
X18555000Y-11575000D03*
X18555000Y-11525000D03*
X18555000Y-11475000D03*
X18555000Y-11425000D03*
X18555000Y-11375000D03*
X18555000Y-11325000D03*
X18555000Y-11275000D03*
X18555000Y-11225000D03*
X18555000Y-11175000D03*
X18555000Y-11125000D03*
G04 #@! TD*
D15*
G04 #@! TO.C,J2*
X18700000Y-12450000D03*
G04 #@! TD*
G04 #@! TO.C,J3*
X18660000Y-12140000D03*
G04 #@! TD*
G04 #@! TO.C,J4*
X18050000Y-10900000D03*
G04 #@! TD*
G04 #@! TO.C,J5*
X18050000Y-10800000D03*
G04 #@! TD*
G04 #@! TO.C,J6*
X18690000Y-12370000D03*
G04 #@! TD*
G04 #@! TO.C,J7*
X18760000Y-13380000D03*
G04 #@! TD*
G04 #@! TO.C,J8*
X18850000Y-13380000D03*
G04 #@! TD*
G04 #@! TO.C,J9*
X18670000Y-13380000D03*
G04 #@! TD*
G04 #@! TO.C,J10*
X18820000Y-11840000D03*
G04 #@! TD*
G04 #@! TO.C,J11*
X18900000Y-11840000D03*
G04 #@! TD*
G04 #@! TO.C,J12*
X19260000Y-11370000D03*
G04 #@! TD*
G04 #@! TO.C,J13*
X19260000Y-11290000D03*
G04 #@! TD*
G04 #@! TO.C,J14*
X19310000Y-11440000D03*
G04 #@! TD*
G04 #@! TO.C,J15*
X18600000Y-11760000D03*
G04 #@! TD*
G04 #@! TO.C,J16*
X18680000Y-11750000D03*
G04 #@! TD*
G04 #@! TO.C,J17*
X18640000Y-11840000D03*
G04 #@! TD*
G04 #@! TO.C,J18*
X19160000Y-12700000D03*
G04 #@! TD*
G04 #@! TO.C,J19*
X19050000Y-12700000D03*
G04 #@! TD*
G04 #@! TO.C,L1*
G36*
G01*
X18580050Y-10661400D02*
X18559950Y-10661400D01*
G75*
G02*
X18552000Y-10653450I0J7950D01*
G01*
X18552000Y-10637550D01*
G75*
G02*
X18559950Y-10629600I7950J0D01*
G01*
X18580050Y-10629600D01*
G75*
G02*
X18588000Y-10637550I0J-7950D01*
G01*
X18588000Y-10653450D01*
G75*
G02*
X18580050Y-10661400I-7950J0D01*
G01*
G37*
G36*
G01*
X18580050Y-10730400D02*
X18559950Y-10730400D01*
G75*
G02*
X18552000Y-10722450I0J7950D01*
G01*
X18552000Y-10706550D01*
G75*
G02*
X18559950Y-10698600I7950J0D01*
G01*
X18580050Y-10698600D01*
G75*
G02*
X18588000Y-10706550I0J-7950D01*
G01*
X18588000Y-10722450D01*
G75*
G02*
X18580050Y-10730400I-7950J0D01*
G01*
G37*
G04 #@! TD*
G04 #@! TO.C,L2*
G36*
G01*
X19239950Y-10919600D02*
X19260050Y-10919600D01*
G75*
G02*
X19268000Y-10927550I0J-7950D01*
G01*
X19268000Y-10943450D01*
G75*
G02*
X19260050Y-10951400I-7950J0D01*
G01*
X19239950Y-10951400D01*
G75*
G02*
X19232000Y-10943450I0J7950D01*
G01*
X19232000Y-10927550D01*
G75*
G02*
X19239950Y-10919600I7950J0D01*
G01*
G37*
G36*
G01*
X19239950Y-10988600D02*
X19260050Y-10988600D01*
G75*
G02*
X19268000Y-10996550I0J-7950D01*
G01*
X19268000Y-11012450D01*
G75*
G02*
X19260050Y-11020400I-7950J0D01*
G01*
X19239950Y-11020400D01*
G75*
G02*
X19232000Y-11012450I0J7950D01*
G01*
X19232000Y-10996550D01*
G75*
G02*
X19239950Y-10988600I7950J0D01*
G01*
G37*
G04 #@! TD*
G04 #@! TO.C,R1*
G36*
G01*
X18549600Y-10800050D02*
X18549600Y-10779950D01*
G75*
G02*
X18557550Y-10772000I7950J0D01*
G01*
X18573450Y-10772000D01*
G75*
G02*
X18581400Y-10779950I0J-7950D01*
G01*
X18581400Y-10800050D01*
G75*
G02*
X18573450Y-10808000I-7950J0D01*
G01*
X18557550Y-10808000D01*
G75*
G02*
X18549600Y-10800050I0J7950D01*
G01*
G37*
G36*
G01*
X18618600Y-10800050D02*
X18618600Y-10779950D01*
G75*
G02*
X18626550Y-10772000I7950J0D01*
G01*
X18642450Y-10772000D01*
G75*
G02*
X18650400Y-10779950I0J-7950D01*
G01*
X18650400Y-10800050D01*
G75*
G02*
X18642450Y-10808000I-7950J0D01*
G01*
X18626550Y-10808000D01*
G75*
G02*
X18618600Y-10800050I0J7950D01*
G01*
G37*
G04 #@! TD*
G04 #@! TO.C,R3*
G36*
G01*
X19350050Y-11311400D02*
X19329950Y-11311400D01*
G75*
G02*
X19322000Y-11303450I0J7950D01*
G01*
X19322000Y-11287550D01*
G75*
G02*
X19329950Y-11279600I7950J0D01*
G01*
X19350050Y-11279600D01*
G75*
G02*
X19358000Y-11287550I0J-7950D01*
G01*
X19358000Y-11303450D01*
G75*
G02*
X19350050Y-11311400I-7950J0D01*
G01*
G37*
G36*
G01*
X19350050Y-11380400D02*
X19329950Y-11380400D01*
G75*
G02*
X19322000Y-11372450I0J7950D01*
G01*
X19322000Y-11356550D01*
G75*
G02*
X19329950Y-11348600I7950J0D01*
G01*
X19350050Y-11348600D01*
G75*
G02*
X19358000Y-11356550I0J-7950D01*
G01*
X19358000Y-11372450D01*
G75*
G02*
X19350050Y-11380400I-7950J0D01*
G01*
G37*
G04 #@! TD*
G04 #@! TO.C,R5*
G36*
G01*
X19019950Y-13168600D02*
X19040050Y-13168600D01*
G75*
G02*
X19048000Y-13176550I0J-7950D01*
G01*
X19048000Y-13192450D01*
G75*
G02*
X19040050Y-13200400I-7950J0D01*
G01*
X19019950Y-13200400D01*
G75*
G02*
X19012000Y-13192450I0J7950D01*
G01*
X19012000Y-13176550D01*
G75*
G02*
X19019950Y-13168600I7950J0D01*
G01*
G37*
G36*
G01*
X19019950Y-13099600D02*
X19040050Y-13099600D01*
G75*
G02*
X19048000Y-13107550I0J-7950D01*
G01*
X19048000Y-13123450D01*
G75*
G02*
X19040050Y-13131400I-7950J0D01*
G01*
X19019950Y-13131400D01*
G75*
G02*
X19012000Y-13123450I0J7950D01*
G01*
X19012000Y-13107550D01*
G75*
G02*
X19019950Y-13099600I7950J0D01*
G01*
G37*
G04 #@! TD*
G04 #@! TO.C,R6*
G36*
G01*
X19099950Y-13099600D02*
X19120050Y-13099600D01*
G75*
G02*
X19128000Y-13107550I0J-7950D01*
G01*
X19128000Y-13123450D01*
G75*
G02*
X19120050Y-13131400I-7950J0D01*
G01*
X19099950Y-13131400D01*
G75*
G02*
X19092000Y-13123450I0J7950D01*
G01*
X19092000Y-13107550D01*
G75*
G02*
X19099950Y-13099600I7950J0D01*
G01*
G37*
G36*
G01*
X19099950Y-13168600D02*
X19120050Y-13168600D01*
G75*
G02*
X19128000Y-13176550I0J-7950D01*
G01*
X19128000Y-13192450D01*
G75*
G02*
X19120050Y-13200400I-7950J0D01*
G01*
X19099950Y-13200400D01*
G75*
G02*
X19092000Y-13192450I0J7950D01*
G01*
X19092000Y-13176550D01*
G75*
G02*
X19099950Y-13168600I7950J0D01*
G01*
G37*
G04 #@! TD*
D16*
G04 #@! TO.C,U1*
X19165000Y-12460000D03*
X19260000Y-12460000D03*
X19355000Y-12460000D03*
X19355000Y-12240000D03*
X19165000Y-12240000D03*
G04 #@! TD*
D17*
G04 #@! TO.C,Y1*
X19140000Y-10820000D03*
X18990000Y-10820000D03*
G04 #@! TD*
M02*
