G04 #@! TF.GenerationSoftware,KiCad,Pcbnew,(5.1.6)-1*
G04 #@! TF.CreationDate,2021-05-09T15:01:23+05:30*
G04 #@! TF.ProjectId,ProTag,50726f54-6167-42e6-9b69-6361645f7063,1*
G04 #@! TF.SameCoordinates,Original*
G04 #@! TF.FileFunction,Soldermask,Top*
G04 #@! TF.FilePolarity,Negative*
%FSLAX45Y45*%
G04 Gerber Fmt 4.5, Leading zero omitted, Abs format (unit mm)*
G04 Created by KiCad (PCBNEW (5.1.6)-1) date 2021-05-09 15:01:23*
%MOMM*%
%LPD*%
G01*
G04 APERTURE LIST*
%ADD10R,1.250000X1.900000*%
%ADD11R,1.100000X0.400000*%
%ADD12R,4.350000X4.350000*%
%ADD13R,0.400000X0.950000*%
%ADD14R,0.950000X0.400000*%
%ADD15C,0.600000*%
%ADD16R,0.750000X1.160000*%
%ADD17R,1.100000X1.350000*%
G04 APERTURE END LIST*
D10*
G04 #@! TO.C,ANT1*
X16930000Y-10730000D03*
X17230000Y-10730000D03*
G04 #@! TD*
G04 #@! TO.C,C1*
G36*
G01*
X19303000Y-12570250D02*
X19303000Y-12609750D01*
G75*
G02*
X19285750Y-12627000I-17250J0D01*
G01*
X19251250Y-12627000D01*
G75*
G02*
X19234000Y-12609750I0J17250D01*
G01*
X19234000Y-12570250D01*
G75*
G02*
X19251250Y-12553000I17250J0D01*
G01*
X19285750Y-12553000D01*
G75*
G02*
X19303000Y-12570250I0J-17250D01*
G01*
G37*
G36*
G01*
X19206000Y-12570250D02*
X19206000Y-12609750D01*
G75*
G02*
X19188750Y-12627000I-17250J0D01*
G01*
X19154250Y-12627000D01*
G75*
G02*
X19137000Y-12609750I0J17250D01*
G01*
X19137000Y-12570250D01*
G75*
G02*
X19154250Y-12553000I17250J0D01*
G01*
X19188750Y-12553000D01*
G75*
G02*
X19206000Y-12570250I0J-17250D01*
G01*
G37*
G04 #@! TD*
G04 #@! TO.C,C2*
G36*
G01*
X18474000Y-13222500D02*
X18474000Y-13197500D01*
G75*
G02*
X18486500Y-13185000I12500J0D01*
G01*
X18517500Y-13185000D01*
G75*
G02*
X18530000Y-13197500I0J-12500D01*
G01*
X18530000Y-13222500D01*
G75*
G02*
X18517500Y-13235000I-12500J0D01*
G01*
X18486500Y-13235000D01*
G75*
G02*
X18474000Y-13222500I0J12500D01*
G01*
G37*
G36*
G01*
X18410000Y-13222500D02*
X18410000Y-13197500D01*
G75*
G02*
X18422500Y-13185000I12500J0D01*
G01*
X18453500Y-13185000D01*
G75*
G02*
X18466000Y-13197500I0J-12500D01*
G01*
X18466000Y-13222500D01*
G75*
G02*
X18453500Y-13235000I-12500J0D01*
G01*
X18422500Y-13235000D01*
G75*
G02*
X18410000Y-13222500I0J12500D01*
G01*
G37*
G04 #@! TD*
G04 #@! TO.C,C3*
G36*
G01*
X19372500Y-12616000D02*
X19347500Y-12616000D01*
G75*
G02*
X19335000Y-12603500I0J12500D01*
G01*
X19335000Y-12572500D01*
G75*
G02*
X19347500Y-12560000I12500J0D01*
G01*
X19372500Y-12560000D01*
G75*
G02*
X19385000Y-12572500I0J-12500D01*
G01*
X19385000Y-12603500D01*
G75*
G02*
X19372500Y-12616000I-12500J0D01*
G01*
G37*
G36*
G01*
X19372500Y-12680000D02*
X19347500Y-12680000D01*
G75*
G02*
X19335000Y-12667500I0J12500D01*
G01*
X19335000Y-12636500D01*
G75*
G02*
X19347500Y-12624000I12500J0D01*
G01*
X19372500Y-12624000D01*
G75*
G02*
X19385000Y-12636500I0J-12500D01*
G01*
X19385000Y-12667500D01*
G75*
G02*
X19372500Y-12680000I-12500J0D01*
G01*
G37*
G04 #@! TD*
G04 #@! TO.C,C4*
G36*
G01*
X18456000Y-10707500D02*
X18456000Y-10732500D01*
G75*
G02*
X18443500Y-10745000I-12500J0D01*
G01*
X18412500Y-10745000D01*
G75*
G02*
X18400000Y-10732500I0J12500D01*
G01*
X18400000Y-10707500D01*
G75*
G02*
X18412500Y-10695000I12500J0D01*
G01*
X18443500Y-10695000D01*
G75*
G02*
X18456000Y-10707500I0J-12500D01*
G01*
G37*
G36*
G01*
X18520000Y-10707500D02*
X18520000Y-10732500D01*
G75*
G02*
X18507500Y-10745000I-12500J0D01*
G01*
X18476500Y-10745000D01*
G75*
G02*
X18464000Y-10732500I0J12500D01*
G01*
X18464000Y-10707500D01*
G75*
G02*
X18476500Y-10695000I12500J0D01*
G01*
X18507500Y-10695000D01*
G75*
G02*
X18520000Y-10707500I0J-12500D01*
G01*
G37*
G04 #@! TD*
G04 #@! TO.C,C5*
G36*
G01*
X19260000Y-12132500D02*
X19260000Y-12107500D01*
G75*
G02*
X19272500Y-12095000I12500J0D01*
G01*
X19303500Y-12095000D01*
G75*
G02*
X19316000Y-12107500I0J-12500D01*
G01*
X19316000Y-12132500D01*
G75*
G02*
X19303500Y-12145000I-12500J0D01*
G01*
X19272500Y-12145000D01*
G75*
G02*
X19260000Y-12132500I0J12500D01*
G01*
G37*
G36*
G01*
X19324000Y-12132500D02*
X19324000Y-12107500D01*
G75*
G02*
X19336500Y-12095000I12500J0D01*
G01*
X19367500Y-12095000D01*
G75*
G02*
X19380000Y-12107500I0J-12500D01*
G01*
X19380000Y-12132500D01*
G75*
G02*
X19367500Y-12145000I-12500J0D01*
G01*
X19336500Y-12145000D01*
G75*
G02*
X19324000Y-12132500I0J12500D01*
G01*
G37*
G04 #@! TD*
G04 #@! TO.C,C6*
G36*
G01*
X18456000Y-10627500D02*
X18456000Y-10652500D01*
G75*
G02*
X18443500Y-10665000I-12500J0D01*
G01*
X18412500Y-10665000D01*
G75*
G02*
X18400000Y-10652500I0J12500D01*
G01*
X18400000Y-10627500D01*
G75*
G02*
X18412500Y-10615000I12500J0D01*
G01*
X18443500Y-10615000D01*
G75*
G02*
X18456000Y-10627500I0J-12500D01*
G01*
G37*
G36*
G01*
X18520000Y-10627500D02*
X18520000Y-10652500D01*
G75*
G02*
X18507500Y-10665000I-12500J0D01*
G01*
X18476500Y-10665000D01*
G75*
G02*
X18464000Y-10652500I0J12500D01*
G01*
X18464000Y-10627500D01*
G75*
G02*
X18476500Y-10615000I12500J0D01*
G01*
X18507500Y-10615000D01*
G75*
G02*
X18520000Y-10627500I0J-12500D01*
G01*
G37*
G04 #@! TD*
G04 #@! TO.C,C7*
G36*
G01*
X19116000Y-12090250D02*
X19116000Y-12129750D01*
G75*
G02*
X19098750Y-12147000I-17250J0D01*
G01*
X19064250Y-12147000D01*
G75*
G02*
X19047000Y-12129750I0J17250D01*
G01*
X19047000Y-12090250D01*
G75*
G02*
X19064250Y-12073000I17250J0D01*
G01*
X19098750Y-12073000D01*
G75*
G02*
X19116000Y-12090250I0J-17250D01*
G01*
G37*
G36*
G01*
X19213000Y-12090250D02*
X19213000Y-12129750D01*
G75*
G02*
X19195750Y-12147000I-17250J0D01*
G01*
X19161250Y-12147000D01*
G75*
G02*
X19144000Y-12129750I0J17250D01*
G01*
X19144000Y-12090250D01*
G75*
G02*
X19161250Y-12073000I17250J0D01*
G01*
X19195750Y-12073000D01*
G75*
G02*
X19213000Y-12090250I0J-17250D01*
G01*
G37*
G04 #@! TD*
G04 #@! TO.C,C8*
G36*
G01*
X19110000Y-12957500D02*
X19110000Y-12982500D01*
G75*
G02*
X19097500Y-12995000I-12500J0D01*
G01*
X19066500Y-12995000D01*
G75*
G02*
X19054000Y-12982500I0J12500D01*
G01*
X19054000Y-12957500D01*
G75*
G02*
X19066500Y-12945000I12500J0D01*
G01*
X19097500Y-12945000D01*
G75*
G02*
X19110000Y-12957500I0J-12500D01*
G01*
G37*
G36*
G01*
X19046000Y-12957500D02*
X19046000Y-12982500D01*
G75*
G02*
X19033500Y-12995000I-12500J0D01*
G01*
X19002500Y-12995000D01*
G75*
G02*
X18990000Y-12982500I0J12500D01*
G01*
X18990000Y-12957500D01*
G75*
G02*
X19002500Y-12945000I12500J0D01*
G01*
X19033500Y-12945000D01*
G75*
G02*
X19046000Y-12957500I0J-12500D01*
G01*
G37*
G04 #@! TD*
G04 #@! TO.C,C9*
G36*
G01*
X19303000Y-12770250D02*
X19303000Y-12809750D01*
G75*
G02*
X19285750Y-12827000I-17250J0D01*
G01*
X19251250Y-12827000D01*
G75*
G02*
X19234000Y-12809750I0J17250D01*
G01*
X19234000Y-12770250D01*
G75*
G02*
X19251250Y-12753000I17250J0D01*
G01*
X19285750Y-12753000D01*
G75*
G02*
X19303000Y-12770250I0J-17250D01*
G01*
G37*
G36*
G01*
X19206000Y-12770250D02*
X19206000Y-12809750D01*
G75*
G02*
X19188750Y-12827000I-17250J0D01*
G01*
X19154250Y-12827000D01*
G75*
G02*
X19137000Y-12809750I0J17250D01*
G01*
X19137000Y-12770250D01*
G75*
G02*
X19154250Y-12753000I17250J0D01*
G01*
X19188750Y-12753000D01*
G75*
G02*
X19206000Y-12770250I0J-17250D01*
G01*
G37*
G04 #@! TD*
G04 #@! TO.C,C10*
G36*
G01*
X19064500Y-10722500D02*
X19064500Y-10697500D01*
G75*
G02*
X19077000Y-10685000I12500J0D01*
G01*
X19108000Y-10685000D01*
G75*
G02*
X19120500Y-10697500I0J-12500D01*
G01*
X19120500Y-10722500D01*
G75*
G02*
X19108000Y-10735000I-12500J0D01*
G01*
X19077000Y-10735000D01*
G75*
G02*
X19064500Y-10722500I0J12500D01*
G01*
G37*
G36*
G01*
X19128500Y-10722500D02*
X19128500Y-10697500D01*
G75*
G02*
X19141000Y-10685000I12500J0D01*
G01*
X19172000Y-10685000D01*
G75*
G02*
X19184500Y-10697500I0J-12500D01*
G01*
X19184500Y-10722500D01*
G75*
G02*
X19172000Y-10735000I-12500J0D01*
G01*
X19141000Y-10735000D01*
G75*
G02*
X19128500Y-10722500I0J12500D01*
G01*
G37*
G04 #@! TD*
G04 #@! TO.C,C11*
G36*
G01*
X18915500Y-10722500D02*
X18915500Y-10697500D01*
G75*
G02*
X18928000Y-10685000I12500J0D01*
G01*
X18959000Y-10685000D01*
G75*
G02*
X18971500Y-10697500I0J-12500D01*
G01*
X18971500Y-10722500D01*
G75*
G02*
X18959000Y-10735000I-12500J0D01*
G01*
X18928000Y-10735000D01*
G75*
G02*
X18915500Y-10722500I0J12500D01*
G01*
G37*
G36*
G01*
X18979500Y-10722500D02*
X18979500Y-10697500D01*
G75*
G02*
X18992000Y-10685000I12500J0D01*
G01*
X19023000Y-10685000D01*
G75*
G02*
X19035500Y-10697500I0J-12500D01*
G01*
X19035500Y-10722500D01*
G75*
G02*
X19023000Y-10735000I-12500J0D01*
G01*
X18992000Y-10735000D01*
G75*
G02*
X18979500Y-10722500I0J12500D01*
G01*
G37*
G04 #@! TD*
G04 #@! TO.C,C12*
G36*
G01*
X18822500Y-10836000D02*
X18797500Y-10836000D01*
G75*
G02*
X18785000Y-10823500I0J12500D01*
G01*
X18785000Y-10792500D01*
G75*
G02*
X18797500Y-10780000I12500J0D01*
G01*
X18822500Y-10780000D01*
G75*
G02*
X18835000Y-10792500I0J-12500D01*
G01*
X18835000Y-10823500D01*
G75*
G02*
X18822500Y-10836000I-12500J0D01*
G01*
G37*
G36*
G01*
X18822500Y-10900000D02*
X18797500Y-10900000D01*
G75*
G02*
X18785000Y-10887500I0J12500D01*
G01*
X18785000Y-10856500D01*
G75*
G02*
X18797500Y-10844000I12500J0D01*
G01*
X18822500Y-10844000D01*
G75*
G02*
X18835000Y-10856500I0J-12500D01*
G01*
X18835000Y-10887500D01*
G75*
G02*
X18822500Y-10900000I-12500J0D01*
G01*
G37*
G04 #@! TD*
G04 #@! TO.C,C13*
G36*
G01*
X19157500Y-10974000D02*
X19182500Y-10974000D01*
G75*
G02*
X19195000Y-10986500I0J-12500D01*
G01*
X19195000Y-11017500D01*
G75*
G02*
X19182500Y-11030000I-12500J0D01*
G01*
X19157500Y-11030000D01*
G75*
G02*
X19145000Y-11017500I0J12500D01*
G01*
X19145000Y-10986500D01*
G75*
G02*
X19157500Y-10974000I12500J0D01*
G01*
G37*
G36*
G01*
X19157500Y-10910000D02*
X19182500Y-10910000D01*
G75*
G02*
X19195000Y-10922500I0J-12500D01*
G01*
X19195000Y-10953500D01*
G75*
G02*
X19182500Y-10966000I-12500J0D01*
G01*
X19157500Y-10966000D01*
G75*
G02*
X19145000Y-10953500I0J12500D01*
G01*
X19145000Y-10922500D01*
G75*
G02*
X19157500Y-10910000I12500J0D01*
G01*
G37*
G04 #@! TD*
G04 #@! TO.C,C14*
G36*
G01*
X18752500Y-10900000D02*
X18727500Y-10900000D01*
G75*
G02*
X18715000Y-10887500I0J12500D01*
G01*
X18715000Y-10856500D01*
G75*
G02*
X18727500Y-10844000I12500J0D01*
G01*
X18752500Y-10844000D01*
G75*
G02*
X18765000Y-10856500I0J-12500D01*
G01*
X18765000Y-10887500D01*
G75*
G02*
X18752500Y-10900000I-12500J0D01*
G01*
G37*
G36*
G01*
X18752500Y-10836000D02*
X18727500Y-10836000D01*
G75*
G02*
X18715000Y-10823500I0J12500D01*
G01*
X18715000Y-10792500D01*
G75*
G02*
X18727500Y-10780000I12500J0D01*
G01*
X18752500Y-10780000D01*
G75*
G02*
X18765000Y-10792500I0J-12500D01*
G01*
X18765000Y-10823500D01*
G75*
G02*
X18752500Y-10836000I-12500J0D01*
G01*
G37*
G04 #@! TD*
G04 #@! TO.C,C15*
G36*
G01*
X19332500Y-11240000D02*
X19307500Y-11240000D01*
G75*
G02*
X19295000Y-11227500I0J12500D01*
G01*
X19295000Y-11196500D01*
G75*
G02*
X19307500Y-11184000I12500J0D01*
G01*
X19332500Y-11184000D01*
G75*
G02*
X19345000Y-11196500I0J-12500D01*
G01*
X19345000Y-11227500D01*
G75*
G02*
X19332500Y-11240000I-12500J0D01*
G01*
G37*
G36*
G01*
X19332500Y-11176000D02*
X19307500Y-11176000D01*
G75*
G02*
X19295000Y-11163500I0J12500D01*
G01*
X19295000Y-11132500D01*
G75*
G02*
X19307500Y-11120000I12500J0D01*
G01*
X19332500Y-11120000D01*
G75*
G02*
X19345000Y-11132500I0J-12500D01*
G01*
X19345000Y-11163500D01*
G75*
G02*
X19332500Y-11176000I-12500J0D01*
G01*
G37*
G04 #@! TD*
G04 #@! TO.C,C16*
G36*
G01*
X19387500Y-11184000D02*
X19412500Y-11184000D01*
G75*
G02*
X19425000Y-11196500I0J-12500D01*
G01*
X19425000Y-11227500D01*
G75*
G02*
X19412500Y-11240000I-12500J0D01*
G01*
X19387500Y-11240000D01*
G75*
G02*
X19375000Y-11227500I0J12500D01*
G01*
X19375000Y-11196500D01*
G75*
G02*
X19387500Y-11184000I12500J0D01*
G01*
G37*
G36*
G01*
X19387500Y-11120000D02*
X19412500Y-11120000D01*
G75*
G02*
X19425000Y-11132500I0J-12500D01*
G01*
X19425000Y-11163500D01*
G75*
G02*
X19412500Y-11176000I-12500J0D01*
G01*
X19387500Y-11176000D01*
G75*
G02*
X19375000Y-11163500I0J12500D01*
G01*
X19375000Y-11132500D01*
G75*
G02*
X19387500Y-11120000I12500J0D01*
G01*
G37*
G04 #@! TD*
G04 #@! TO.C,C17*
G36*
G01*
X19077500Y-11730000D02*
X19102500Y-11730000D01*
G75*
G02*
X19115000Y-11742500I0J-12500D01*
G01*
X19115000Y-11773500D01*
G75*
G02*
X19102500Y-11786000I-12500J0D01*
G01*
X19077500Y-11786000D01*
G75*
G02*
X19065000Y-11773500I0J12500D01*
G01*
X19065000Y-11742500D01*
G75*
G02*
X19077500Y-11730000I12500J0D01*
G01*
G37*
G36*
G01*
X19077500Y-11794000D02*
X19102500Y-11794000D01*
G75*
G02*
X19115000Y-11806500I0J-12500D01*
G01*
X19115000Y-11837500D01*
G75*
G02*
X19102500Y-11850000I-12500J0D01*
G01*
X19077500Y-11850000D01*
G75*
G02*
X19065000Y-11837500I0J12500D01*
G01*
X19065000Y-11806500D01*
G75*
G02*
X19077500Y-11794000I12500J0D01*
G01*
G37*
G04 #@! TD*
D11*
G04 #@! TO.C,IC1*
X18620000Y-13050000D03*
X18620000Y-13100000D03*
X18620000Y-13150000D03*
X18620000Y-13200000D03*
X18620000Y-13250000D03*
X18900000Y-13250000D03*
X18900000Y-13200000D03*
X18900000Y-13150000D03*
X18900000Y-13100000D03*
X18900000Y-13050000D03*
G04 #@! TD*
D12*
G04 #@! TO.C,IC2*
X18850000Y-11350000D03*
D13*
X18625000Y-11055000D03*
X18675000Y-11055000D03*
X18725000Y-11055000D03*
X18775000Y-11055000D03*
X18825000Y-11055000D03*
X18875000Y-11055000D03*
X18925000Y-11055000D03*
X18975000Y-11055000D03*
X19025000Y-11055000D03*
X19075000Y-11055000D03*
D14*
X19145000Y-11125000D03*
X19145000Y-11175000D03*
X19145000Y-11225000D03*
X19145000Y-11275000D03*
X19145000Y-11325000D03*
X19145000Y-11375000D03*
X19145000Y-11425000D03*
X19145000Y-11475000D03*
X19145000Y-11525000D03*
X19145000Y-11575000D03*
D13*
X19075000Y-11645000D03*
X19025000Y-11645000D03*
X18975000Y-11645000D03*
X18925000Y-11645000D03*
X18875000Y-11645000D03*
X18825000Y-11645000D03*
X18775000Y-11645000D03*
X18725000Y-11645000D03*
X18675000Y-11645000D03*
X18625000Y-11645000D03*
D14*
X18555000Y-11575000D03*
X18555000Y-11525000D03*
X18555000Y-11475000D03*
X18555000Y-11425000D03*
X18555000Y-11375000D03*
X18555000Y-11325000D03*
X18555000Y-11275000D03*
X18555000Y-11225000D03*
X18555000Y-11175000D03*
X18555000Y-11125000D03*
G04 #@! TD*
D15*
G04 #@! TO.C,J2*
X18700000Y-12450000D03*
G04 #@! TD*
G04 #@! TO.C,J3*
X18660000Y-12140000D03*
G04 #@! TD*
G04 #@! TO.C,J4*
X18050000Y-10900000D03*
G04 #@! TD*
G04 #@! TO.C,J5*
X18050000Y-10800000D03*
G04 #@! TD*
G04 #@! TO.C,J6*
X18690000Y-12370000D03*
G04 #@! TD*
G04 #@! TO.C,J7*
X18760000Y-13380000D03*
G04 #@! TD*
G04 #@! TO.C,J8*
X18850000Y-13380000D03*
G04 #@! TD*
G04 #@! TO.C,J9*
X18670000Y-13380000D03*
G04 #@! TD*
G04 #@! TO.C,J10*
X18820000Y-11840000D03*
G04 #@! TD*
G04 #@! TO.C,J11*
X18900000Y-11840000D03*
G04 #@! TD*
G04 #@! TO.C,J12*
X19260000Y-11370000D03*
G04 #@! TD*
G04 #@! TO.C,J13*
X19260000Y-11290000D03*
G04 #@! TD*
G04 #@! TO.C,J14*
X19310000Y-11440000D03*
G04 #@! TD*
G04 #@! TO.C,J15*
X18600000Y-11760000D03*
G04 #@! TD*
G04 #@! TO.C,J16*
X18680000Y-11750000D03*
G04 #@! TD*
G04 #@! TO.C,J17*
X18640000Y-11840000D03*
G04 #@! TD*
G04 #@! TO.C,J18*
X19160000Y-12700000D03*
G04 #@! TD*
G04 #@! TO.C,J19*
X19050000Y-12700000D03*
G04 #@! TD*
G04 #@! TO.C,L1*
G36*
G01*
X18582500Y-10676000D02*
X18557500Y-10676000D01*
G75*
G02*
X18545000Y-10663500I0J12500D01*
G01*
X18545000Y-10632500D01*
G75*
G02*
X18557500Y-10620000I12500J0D01*
G01*
X18582500Y-10620000D01*
G75*
G02*
X18595000Y-10632500I0J-12500D01*
G01*
X18595000Y-10663500D01*
G75*
G02*
X18582500Y-10676000I-12500J0D01*
G01*
G37*
G36*
G01*
X18582500Y-10740000D02*
X18557500Y-10740000D01*
G75*
G02*
X18545000Y-10727500I0J12500D01*
G01*
X18545000Y-10696500D01*
G75*
G02*
X18557500Y-10684000I12500J0D01*
G01*
X18582500Y-10684000D01*
G75*
G02*
X18595000Y-10696500I0J-12500D01*
G01*
X18595000Y-10727500D01*
G75*
G02*
X18582500Y-10740000I-12500J0D01*
G01*
G37*
G04 #@! TD*
G04 #@! TO.C,L2*
G36*
G01*
X19237500Y-10910000D02*
X19262500Y-10910000D01*
G75*
G02*
X19275000Y-10922500I0J-12500D01*
G01*
X19275000Y-10953500D01*
G75*
G02*
X19262500Y-10966000I-12500J0D01*
G01*
X19237500Y-10966000D01*
G75*
G02*
X19225000Y-10953500I0J12500D01*
G01*
X19225000Y-10922500D01*
G75*
G02*
X19237500Y-10910000I12500J0D01*
G01*
G37*
G36*
G01*
X19237500Y-10974000D02*
X19262500Y-10974000D01*
G75*
G02*
X19275000Y-10986500I0J-12500D01*
G01*
X19275000Y-11017500D01*
G75*
G02*
X19262500Y-11030000I-12500J0D01*
G01*
X19237500Y-11030000D01*
G75*
G02*
X19225000Y-11017500I0J12500D01*
G01*
X19225000Y-10986500D01*
G75*
G02*
X19237500Y-10974000I12500J0D01*
G01*
G37*
G04 #@! TD*
G04 #@! TO.C,R1*
G36*
G01*
X18540000Y-10802500D02*
X18540000Y-10777500D01*
G75*
G02*
X18552500Y-10765000I12500J0D01*
G01*
X18583500Y-10765000D01*
G75*
G02*
X18596000Y-10777500I0J-12500D01*
G01*
X18596000Y-10802500D01*
G75*
G02*
X18583500Y-10815000I-12500J0D01*
G01*
X18552500Y-10815000D01*
G75*
G02*
X18540000Y-10802500I0J12500D01*
G01*
G37*
G36*
G01*
X18604000Y-10802500D02*
X18604000Y-10777500D01*
G75*
G02*
X18616500Y-10765000I12500J0D01*
G01*
X18647500Y-10765000D01*
G75*
G02*
X18660000Y-10777500I0J-12500D01*
G01*
X18660000Y-10802500D01*
G75*
G02*
X18647500Y-10815000I-12500J0D01*
G01*
X18616500Y-10815000D01*
G75*
G02*
X18604000Y-10802500I0J12500D01*
G01*
G37*
G04 #@! TD*
G04 #@! TO.C,R3*
G36*
G01*
X19352500Y-11326000D02*
X19327500Y-11326000D01*
G75*
G02*
X19315000Y-11313500I0J12500D01*
G01*
X19315000Y-11282500D01*
G75*
G02*
X19327500Y-11270000I12500J0D01*
G01*
X19352500Y-11270000D01*
G75*
G02*
X19365000Y-11282500I0J-12500D01*
G01*
X19365000Y-11313500D01*
G75*
G02*
X19352500Y-11326000I-12500J0D01*
G01*
G37*
G36*
G01*
X19352500Y-11390000D02*
X19327500Y-11390000D01*
G75*
G02*
X19315000Y-11377500I0J12500D01*
G01*
X19315000Y-11346500D01*
G75*
G02*
X19327500Y-11334000I12500J0D01*
G01*
X19352500Y-11334000D01*
G75*
G02*
X19365000Y-11346500I0J-12500D01*
G01*
X19365000Y-11377500D01*
G75*
G02*
X19352500Y-11390000I-12500J0D01*
G01*
G37*
G04 #@! TD*
G04 #@! TO.C,R5*
G36*
G01*
X19017500Y-13154000D02*
X19042500Y-13154000D01*
G75*
G02*
X19055000Y-13166500I0J-12500D01*
G01*
X19055000Y-13197500D01*
G75*
G02*
X19042500Y-13210000I-12500J0D01*
G01*
X19017500Y-13210000D01*
G75*
G02*
X19005000Y-13197500I0J12500D01*
G01*
X19005000Y-13166500D01*
G75*
G02*
X19017500Y-13154000I12500J0D01*
G01*
G37*
G36*
G01*
X19017500Y-13090000D02*
X19042500Y-13090000D01*
G75*
G02*
X19055000Y-13102500I0J-12500D01*
G01*
X19055000Y-13133500D01*
G75*
G02*
X19042500Y-13146000I-12500J0D01*
G01*
X19017500Y-13146000D01*
G75*
G02*
X19005000Y-13133500I0J12500D01*
G01*
X19005000Y-13102500D01*
G75*
G02*
X19017500Y-13090000I12500J0D01*
G01*
G37*
G04 #@! TD*
G04 #@! TO.C,R6*
G36*
G01*
X19097500Y-13090000D02*
X19122500Y-13090000D01*
G75*
G02*
X19135000Y-13102500I0J-12500D01*
G01*
X19135000Y-13133500D01*
G75*
G02*
X19122500Y-13146000I-12500J0D01*
G01*
X19097500Y-13146000D01*
G75*
G02*
X19085000Y-13133500I0J12500D01*
G01*
X19085000Y-13102500D01*
G75*
G02*
X19097500Y-13090000I12500J0D01*
G01*
G37*
G36*
G01*
X19097500Y-13154000D02*
X19122500Y-13154000D01*
G75*
G02*
X19135000Y-13166500I0J-12500D01*
G01*
X19135000Y-13197500D01*
G75*
G02*
X19122500Y-13210000I-12500J0D01*
G01*
X19097500Y-13210000D01*
G75*
G02*
X19085000Y-13197500I0J12500D01*
G01*
X19085000Y-13166500D01*
G75*
G02*
X19097500Y-13154000I12500J0D01*
G01*
G37*
G04 #@! TD*
D16*
G04 #@! TO.C,U1*
X19165000Y-12460000D03*
X19260000Y-12460000D03*
X19355000Y-12460000D03*
X19355000Y-12240000D03*
X19165000Y-12240000D03*
G04 #@! TD*
D17*
G04 #@! TO.C,Y1*
X19140000Y-10820000D03*
X18990000Y-10820000D03*
G04 #@! TD*
M02*
