G04 #@! TF.GenerationSoftware,KiCad,Pcbnew,(5.1.6)-1*
G04 #@! TF.CreationDate,2021-05-09T15:01:23+05:30*
G04 #@! TF.ProjectId,ProTag,50726f54-6167-42e6-9b69-6361645f7063,1*
G04 #@! TF.SameCoordinates,Original*
G04 #@! TF.FileFunction,Soldermask,Bot*
G04 #@! TF.FilePolarity,Negative*
%FSLAX45Y45*%
G04 Gerber Fmt 4.5, Leading zero omitted, Abs format (unit mm)*
G04 Created by KiCad (PCBNEW (5.1.6)-1) date 2021-05-09 15:01:23*
%MOMM*%
%LPD*%
G01*
G04 APERTURE LIST*
%ADD10R,0.800000X0.550000*%
%ADD11R,1.100000X1.800000*%
%ADD12R,0.850000X0.950000*%
G04 APERTURE END LIST*
G04 #@! TO.C,D2*
G36*
G01*
X17630000Y-11072500D02*
X17630000Y-11047500D01*
G75*
G02*
X17642500Y-11035000I12500J0D01*
G01*
X17673500Y-11035000D01*
G75*
G02*
X17686000Y-11047500I0J-12500D01*
G01*
X17686000Y-11072500D01*
G75*
G02*
X17673500Y-11085000I-12500J0D01*
G01*
X17642500Y-11085000D01*
G75*
G02*
X17630000Y-11072500I0J12500D01*
G01*
G37*
G36*
G01*
X17694000Y-11072500D02*
X17694000Y-11047500D01*
G75*
G02*
X17706500Y-11035000I12500J0D01*
G01*
X17737500Y-11035000D01*
G75*
G02*
X17750000Y-11047500I0J-12500D01*
G01*
X17750000Y-11072500D01*
G75*
G02*
X17737500Y-11085000I-12500J0D01*
G01*
X17706500Y-11085000D01*
G75*
G02*
X17694000Y-11072500I0J12500D01*
G01*
G37*
G04 #@! TD*
D10*
G04 #@! TO.C,Q1*
X18912500Y-12817500D03*
X18912500Y-12687500D03*
X19112500Y-12752500D03*
G04 #@! TD*
G04 #@! TO.C,R2*
G36*
G01*
X18697500Y-11790000D02*
X18722500Y-11790000D01*
G75*
G02*
X18735000Y-11802500I0J-12500D01*
G01*
X18735000Y-11833500D01*
G75*
G02*
X18722500Y-11846000I-12500J0D01*
G01*
X18697500Y-11846000D01*
G75*
G02*
X18685000Y-11833500I0J12500D01*
G01*
X18685000Y-11802500D01*
G75*
G02*
X18697500Y-11790000I12500J0D01*
G01*
G37*
G36*
G01*
X18697500Y-11854000D02*
X18722500Y-11854000D01*
G75*
G02*
X18735000Y-11866500I0J-12500D01*
G01*
X18735000Y-11897500D01*
G75*
G02*
X18722500Y-11910000I-12500J0D01*
G01*
X18697500Y-11910000D01*
G75*
G02*
X18685000Y-11897500I0J12500D01*
G01*
X18685000Y-11866500D01*
G75*
G02*
X18697500Y-11854000I12500J0D01*
G01*
G37*
G04 #@! TD*
G04 #@! TO.C,R7*
G36*
G01*
X17836000Y-11047500D02*
X17836000Y-11072500D01*
G75*
G02*
X17823500Y-11085000I-12500J0D01*
G01*
X17792500Y-11085000D01*
G75*
G02*
X17780000Y-11072500I0J12500D01*
G01*
X17780000Y-11047500D01*
G75*
G02*
X17792500Y-11035000I12500J0D01*
G01*
X17823500Y-11035000D01*
G75*
G02*
X17836000Y-11047500I0J-12500D01*
G01*
G37*
G36*
G01*
X17900000Y-11047500D02*
X17900000Y-11072500D01*
G75*
G02*
X17887500Y-11085000I-12500J0D01*
G01*
X17856500Y-11085000D01*
G75*
G02*
X17844000Y-11072500I0J12500D01*
G01*
X17844000Y-11047500D01*
G75*
G02*
X17856500Y-11035000I12500J0D01*
G01*
X17887500Y-11035000D01*
G75*
G02*
X17900000Y-11047500I0J-12500D01*
G01*
G37*
G04 #@! TD*
G04 #@! TO.C,R8*
G36*
G01*
X19142500Y-12856000D02*
X19117500Y-12856000D01*
G75*
G02*
X19105000Y-12843500I0J12500D01*
G01*
X19105000Y-12812500D01*
G75*
G02*
X19117500Y-12800000I12500J0D01*
G01*
X19142500Y-12800000D01*
G75*
G02*
X19155000Y-12812500I0J-12500D01*
G01*
X19155000Y-12843500D01*
G75*
G02*
X19142500Y-12856000I-12500J0D01*
G01*
G37*
G36*
G01*
X19142500Y-12920000D02*
X19117500Y-12920000D01*
G75*
G02*
X19105000Y-12907500I0J12500D01*
G01*
X19105000Y-12876500D01*
G75*
G02*
X19117500Y-12864000I12500J0D01*
G01*
X19142500Y-12864000D01*
G75*
G02*
X19155000Y-12876500I0J-12500D01*
G01*
X19155000Y-12907500D01*
G75*
G02*
X19142500Y-12920000I-12500J0D01*
G01*
G37*
G04 #@! TD*
G04 #@! TO.C,R9*
G36*
G01*
X18812500Y-12870000D02*
X18787500Y-12870000D01*
G75*
G02*
X18775000Y-12857500I0J12500D01*
G01*
X18775000Y-12826500D01*
G75*
G02*
X18787500Y-12814000I12500J0D01*
G01*
X18812500Y-12814000D01*
G75*
G02*
X18825000Y-12826500I0J-12500D01*
G01*
X18825000Y-12857500D01*
G75*
G02*
X18812500Y-12870000I-12500J0D01*
G01*
G37*
G36*
G01*
X18812500Y-12806000D02*
X18787500Y-12806000D01*
G75*
G02*
X18775000Y-12793500I0J12500D01*
G01*
X18775000Y-12762500D01*
G75*
G02*
X18787500Y-12750000I12500J0D01*
G01*
X18812500Y-12750000D01*
G75*
G02*
X18825000Y-12762500I0J-12500D01*
G01*
X18825000Y-12793500D01*
G75*
G02*
X18812500Y-12806000I-12500J0D01*
G01*
G37*
G04 #@! TD*
D11*
G04 #@! TO.C,SW1*
X19000000Y-12365000D03*
X19000000Y-11735000D03*
X18620000Y-12365000D03*
X18620000Y-11735000D03*
G04 #@! TD*
D12*
G04 #@! TO.C,Y2*
X18422500Y-11012500D03*
X18422500Y-11147500D03*
X18317500Y-11147500D03*
X18317500Y-11012500D03*
G04 #@! TD*
M02*
