G04 #@! TF.GenerationSoftware,KiCad,Pcbnew,(5.1.6)-1*
G04 #@! TF.CreationDate,2021-05-09T15:01:23+05:30*
G04 #@! TF.ProjectId,ProTag,50726f54-6167-42e6-9b69-6361645f7063,1*
G04 #@! TF.SameCoordinates,Original*
G04 #@! TF.FileFunction,Legend,Top*
G04 #@! TF.FilePolarity,Positive*
%FSLAX45Y45*%
G04 Gerber Fmt 4.5, Leading zero omitted, Abs format (unit mm)*
G04 Created by KiCad (PCBNEW (5.1.6)-1) date 2021-05-09 15:01:23*
%MOMM*%
%LPD*%
G01*
G04 APERTURE LIST*
%ADD10C,0.010000*%
%ADD11C,0.200000*%
%ADD12C,0.254000*%
%ADD13C,0.250000*%
%ADD14C,0.120000*%
%ADD15C,0.100000*%
G04 APERTURE END LIST*
D10*
G04 #@! TO.C,G\u002A\u002A\u002A*
G36*
X17695612Y-10611610D02*
G01*
X17706416Y-10614911D01*
X17720704Y-10619761D01*
X17732487Y-10624014D01*
X17768351Y-10636395D01*
X17805350Y-10647559D01*
X17842068Y-10657179D01*
X17877088Y-10664928D01*
X17908993Y-10670479D01*
X17936367Y-10673507D01*
X17949147Y-10673978D01*
X17961867Y-10674508D01*
X17969025Y-10676403D01*
X17972395Y-10680156D01*
X17972518Y-10680458D01*
X17973487Y-10686206D01*
X17974545Y-10697946D01*
X17975599Y-10714281D01*
X17976554Y-10733818D01*
X17977087Y-10747884D01*
X17976449Y-10819549D01*
X17969618Y-10887478D01*
X17956617Y-10951575D01*
X17937471Y-11011743D01*
X17912204Y-11067884D01*
X17887468Y-11110031D01*
X17872595Y-11130211D01*
X17853299Y-11152669D01*
X17831339Y-11175633D01*
X17808473Y-11197330D01*
X17786458Y-11215990D01*
X17771280Y-11227116D01*
X17759793Y-11234421D01*
X17745750Y-11242811D01*
X17730636Y-11251468D01*
X17715934Y-11259574D01*
X17703129Y-11266310D01*
X17693705Y-11270858D01*
X17689169Y-11272401D01*
X17685679Y-11270745D01*
X17677184Y-11266399D01*
X17665202Y-11260144D01*
X17658596Y-11256661D01*
X17625573Y-11237907D01*
X17597096Y-11218607D01*
X17570465Y-11196775D01*
X17547432Y-11174915D01*
X17515285Y-11139639D01*
X17488196Y-11102720D01*
X17465234Y-11062615D01*
X17445470Y-11017783D01*
X17434842Y-10988221D01*
X17424380Y-10954457D01*
X17416411Y-10922510D01*
X17410662Y-10890531D01*
X17406859Y-10856669D01*
X17404730Y-10819073D01*
X17404014Y-10779287D01*
X17404021Y-10774190D01*
X17490495Y-10774190D01*
X17490495Y-10954524D01*
X17503426Y-10978049D01*
X17509945Y-10990582D01*
X17513827Y-11000744D01*
X17515758Y-11011401D01*
X17516423Y-11025419D01*
X17516488Y-11032671D01*
X17516620Y-11063767D01*
X17578372Y-11130847D01*
X17599120Y-11153110D01*
X17615941Y-11170571D01*
X17628633Y-11183035D01*
X17636994Y-11190305D01*
X17640823Y-11192186D01*
X17641047Y-11191806D01*
X17640813Y-11186676D01*
X17639694Y-11175213D01*
X17637806Y-11158406D01*
X17635265Y-11137245D01*
X17632188Y-11112717D01*
X17628690Y-11085811D01*
X17628040Y-11080904D01*
X17614109Y-10976121D01*
X17582192Y-10963349D01*
X17550274Y-10950577D01*
X17547704Y-10928436D01*
X17546545Y-10916537D01*
X17546133Y-10908015D01*
X17546447Y-10905039D01*
X17550144Y-10905850D01*
X17559135Y-10908923D01*
X17571906Y-10913658D01*
X17586940Y-10919454D01*
X17602720Y-10925711D01*
X17617729Y-10931829D01*
X17630451Y-10937207D01*
X17639370Y-10941245D01*
X17642858Y-10943204D01*
X17643496Y-10947806D01*
X17642842Y-10957813D01*
X17641045Y-10971381D01*
X17640092Y-10977094D01*
X17637583Y-10992020D01*
X17635695Y-11004531D01*
X17634732Y-11012554D01*
X17634670Y-11013891D01*
X17637620Y-11018225D01*
X17645467Y-11025259D01*
X17656822Y-11033813D01*
X17663759Y-11038542D01*
X17692770Y-11057652D01*
X17751757Y-11018160D01*
X17745418Y-10980636D01*
X17739078Y-10943113D01*
X17746866Y-10940125D01*
X17753235Y-10937618D01*
X17764809Y-10933005D01*
X17779938Y-10926946D01*
X17796876Y-10920138D01*
X17813100Y-10913740D01*
X17826646Y-10908651D01*
X17836161Y-10905360D01*
X17840293Y-10904359D01*
X17840347Y-10904388D01*
X17840317Y-10908362D01*
X17839012Y-10917510D01*
X17836918Y-10928804D01*
X17832240Y-10951971D01*
X17804531Y-10962885D01*
X17791155Y-10968368D01*
X17780435Y-10973161D01*
X17774265Y-10976407D01*
X17773657Y-10976874D01*
X17772510Y-10981025D01*
X17770600Y-10991356D01*
X17768079Y-11006762D01*
X17765100Y-11026141D01*
X17761817Y-11048388D01*
X17758383Y-11072399D01*
X17754950Y-11097072D01*
X17751672Y-11121303D01*
X17748702Y-11143988D01*
X17746193Y-11164023D01*
X17744299Y-11180305D01*
X17743171Y-11191730D01*
X17742964Y-11197195D01*
X17743056Y-11197488D01*
X17745777Y-11195221D01*
X17752783Y-11188190D01*
X17763398Y-11177106D01*
X17776948Y-11162681D01*
X17792757Y-11145627D01*
X17807496Y-11129563D01*
X17870683Y-11060387D01*
X17868551Y-11032521D01*
X17867654Y-11017860D01*
X17868126Y-11007525D01*
X17870620Y-10998489D01*
X17875790Y-10987723D01*
X17879810Y-10980333D01*
X17893200Y-10956012D01*
X17893200Y-10774008D01*
X17796218Y-10742244D01*
X17770606Y-10733906D01*
X17747129Y-10726362D01*
X17726749Y-10719913D01*
X17710429Y-10714860D01*
X17699132Y-10711504D01*
X17693819Y-10710147D01*
X17693695Y-10710134D01*
X17688854Y-10711153D01*
X17677949Y-10714201D01*
X17661934Y-10718988D01*
X17641759Y-10725224D01*
X17618377Y-10732617D01*
X17592740Y-10740878D01*
X17589324Y-10741990D01*
X17490495Y-10774190D01*
X17404021Y-10774190D01*
X17404049Y-10755147D01*
X17404262Y-10738974D01*
X17532077Y-10738974D01*
X17535827Y-10738260D01*
X17545564Y-10735487D01*
X17560275Y-10730970D01*
X17578949Y-10725022D01*
X17600576Y-10717958D01*
X17612141Y-10714119D01*
X17690806Y-10687866D01*
X17774454Y-10715666D01*
X17797919Y-10723463D01*
X17818946Y-10730446D01*
X17836553Y-10736289D01*
X17849761Y-10740668D01*
X17857589Y-10743257D01*
X17859336Y-10743828D01*
X17857993Y-10741455D01*
X17853212Y-10734985D01*
X17849031Y-10729620D01*
X17830044Y-10710695D01*
X17805320Y-10693868D01*
X17776399Y-10679947D01*
X17744821Y-10669741D01*
X17728445Y-10666272D01*
X17695994Y-10663607D01*
X17662354Y-10666208D01*
X17629064Y-10673595D01*
X17597660Y-10685286D01*
X17569679Y-10700803D01*
X17546659Y-10719663D01*
X17542152Y-10724509D01*
X17535697Y-10732431D01*
X17532246Y-10737812D01*
X17532077Y-10738974D01*
X17404262Y-10738974D01*
X17404345Y-10732694D01*
X17404863Y-10713280D01*
X17405564Y-10698257D01*
X17406411Y-10688976D01*
X17406611Y-10687847D01*
X17409549Y-10673993D01*
X17430626Y-10673978D01*
X17459000Y-10672250D01*
X17492661Y-10667284D01*
X17530394Y-10659353D01*
X17570985Y-10648733D01*
X17613218Y-10635695D01*
X17637311Y-10627377D01*
X17655093Y-10621135D01*
X17670665Y-10615922D01*
X17682565Y-10612212D01*
X17689329Y-10610476D01*
X17690000Y-10610405D01*
X17695612Y-10611610D01*
G37*
X17695612Y-10611610D02*
X17706416Y-10614911D01*
X17720704Y-10619761D01*
X17732487Y-10624014D01*
X17768351Y-10636395D01*
X17805350Y-10647559D01*
X17842068Y-10657179D01*
X17877088Y-10664928D01*
X17908993Y-10670479D01*
X17936367Y-10673507D01*
X17949147Y-10673978D01*
X17961867Y-10674508D01*
X17969025Y-10676403D01*
X17972395Y-10680156D01*
X17972518Y-10680458D01*
X17973487Y-10686206D01*
X17974545Y-10697946D01*
X17975599Y-10714281D01*
X17976554Y-10733818D01*
X17977087Y-10747884D01*
X17976449Y-10819549D01*
X17969618Y-10887478D01*
X17956617Y-10951575D01*
X17937471Y-11011743D01*
X17912204Y-11067884D01*
X17887468Y-11110031D01*
X17872595Y-11130211D01*
X17853299Y-11152669D01*
X17831339Y-11175633D01*
X17808473Y-11197330D01*
X17786458Y-11215990D01*
X17771280Y-11227116D01*
X17759793Y-11234421D01*
X17745750Y-11242811D01*
X17730636Y-11251468D01*
X17715934Y-11259574D01*
X17703129Y-11266310D01*
X17693705Y-11270858D01*
X17689169Y-11272401D01*
X17685679Y-11270745D01*
X17677184Y-11266399D01*
X17665202Y-11260144D01*
X17658596Y-11256661D01*
X17625573Y-11237907D01*
X17597096Y-11218607D01*
X17570465Y-11196775D01*
X17547432Y-11174915D01*
X17515285Y-11139639D01*
X17488196Y-11102720D01*
X17465234Y-11062615D01*
X17445470Y-11017783D01*
X17434842Y-10988221D01*
X17424380Y-10954457D01*
X17416411Y-10922510D01*
X17410662Y-10890531D01*
X17406859Y-10856669D01*
X17404730Y-10819073D01*
X17404014Y-10779287D01*
X17404021Y-10774190D01*
X17490495Y-10774190D01*
X17490495Y-10954524D01*
X17503426Y-10978049D01*
X17509945Y-10990582D01*
X17513827Y-11000744D01*
X17515758Y-11011401D01*
X17516423Y-11025419D01*
X17516488Y-11032671D01*
X17516620Y-11063767D01*
X17578372Y-11130847D01*
X17599120Y-11153110D01*
X17615941Y-11170571D01*
X17628633Y-11183035D01*
X17636994Y-11190305D01*
X17640823Y-11192186D01*
X17641047Y-11191806D01*
X17640813Y-11186676D01*
X17639694Y-11175213D01*
X17637806Y-11158406D01*
X17635265Y-11137245D01*
X17632188Y-11112717D01*
X17628690Y-11085811D01*
X17628040Y-11080904D01*
X17614109Y-10976121D01*
X17582192Y-10963349D01*
X17550274Y-10950577D01*
X17547704Y-10928436D01*
X17546545Y-10916537D01*
X17546133Y-10908015D01*
X17546447Y-10905039D01*
X17550144Y-10905850D01*
X17559135Y-10908923D01*
X17571906Y-10913658D01*
X17586940Y-10919454D01*
X17602720Y-10925711D01*
X17617729Y-10931829D01*
X17630451Y-10937207D01*
X17639370Y-10941245D01*
X17642858Y-10943204D01*
X17643496Y-10947806D01*
X17642842Y-10957813D01*
X17641045Y-10971381D01*
X17640092Y-10977094D01*
X17637583Y-10992020D01*
X17635695Y-11004531D01*
X17634732Y-11012554D01*
X17634670Y-11013891D01*
X17637620Y-11018225D01*
X17645467Y-11025259D01*
X17656822Y-11033813D01*
X17663759Y-11038542D01*
X17692770Y-11057652D01*
X17751757Y-11018160D01*
X17745418Y-10980636D01*
X17739078Y-10943113D01*
X17746866Y-10940125D01*
X17753235Y-10937618D01*
X17764809Y-10933005D01*
X17779938Y-10926946D01*
X17796876Y-10920138D01*
X17813100Y-10913740D01*
X17826646Y-10908651D01*
X17836161Y-10905360D01*
X17840293Y-10904359D01*
X17840347Y-10904388D01*
X17840317Y-10908362D01*
X17839012Y-10917510D01*
X17836918Y-10928804D01*
X17832240Y-10951971D01*
X17804531Y-10962885D01*
X17791155Y-10968368D01*
X17780435Y-10973161D01*
X17774265Y-10976407D01*
X17773657Y-10976874D01*
X17772510Y-10981025D01*
X17770600Y-10991356D01*
X17768079Y-11006762D01*
X17765100Y-11026141D01*
X17761817Y-11048388D01*
X17758383Y-11072399D01*
X17754950Y-11097072D01*
X17751672Y-11121303D01*
X17748702Y-11143988D01*
X17746193Y-11164023D01*
X17744299Y-11180305D01*
X17743171Y-11191730D01*
X17742964Y-11197195D01*
X17743056Y-11197488D01*
X17745777Y-11195221D01*
X17752783Y-11188190D01*
X17763398Y-11177106D01*
X17776948Y-11162681D01*
X17792757Y-11145627D01*
X17807496Y-11129563D01*
X17870683Y-11060387D01*
X17868551Y-11032521D01*
X17867654Y-11017860D01*
X17868126Y-11007525D01*
X17870620Y-10998489D01*
X17875790Y-10987723D01*
X17879810Y-10980333D01*
X17893200Y-10956012D01*
X17893200Y-10774008D01*
X17796218Y-10742244D01*
X17770606Y-10733906D01*
X17747129Y-10726362D01*
X17726749Y-10719913D01*
X17710429Y-10714860D01*
X17699132Y-10711504D01*
X17693819Y-10710147D01*
X17693695Y-10710134D01*
X17688854Y-10711153D01*
X17677949Y-10714201D01*
X17661934Y-10718988D01*
X17641759Y-10725224D01*
X17618377Y-10732617D01*
X17592740Y-10740878D01*
X17589324Y-10741990D01*
X17490495Y-10774190D01*
X17404021Y-10774190D01*
X17404049Y-10755147D01*
X17404262Y-10738974D01*
X17532077Y-10738974D01*
X17535827Y-10738260D01*
X17545564Y-10735487D01*
X17560275Y-10730970D01*
X17578949Y-10725022D01*
X17600576Y-10717958D01*
X17612141Y-10714119D01*
X17690806Y-10687866D01*
X17774454Y-10715666D01*
X17797919Y-10723463D01*
X17818946Y-10730446D01*
X17836553Y-10736289D01*
X17849761Y-10740668D01*
X17857589Y-10743257D01*
X17859336Y-10743828D01*
X17857993Y-10741455D01*
X17853212Y-10734985D01*
X17849031Y-10729620D01*
X17830044Y-10710695D01*
X17805320Y-10693868D01*
X17776399Y-10679947D01*
X17744821Y-10669741D01*
X17728445Y-10666272D01*
X17695994Y-10663607D01*
X17662354Y-10666208D01*
X17629064Y-10673595D01*
X17597660Y-10685286D01*
X17569679Y-10700803D01*
X17546659Y-10719663D01*
X17542152Y-10724509D01*
X17535697Y-10732431D01*
X17532246Y-10737812D01*
X17532077Y-10738974D01*
X17404262Y-10738974D01*
X17404345Y-10732694D01*
X17404863Y-10713280D01*
X17405564Y-10698257D01*
X17406411Y-10688976D01*
X17406611Y-10687847D01*
X17409549Y-10673993D01*
X17430626Y-10673978D01*
X17459000Y-10672250D01*
X17492661Y-10667284D01*
X17530394Y-10659353D01*
X17570985Y-10648733D01*
X17613218Y-10635695D01*
X17637311Y-10627377D01*
X17655093Y-10621135D01*
X17670665Y-10615922D01*
X17682565Y-10612212D01*
X17689329Y-10610476D01*
X17690000Y-10610405D01*
X17695612Y-10611610D01*
D11*
G04 #@! TO.C,ANT1*
X16930000Y-10855000D02*
X17322500Y-10855000D01*
X17322500Y-10855000D02*
X17322500Y-10605000D01*
X17322500Y-10605000D02*
X16930000Y-10605000D01*
D12*
G04 #@! TO.C,IC1*
X18582500Y-12985000D02*
G75*
G03*
X18582500Y-12985000I-12500J0D01*
G01*
D11*
X18705000Y-13300000D02*
X18705000Y-13000000D01*
X18815000Y-13300000D02*
X18705000Y-13300000D01*
X18815000Y-13000000D02*
X18815000Y-13300000D01*
X18705000Y-13000000D02*
X18815000Y-13000000D01*
D13*
G04 #@! TO.C,IC2*
X18525000Y-11050000D02*
G75*
G03*
X18525000Y-11050000I-12500J0D01*
G01*
D14*
G04 #@! TO.C,U1*
X19099000Y-12260000D02*
X19099000Y-12505000D01*
X19421000Y-12440000D02*
X19421000Y-12260000D01*
D15*
G04 #@! TO.C,Y1*
X19065000Y-10760000D02*
X19065000Y-10880000D01*
X19065000Y-10880000D02*
X19065000Y-10760000D01*
G04 #@! TO.C,ANT1*
X16999048Y-10958333D02*
X17022857Y-10958333D01*
X16994286Y-10972619D02*
X17010952Y-10922619D01*
X17027619Y-10972619D01*
X17044286Y-10972619D02*
X17044286Y-10922619D01*
X17072857Y-10972619D01*
X17072857Y-10922619D01*
X17089524Y-10922619D02*
X17118095Y-10922619D01*
X17103810Y-10972619D02*
X17103810Y-10922619D01*
X17160952Y-10972619D02*
X17132381Y-10972619D01*
X17146667Y-10972619D02*
X17146667Y-10922619D01*
X17141905Y-10929762D01*
X17137143Y-10934524D01*
X17132381Y-10936905D01*
G04 #@! TO.C,C1*
X19107857Y-12598333D02*
X19110238Y-12600714D01*
X19112619Y-12607857D01*
X19112619Y-12612619D01*
X19110238Y-12619762D01*
X19105476Y-12624524D01*
X19100714Y-12626905D01*
X19091190Y-12629286D01*
X19084048Y-12629286D01*
X19074524Y-12626905D01*
X19069762Y-12624524D01*
X19065000Y-12619762D01*
X19062619Y-12612619D01*
X19062619Y-12607857D01*
X19065000Y-12600714D01*
X19067381Y-12598333D01*
X19112619Y-12550714D02*
X19112619Y-12579286D01*
X19112619Y-12565000D02*
X19062619Y-12565000D01*
X19069762Y-12569762D01*
X19074524Y-12574524D01*
X19076905Y-12579286D01*
G04 #@! TO.C,C2*
X18377857Y-13218333D02*
X18380238Y-13220714D01*
X18382619Y-13227857D01*
X18382619Y-13232619D01*
X18380238Y-13239762D01*
X18375476Y-13244524D01*
X18370714Y-13246905D01*
X18361190Y-13249286D01*
X18354048Y-13249286D01*
X18344524Y-13246905D01*
X18339762Y-13244524D01*
X18335000Y-13239762D01*
X18332619Y-13232619D01*
X18332619Y-13227857D01*
X18335000Y-13220714D01*
X18337381Y-13218333D01*
X18337381Y-13199286D02*
X18335000Y-13196905D01*
X18332619Y-13192143D01*
X18332619Y-13180238D01*
X18335000Y-13175476D01*
X18337381Y-13173095D01*
X18342143Y-13170714D01*
X18346905Y-13170714D01*
X18354048Y-13173095D01*
X18382619Y-13201667D01*
X18382619Y-13170714D01*
G04 #@! TO.C,C3*
X19457857Y-12628333D02*
X19460238Y-12630714D01*
X19462619Y-12637857D01*
X19462619Y-12642619D01*
X19460238Y-12649762D01*
X19455476Y-12654524D01*
X19450714Y-12656905D01*
X19441190Y-12659286D01*
X19434048Y-12659286D01*
X19424524Y-12656905D01*
X19419762Y-12654524D01*
X19415000Y-12649762D01*
X19412619Y-12642619D01*
X19412619Y-12637857D01*
X19415000Y-12630714D01*
X19417381Y-12628333D01*
X19412619Y-12611667D02*
X19412619Y-12580714D01*
X19431667Y-12597381D01*
X19431667Y-12590238D01*
X19434048Y-12585476D01*
X19436429Y-12583095D01*
X19441190Y-12580714D01*
X19453095Y-12580714D01*
X19457857Y-12583095D01*
X19460238Y-12585476D01*
X19462619Y-12590238D01*
X19462619Y-12604524D01*
X19460238Y-12609286D01*
X19457857Y-12611667D01*
G04 #@! TO.C,C4*
X18377857Y-10748333D02*
X18380238Y-10750714D01*
X18382619Y-10757857D01*
X18382619Y-10762619D01*
X18380238Y-10769762D01*
X18375476Y-10774524D01*
X18370714Y-10776905D01*
X18361190Y-10779286D01*
X18354048Y-10779286D01*
X18344524Y-10776905D01*
X18339762Y-10774524D01*
X18335000Y-10769762D01*
X18332619Y-10762619D01*
X18332619Y-10757857D01*
X18335000Y-10750714D01*
X18337381Y-10748333D01*
X18349286Y-10705476D02*
X18382619Y-10705476D01*
X18330238Y-10717381D02*
X18365952Y-10729286D01*
X18365952Y-10698333D01*
G04 #@! TO.C,C5*
X19311667Y-12067857D02*
X19309286Y-12070238D01*
X19302143Y-12072619D01*
X19297381Y-12072619D01*
X19290238Y-12070238D01*
X19285476Y-12065476D01*
X19283095Y-12060714D01*
X19280714Y-12051190D01*
X19280714Y-12044048D01*
X19283095Y-12034524D01*
X19285476Y-12029762D01*
X19290238Y-12025000D01*
X19297381Y-12022619D01*
X19302143Y-12022619D01*
X19309286Y-12025000D01*
X19311667Y-12027381D01*
X19356905Y-12022619D02*
X19333095Y-12022619D01*
X19330714Y-12046428D01*
X19333095Y-12044048D01*
X19337857Y-12041667D01*
X19349762Y-12041667D01*
X19354524Y-12044048D01*
X19356905Y-12046428D01*
X19359286Y-12051190D01*
X19359286Y-12063095D01*
X19356905Y-12067857D01*
X19354524Y-12070238D01*
X19349762Y-12072619D01*
X19337857Y-12072619D01*
X19333095Y-12070238D01*
X19330714Y-12067857D01*
G04 #@! TO.C,C6*
X18331667Y-10657857D02*
X18329286Y-10660238D01*
X18322143Y-10662619D01*
X18317381Y-10662619D01*
X18310238Y-10660238D01*
X18305476Y-10655476D01*
X18303095Y-10650714D01*
X18300714Y-10641190D01*
X18300714Y-10634048D01*
X18303095Y-10624524D01*
X18305476Y-10619762D01*
X18310238Y-10615000D01*
X18317381Y-10612619D01*
X18322143Y-10612619D01*
X18329286Y-10615000D01*
X18331667Y-10617381D01*
X18374524Y-10612619D02*
X18365000Y-10612619D01*
X18360238Y-10615000D01*
X18357857Y-10617381D01*
X18353095Y-10624524D01*
X18350714Y-10634048D01*
X18350714Y-10653095D01*
X18353095Y-10657857D01*
X18355476Y-10660238D01*
X18360238Y-10662619D01*
X18369762Y-10662619D01*
X18374524Y-10660238D01*
X18376905Y-10657857D01*
X18379286Y-10653095D01*
X18379286Y-10641190D01*
X18376905Y-10636429D01*
X18374524Y-10634048D01*
X18369762Y-10631667D01*
X18360238Y-10631667D01*
X18355476Y-10634048D01*
X18353095Y-10636429D01*
X18350714Y-10641190D01*
G04 #@! TO.C,C7*
X19017857Y-12118333D02*
X19020238Y-12120714D01*
X19022619Y-12127857D01*
X19022619Y-12132619D01*
X19020238Y-12139762D01*
X19015476Y-12144524D01*
X19010714Y-12146905D01*
X19001190Y-12149286D01*
X18994048Y-12149286D01*
X18984524Y-12146905D01*
X18979762Y-12144524D01*
X18975000Y-12139762D01*
X18972619Y-12132619D01*
X18972619Y-12127857D01*
X18975000Y-12120714D01*
X18977381Y-12118333D01*
X18972619Y-12101667D02*
X18972619Y-12068333D01*
X19022619Y-12089762D01*
G04 #@! TO.C,C8*
X19161667Y-12987857D02*
X19159286Y-12990238D01*
X19152143Y-12992619D01*
X19147381Y-12992619D01*
X19140238Y-12990238D01*
X19135476Y-12985476D01*
X19133095Y-12980714D01*
X19130714Y-12971190D01*
X19130714Y-12964048D01*
X19133095Y-12954524D01*
X19135476Y-12949762D01*
X19140238Y-12945000D01*
X19147381Y-12942619D01*
X19152143Y-12942619D01*
X19159286Y-12945000D01*
X19161667Y-12947381D01*
X19190238Y-12964048D02*
X19185476Y-12961667D01*
X19183095Y-12959286D01*
X19180714Y-12954524D01*
X19180714Y-12952143D01*
X19183095Y-12947381D01*
X19185476Y-12945000D01*
X19190238Y-12942619D01*
X19199762Y-12942619D01*
X19204524Y-12945000D01*
X19206905Y-12947381D01*
X19209286Y-12952143D01*
X19209286Y-12954524D01*
X19206905Y-12959286D01*
X19204524Y-12961667D01*
X19199762Y-12964048D01*
X19190238Y-12964048D01*
X19185476Y-12966428D01*
X19183095Y-12968809D01*
X19180714Y-12973571D01*
X19180714Y-12983095D01*
X19183095Y-12987857D01*
X19185476Y-12990238D01*
X19190238Y-12992619D01*
X19199762Y-12992619D01*
X19204524Y-12990238D01*
X19206905Y-12987857D01*
X19209286Y-12983095D01*
X19209286Y-12973571D01*
X19206905Y-12968809D01*
X19204524Y-12966428D01*
X19199762Y-12964048D01*
G04 #@! TO.C,C9*
X19367857Y-12798333D02*
X19370238Y-12800714D01*
X19372619Y-12807857D01*
X19372619Y-12812619D01*
X19370238Y-12819762D01*
X19365476Y-12824524D01*
X19360714Y-12826905D01*
X19351190Y-12829286D01*
X19344048Y-12829286D01*
X19334524Y-12826905D01*
X19329762Y-12824524D01*
X19325000Y-12819762D01*
X19322619Y-12812619D01*
X19322619Y-12807857D01*
X19325000Y-12800714D01*
X19327381Y-12798333D01*
X19372619Y-12774524D02*
X19372619Y-12765000D01*
X19370238Y-12760238D01*
X19367857Y-12757857D01*
X19360714Y-12753095D01*
X19351190Y-12750714D01*
X19332143Y-12750714D01*
X19327381Y-12753095D01*
X19325000Y-12755476D01*
X19322619Y-12760238D01*
X19322619Y-12769762D01*
X19325000Y-12774524D01*
X19327381Y-12776905D01*
X19332143Y-12779286D01*
X19344048Y-12779286D01*
X19348810Y-12776905D01*
X19351190Y-12774524D01*
X19353571Y-12769762D01*
X19353571Y-12760238D01*
X19351190Y-12755476D01*
X19348810Y-12753095D01*
X19344048Y-12750714D01*
G04 #@! TO.C,C10*
X19092357Y-10657857D02*
X19089976Y-10660238D01*
X19082833Y-10662619D01*
X19078071Y-10662619D01*
X19070929Y-10660238D01*
X19066167Y-10655476D01*
X19063786Y-10650714D01*
X19061405Y-10641190D01*
X19061405Y-10634048D01*
X19063786Y-10624524D01*
X19066167Y-10619762D01*
X19070929Y-10615000D01*
X19078071Y-10612619D01*
X19082833Y-10612619D01*
X19089976Y-10615000D01*
X19092357Y-10617381D01*
X19139976Y-10662619D02*
X19111405Y-10662619D01*
X19125690Y-10662619D02*
X19125690Y-10612619D01*
X19120929Y-10619762D01*
X19116167Y-10624524D01*
X19111405Y-10626905D01*
X19170929Y-10612619D02*
X19175690Y-10612619D01*
X19180452Y-10615000D01*
X19182833Y-10617381D01*
X19185214Y-10622143D01*
X19187595Y-10631667D01*
X19187595Y-10643571D01*
X19185214Y-10653095D01*
X19182833Y-10657857D01*
X19180452Y-10660238D01*
X19175690Y-10662619D01*
X19170929Y-10662619D01*
X19166167Y-10660238D01*
X19163786Y-10657857D01*
X19161405Y-10653095D01*
X19159024Y-10643571D01*
X19159024Y-10631667D01*
X19161405Y-10622143D01*
X19163786Y-10617381D01*
X19166167Y-10615000D01*
X19170929Y-10612619D01*
G04 #@! TO.C,C11*
X18953357Y-10657857D02*
X18950976Y-10660238D01*
X18943833Y-10662619D01*
X18939071Y-10662619D01*
X18931929Y-10660238D01*
X18927167Y-10655476D01*
X18924786Y-10650714D01*
X18922405Y-10641190D01*
X18922405Y-10634048D01*
X18924786Y-10624524D01*
X18927167Y-10619762D01*
X18931929Y-10615000D01*
X18939071Y-10612619D01*
X18943833Y-10612619D01*
X18950976Y-10615000D01*
X18953357Y-10617381D01*
X19000976Y-10662619D02*
X18972405Y-10662619D01*
X18986690Y-10662619D02*
X18986690Y-10612619D01*
X18981929Y-10619762D01*
X18977167Y-10624524D01*
X18972405Y-10626905D01*
X19048595Y-10662619D02*
X19020024Y-10662619D01*
X19034310Y-10662619D02*
X19034310Y-10612619D01*
X19029548Y-10619762D01*
X19024786Y-10624524D01*
X19020024Y-10626905D01*
G04 #@! TO.C,C12*
X18827857Y-10732143D02*
X18830238Y-10734524D01*
X18832619Y-10741667D01*
X18832619Y-10746429D01*
X18830238Y-10753571D01*
X18825476Y-10758333D01*
X18820714Y-10760714D01*
X18811190Y-10763095D01*
X18804048Y-10763095D01*
X18794524Y-10760714D01*
X18789762Y-10758333D01*
X18785000Y-10753571D01*
X18782619Y-10746429D01*
X18782619Y-10741667D01*
X18785000Y-10734524D01*
X18787381Y-10732143D01*
X18832619Y-10684524D02*
X18832619Y-10713095D01*
X18832619Y-10698810D02*
X18782619Y-10698810D01*
X18789762Y-10703571D01*
X18794524Y-10708333D01*
X18796905Y-10713095D01*
X18787381Y-10665476D02*
X18785000Y-10663095D01*
X18782619Y-10658333D01*
X18782619Y-10646429D01*
X18785000Y-10641667D01*
X18787381Y-10639286D01*
X18792143Y-10636905D01*
X18796905Y-10636905D01*
X18804048Y-10639286D01*
X18832619Y-10667857D01*
X18832619Y-10636905D01*
G04 #@! TO.C,C13*
X19027857Y-10967857D02*
X19025476Y-10970238D01*
X19018333Y-10972619D01*
X19013571Y-10972619D01*
X19006429Y-10970238D01*
X19001667Y-10965476D01*
X18999286Y-10960714D01*
X18996905Y-10951190D01*
X18996905Y-10944048D01*
X18999286Y-10934524D01*
X19001667Y-10929762D01*
X19006429Y-10925000D01*
X19013571Y-10922619D01*
X19018333Y-10922619D01*
X19025476Y-10925000D01*
X19027857Y-10927381D01*
X19075476Y-10972619D02*
X19046905Y-10972619D01*
X19061190Y-10972619D02*
X19061190Y-10922619D01*
X19056429Y-10929762D01*
X19051667Y-10934524D01*
X19046905Y-10936905D01*
X19092143Y-10922619D02*
X19123095Y-10922619D01*
X19106429Y-10941667D01*
X19113571Y-10941667D01*
X19118333Y-10944048D01*
X19120714Y-10946429D01*
X19123095Y-10951190D01*
X19123095Y-10963095D01*
X19120714Y-10967857D01*
X19118333Y-10970238D01*
X19113571Y-10972619D01*
X19099286Y-10972619D01*
X19094524Y-10970238D01*
X19092143Y-10967857D01*
G04 #@! TO.C,C14*
X18757857Y-10732143D02*
X18760238Y-10734524D01*
X18762619Y-10741667D01*
X18762619Y-10746429D01*
X18760238Y-10753571D01*
X18755476Y-10758333D01*
X18750714Y-10760714D01*
X18741190Y-10763095D01*
X18734048Y-10763095D01*
X18724524Y-10760714D01*
X18719762Y-10758333D01*
X18715000Y-10753571D01*
X18712619Y-10746429D01*
X18712619Y-10741667D01*
X18715000Y-10734524D01*
X18717381Y-10732143D01*
X18762619Y-10684524D02*
X18762619Y-10713095D01*
X18762619Y-10698810D02*
X18712619Y-10698810D01*
X18719762Y-10703571D01*
X18724524Y-10708333D01*
X18726905Y-10713095D01*
X18729286Y-10641667D02*
X18762619Y-10641667D01*
X18710238Y-10653571D02*
X18745952Y-10665476D01*
X18745952Y-10634524D01*
G04 #@! TO.C,C15*
X19317857Y-11087857D02*
X19315476Y-11090238D01*
X19308333Y-11092619D01*
X19303571Y-11092619D01*
X19296429Y-11090238D01*
X19291667Y-11085476D01*
X19289286Y-11080714D01*
X19286905Y-11071190D01*
X19286905Y-11064048D01*
X19289286Y-11054524D01*
X19291667Y-11049762D01*
X19296429Y-11045000D01*
X19303571Y-11042619D01*
X19308333Y-11042619D01*
X19315476Y-11045000D01*
X19317857Y-11047381D01*
X19365476Y-11092619D02*
X19336905Y-11092619D01*
X19351190Y-11092619D02*
X19351190Y-11042619D01*
X19346429Y-11049762D01*
X19341667Y-11054524D01*
X19336905Y-11056905D01*
X19410714Y-11042619D02*
X19386905Y-11042619D01*
X19384524Y-11066429D01*
X19386905Y-11064048D01*
X19391667Y-11061667D01*
X19403571Y-11061667D01*
X19408333Y-11064048D01*
X19410714Y-11066429D01*
X19413095Y-11071190D01*
X19413095Y-11083095D01*
X19410714Y-11087857D01*
X19408333Y-11090238D01*
X19403571Y-11092619D01*
X19391667Y-11092619D01*
X19386905Y-11090238D01*
X19384524Y-11087857D01*
G04 #@! TO.C,C16*
X19487857Y-11212143D02*
X19490238Y-11214524D01*
X19492619Y-11221667D01*
X19492619Y-11226428D01*
X19490238Y-11233571D01*
X19485476Y-11238333D01*
X19480714Y-11240714D01*
X19471190Y-11243095D01*
X19464048Y-11243095D01*
X19454524Y-11240714D01*
X19449762Y-11238333D01*
X19445000Y-11233571D01*
X19442619Y-11226428D01*
X19442619Y-11221667D01*
X19445000Y-11214524D01*
X19447381Y-11212143D01*
X19492619Y-11164524D02*
X19492619Y-11193095D01*
X19492619Y-11178810D02*
X19442619Y-11178810D01*
X19449762Y-11183571D01*
X19454524Y-11188333D01*
X19456905Y-11193095D01*
X19442619Y-11121667D02*
X19442619Y-11131190D01*
X19445000Y-11135952D01*
X19447381Y-11138333D01*
X19454524Y-11143095D01*
X19464048Y-11145476D01*
X19483095Y-11145476D01*
X19487857Y-11143095D01*
X19490238Y-11140714D01*
X19492619Y-11135952D01*
X19492619Y-11126429D01*
X19490238Y-11121667D01*
X19487857Y-11119286D01*
X19483095Y-11116905D01*
X19471190Y-11116905D01*
X19466429Y-11119286D01*
X19464048Y-11121667D01*
X19461667Y-11126429D01*
X19461667Y-11135952D01*
X19464048Y-11140714D01*
X19466429Y-11143095D01*
X19471190Y-11145476D01*
G04 #@! TO.C,C17*
X19187857Y-11822143D02*
X19190238Y-11824524D01*
X19192619Y-11831667D01*
X19192619Y-11836428D01*
X19190238Y-11843571D01*
X19185476Y-11848333D01*
X19180714Y-11850714D01*
X19171190Y-11853095D01*
X19164048Y-11853095D01*
X19154524Y-11850714D01*
X19149762Y-11848333D01*
X19145000Y-11843571D01*
X19142619Y-11836428D01*
X19142619Y-11831667D01*
X19145000Y-11824524D01*
X19147381Y-11822143D01*
X19192619Y-11774524D02*
X19192619Y-11803095D01*
X19192619Y-11788809D02*
X19142619Y-11788809D01*
X19149762Y-11793571D01*
X19154524Y-11798333D01*
X19156905Y-11803095D01*
X19142619Y-11757857D02*
X19142619Y-11724524D01*
X19192619Y-11745952D01*
G04 #@! TO.C,IC1*
X18711190Y-12962619D02*
X18711190Y-12912619D01*
X18763571Y-12957857D02*
X18761190Y-12960238D01*
X18754048Y-12962619D01*
X18749286Y-12962619D01*
X18742143Y-12960238D01*
X18737381Y-12955476D01*
X18735000Y-12950714D01*
X18732619Y-12941190D01*
X18732619Y-12934048D01*
X18735000Y-12924524D01*
X18737381Y-12919762D01*
X18742143Y-12915000D01*
X18749286Y-12912619D01*
X18754048Y-12912619D01*
X18761190Y-12915000D01*
X18763571Y-12917381D01*
X18811190Y-12962619D02*
X18782619Y-12962619D01*
X18796905Y-12962619D02*
X18796905Y-12912619D01*
X18792143Y-12919762D01*
X18787381Y-12924524D01*
X18782619Y-12926905D01*
G04 #@! TO.C,IC2*
X18801190Y-11372619D02*
X18801190Y-11322619D01*
X18853571Y-11367857D02*
X18851190Y-11370238D01*
X18844048Y-11372619D01*
X18839286Y-11372619D01*
X18832143Y-11370238D01*
X18827381Y-11365476D01*
X18825000Y-11360714D01*
X18822619Y-11351190D01*
X18822619Y-11344048D01*
X18825000Y-11334524D01*
X18827381Y-11329762D01*
X18832143Y-11325000D01*
X18839286Y-11322619D01*
X18844048Y-11322619D01*
X18851190Y-11325000D01*
X18853571Y-11327381D01*
X18872619Y-11327381D02*
X18875000Y-11325000D01*
X18879762Y-11322619D01*
X18891667Y-11322619D01*
X18896429Y-11325000D01*
X18898810Y-11327381D01*
X18901190Y-11332143D01*
X18901190Y-11336905D01*
X18898810Y-11344048D01*
X18870238Y-11372619D01*
X18901190Y-11372619D01*
G04 #@! TO.C,J2*
X18683333Y-12492619D02*
X18683333Y-12528333D01*
X18680952Y-12535476D01*
X18676190Y-12540238D01*
X18669048Y-12542619D01*
X18664286Y-12542619D01*
X18704762Y-12497381D02*
X18707143Y-12495000D01*
X18711905Y-12492619D01*
X18723810Y-12492619D01*
X18728571Y-12495000D01*
X18730952Y-12497381D01*
X18733333Y-12502143D01*
X18733333Y-12506905D01*
X18730952Y-12514048D01*
X18702381Y-12542619D01*
X18733333Y-12542619D01*
G04 #@! TO.C,J3*
X18643333Y-12052619D02*
X18643333Y-12088333D01*
X18640952Y-12095476D01*
X18636190Y-12100238D01*
X18629048Y-12102619D01*
X18624286Y-12102619D01*
X18662381Y-12052619D02*
X18693333Y-12052619D01*
X18676667Y-12071667D01*
X18683810Y-12071667D01*
X18688571Y-12074048D01*
X18690952Y-12076428D01*
X18693333Y-12081190D01*
X18693333Y-12093095D01*
X18690952Y-12097857D01*
X18688571Y-12100238D01*
X18683810Y-12102619D01*
X18669524Y-12102619D01*
X18664762Y-12100238D01*
X18662381Y-12097857D01*
G04 #@! TO.C,J4*
X18033333Y-10972619D02*
X18033333Y-11008333D01*
X18030952Y-11015476D01*
X18026190Y-11020238D01*
X18019048Y-11022619D01*
X18014286Y-11022619D01*
X18078571Y-10989286D02*
X18078571Y-11022619D01*
X18066667Y-10970238D02*
X18054762Y-11005952D01*
X18085714Y-11005952D01*
G04 #@! TO.C,J5*
X18033333Y-10672619D02*
X18033333Y-10708333D01*
X18030952Y-10715476D01*
X18026190Y-10720238D01*
X18019048Y-10722619D01*
X18014286Y-10722619D01*
X18080952Y-10672619D02*
X18057143Y-10672619D01*
X18054762Y-10696429D01*
X18057143Y-10694048D01*
X18061905Y-10691667D01*
X18073810Y-10691667D01*
X18078571Y-10694048D01*
X18080952Y-10696429D01*
X18083333Y-10701190D01*
X18083333Y-10713095D01*
X18080952Y-10717857D01*
X18078571Y-10720238D01*
X18073810Y-10722619D01*
X18061905Y-10722619D01*
X18057143Y-10720238D01*
X18054762Y-10717857D01*
G04 #@! TO.C,J6*
X18732619Y-12386667D02*
X18768333Y-12386667D01*
X18775476Y-12389048D01*
X18780238Y-12393809D01*
X18782619Y-12400952D01*
X18782619Y-12405714D01*
X18732619Y-12341428D02*
X18732619Y-12350952D01*
X18735000Y-12355714D01*
X18737381Y-12358095D01*
X18744524Y-12362857D01*
X18754048Y-12365238D01*
X18773095Y-12365238D01*
X18777857Y-12362857D01*
X18780238Y-12360476D01*
X18782619Y-12355714D01*
X18782619Y-12346190D01*
X18780238Y-12341428D01*
X18777857Y-12339048D01*
X18773095Y-12336667D01*
X18761190Y-12336667D01*
X18756429Y-12339048D01*
X18754048Y-12341428D01*
X18751667Y-12346190D01*
X18751667Y-12355714D01*
X18754048Y-12360476D01*
X18756429Y-12362857D01*
X18761190Y-12365238D01*
G04 #@! TO.C,J7*
X18743333Y-13452619D02*
X18743333Y-13488333D01*
X18740952Y-13495476D01*
X18736190Y-13500238D01*
X18729048Y-13502619D01*
X18724286Y-13502619D01*
X18762381Y-13452619D02*
X18795714Y-13452619D01*
X18774286Y-13502619D01*
G04 #@! TO.C,J8*
X18833333Y-13452619D02*
X18833333Y-13488333D01*
X18830952Y-13495476D01*
X18826190Y-13500238D01*
X18819048Y-13502619D01*
X18814286Y-13502619D01*
X18864286Y-13474048D02*
X18859524Y-13471667D01*
X18857143Y-13469286D01*
X18854762Y-13464524D01*
X18854762Y-13462143D01*
X18857143Y-13457381D01*
X18859524Y-13455000D01*
X18864286Y-13452619D01*
X18873810Y-13452619D01*
X18878571Y-13455000D01*
X18880952Y-13457381D01*
X18883333Y-13462143D01*
X18883333Y-13464524D01*
X18880952Y-13469286D01*
X18878571Y-13471667D01*
X18873810Y-13474048D01*
X18864286Y-13474048D01*
X18859524Y-13476428D01*
X18857143Y-13478809D01*
X18854762Y-13483571D01*
X18854762Y-13493095D01*
X18857143Y-13497857D01*
X18859524Y-13500238D01*
X18864286Y-13502619D01*
X18873810Y-13502619D01*
X18878571Y-13500238D01*
X18880952Y-13497857D01*
X18883333Y-13493095D01*
X18883333Y-13483571D01*
X18880952Y-13478809D01*
X18878571Y-13476428D01*
X18873810Y-13474048D01*
G04 #@! TO.C,J9*
X18653333Y-13452619D02*
X18653333Y-13488333D01*
X18650952Y-13495476D01*
X18646190Y-13500238D01*
X18639048Y-13502619D01*
X18634286Y-13502619D01*
X18679524Y-13502619D02*
X18689048Y-13502619D01*
X18693810Y-13500238D01*
X18696190Y-13497857D01*
X18700952Y-13490714D01*
X18703333Y-13481190D01*
X18703333Y-13462143D01*
X18700952Y-13457381D01*
X18698571Y-13455000D01*
X18693810Y-13452619D01*
X18684286Y-13452619D01*
X18679524Y-13455000D01*
X18677143Y-13457381D01*
X18674762Y-13462143D01*
X18674762Y-13474048D01*
X18677143Y-13478809D01*
X18679524Y-13481190D01*
X18684286Y-13483571D01*
X18693810Y-13483571D01*
X18698571Y-13481190D01*
X18700952Y-13478809D01*
X18703333Y-13474048D01*
G04 #@! TO.C,J10*
X18779524Y-11882619D02*
X18779524Y-11918333D01*
X18777143Y-11925476D01*
X18772381Y-11930238D01*
X18765238Y-11932619D01*
X18760476Y-11932619D01*
X18829524Y-11932619D02*
X18800952Y-11932619D01*
X18815238Y-11932619D02*
X18815238Y-11882619D01*
X18810476Y-11889762D01*
X18805714Y-11894524D01*
X18800952Y-11896905D01*
X18860476Y-11882619D02*
X18865238Y-11882619D01*
X18870000Y-11885000D01*
X18872381Y-11887381D01*
X18874762Y-11892143D01*
X18877143Y-11901667D01*
X18877143Y-11913571D01*
X18874762Y-11923095D01*
X18872381Y-11927857D01*
X18870000Y-11930238D01*
X18865238Y-11932619D01*
X18860476Y-11932619D01*
X18855714Y-11930238D01*
X18853333Y-11927857D01*
X18850952Y-11923095D01*
X18848571Y-11913571D01*
X18848571Y-11901667D01*
X18850952Y-11892143D01*
X18853333Y-11887381D01*
X18855714Y-11885000D01*
X18860476Y-11882619D01*
G04 #@! TO.C,J11*
X18949524Y-11812619D02*
X18949524Y-11848333D01*
X18947143Y-11855476D01*
X18942381Y-11860238D01*
X18935238Y-11862619D01*
X18930476Y-11862619D01*
X18999524Y-11862619D02*
X18970952Y-11862619D01*
X18985238Y-11862619D02*
X18985238Y-11812619D01*
X18980476Y-11819762D01*
X18975714Y-11824524D01*
X18970952Y-11826905D01*
X19047143Y-11862619D02*
X19018571Y-11862619D01*
X19032857Y-11862619D02*
X19032857Y-11812619D01*
X19028095Y-11819762D01*
X19023333Y-11824524D01*
X19018571Y-11826905D01*
G04 #@! TO.C,J12*
X19222619Y-11500476D02*
X19258333Y-11500476D01*
X19265476Y-11502857D01*
X19270238Y-11507619D01*
X19272619Y-11514762D01*
X19272619Y-11519524D01*
X19272619Y-11450476D02*
X19272619Y-11479048D01*
X19272619Y-11464762D02*
X19222619Y-11464762D01*
X19229762Y-11469524D01*
X19234524Y-11474286D01*
X19236905Y-11479048D01*
X19227381Y-11431428D02*
X19225000Y-11429048D01*
X19222619Y-11424286D01*
X19222619Y-11412381D01*
X19225000Y-11407619D01*
X19227381Y-11405238D01*
X19232143Y-11402857D01*
X19236905Y-11402857D01*
X19244048Y-11405238D01*
X19272619Y-11433809D01*
X19272619Y-11402857D01*
G04 #@! TO.C,J13*
X19222619Y-11240476D02*
X19258333Y-11240476D01*
X19265476Y-11242857D01*
X19270238Y-11247619D01*
X19272619Y-11254762D01*
X19272619Y-11259524D01*
X19272619Y-11190476D02*
X19272619Y-11219048D01*
X19272619Y-11204762D02*
X19222619Y-11204762D01*
X19229762Y-11209524D01*
X19234524Y-11214286D01*
X19236905Y-11219048D01*
X19222619Y-11173810D02*
X19222619Y-11142857D01*
X19241667Y-11159524D01*
X19241667Y-11152381D01*
X19244048Y-11147619D01*
X19246429Y-11145238D01*
X19251190Y-11142857D01*
X19263095Y-11142857D01*
X19267857Y-11145238D01*
X19270238Y-11147619D01*
X19272619Y-11152381D01*
X19272619Y-11166667D01*
X19270238Y-11171429D01*
X19267857Y-11173810D01*
G04 #@! TO.C,J14*
X19359524Y-11412619D02*
X19359524Y-11448333D01*
X19357143Y-11455476D01*
X19352381Y-11460238D01*
X19345238Y-11462619D01*
X19340476Y-11462619D01*
X19409524Y-11462619D02*
X19380952Y-11462619D01*
X19395238Y-11462619D02*
X19395238Y-11412619D01*
X19390476Y-11419762D01*
X19385714Y-11424524D01*
X19380952Y-11426905D01*
X19452381Y-11429286D02*
X19452381Y-11462619D01*
X19440476Y-11410238D02*
X19428571Y-11445952D01*
X19459524Y-11445952D01*
G04 #@! TO.C,J15*
X18459524Y-11732619D02*
X18459524Y-11768333D01*
X18457143Y-11775476D01*
X18452381Y-11780238D01*
X18445238Y-11782619D01*
X18440476Y-11782619D01*
X18509524Y-11782619D02*
X18480952Y-11782619D01*
X18495238Y-11782619D02*
X18495238Y-11732619D01*
X18490476Y-11739762D01*
X18485714Y-11744524D01*
X18480952Y-11746905D01*
X18554762Y-11732619D02*
X18530952Y-11732619D01*
X18528571Y-11756428D01*
X18530952Y-11754048D01*
X18535714Y-11751667D01*
X18547619Y-11751667D01*
X18552381Y-11754048D01*
X18554762Y-11756428D01*
X18557143Y-11761190D01*
X18557143Y-11773095D01*
X18554762Y-11777857D01*
X18552381Y-11780238D01*
X18547619Y-11782619D01*
X18535714Y-11782619D01*
X18530952Y-11780238D01*
X18528571Y-11777857D01*
G04 #@! TO.C,J16*
X18719524Y-11732619D02*
X18719524Y-11768333D01*
X18717143Y-11775476D01*
X18712381Y-11780238D01*
X18705238Y-11782619D01*
X18700476Y-11782619D01*
X18769524Y-11782619D02*
X18740952Y-11782619D01*
X18755238Y-11782619D02*
X18755238Y-11732619D01*
X18750476Y-11739762D01*
X18745714Y-11744524D01*
X18740952Y-11746905D01*
X18812381Y-11732619D02*
X18802857Y-11732619D01*
X18798095Y-11735000D01*
X18795714Y-11737381D01*
X18790952Y-11744524D01*
X18788571Y-11754048D01*
X18788571Y-11773095D01*
X18790952Y-11777857D01*
X18793333Y-11780238D01*
X18798095Y-11782619D01*
X18807619Y-11782619D01*
X18812381Y-11780238D01*
X18814762Y-11777857D01*
X18817143Y-11773095D01*
X18817143Y-11761190D01*
X18814762Y-11756428D01*
X18812381Y-11754048D01*
X18807619Y-11751667D01*
X18798095Y-11751667D01*
X18793333Y-11754048D01*
X18790952Y-11756428D01*
X18788571Y-11761190D01*
G04 #@! TO.C,J17*
X18599524Y-11882619D02*
X18599524Y-11918333D01*
X18597143Y-11925476D01*
X18592381Y-11930238D01*
X18585238Y-11932619D01*
X18580476Y-11932619D01*
X18649524Y-11932619D02*
X18620952Y-11932619D01*
X18635238Y-11932619D02*
X18635238Y-11882619D01*
X18630476Y-11889762D01*
X18625714Y-11894524D01*
X18620952Y-11896905D01*
X18666190Y-11882619D02*
X18699524Y-11882619D01*
X18678095Y-11932619D01*
G04 #@! TO.C,J18*
X19199524Y-12682619D02*
X19199524Y-12718333D01*
X19197143Y-12725476D01*
X19192381Y-12730238D01*
X19185238Y-12732619D01*
X19180476Y-12732619D01*
X19249524Y-12732619D02*
X19220952Y-12732619D01*
X19235238Y-12732619D02*
X19235238Y-12682619D01*
X19230476Y-12689762D01*
X19225714Y-12694524D01*
X19220952Y-12696905D01*
X19278095Y-12704048D02*
X19273333Y-12701667D01*
X19270952Y-12699286D01*
X19268571Y-12694524D01*
X19268571Y-12692143D01*
X19270952Y-12687381D01*
X19273333Y-12685000D01*
X19278095Y-12682619D01*
X19287619Y-12682619D01*
X19292381Y-12685000D01*
X19294762Y-12687381D01*
X19297143Y-12692143D01*
X19297143Y-12694524D01*
X19294762Y-12699286D01*
X19292381Y-12701667D01*
X19287619Y-12704048D01*
X19278095Y-12704048D01*
X19273333Y-12706428D01*
X19270952Y-12708809D01*
X19268571Y-12713571D01*
X19268571Y-12723095D01*
X19270952Y-12727857D01*
X19273333Y-12730238D01*
X19278095Y-12732619D01*
X19287619Y-12732619D01*
X19292381Y-12730238D01*
X19294762Y-12727857D01*
X19297143Y-12723095D01*
X19297143Y-12713571D01*
X19294762Y-12708809D01*
X19292381Y-12706428D01*
X19287619Y-12704048D01*
G04 #@! TO.C,J19*
X18919524Y-12672619D02*
X18919524Y-12708333D01*
X18917143Y-12715476D01*
X18912381Y-12720238D01*
X18905238Y-12722619D01*
X18900476Y-12722619D01*
X18969524Y-12722619D02*
X18940952Y-12722619D01*
X18955238Y-12722619D02*
X18955238Y-12672619D01*
X18950476Y-12679762D01*
X18945714Y-12684524D01*
X18940952Y-12686905D01*
X18993333Y-12722619D02*
X19002857Y-12722619D01*
X19007619Y-12720238D01*
X19010000Y-12717857D01*
X19014762Y-12710714D01*
X19017143Y-12701190D01*
X19017143Y-12682143D01*
X19014762Y-12677381D01*
X19012381Y-12675000D01*
X19007619Y-12672619D01*
X18998095Y-12672619D01*
X18993333Y-12675000D01*
X18990952Y-12677381D01*
X18988571Y-12682143D01*
X18988571Y-12694048D01*
X18990952Y-12698809D01*
X18993333Y-12701190D01*
X18998095Y-12703571D01*
X19007619Y-12703571D01*
X19012381Y-12701190D01*
X19014762Y-12698809D01*
X19017143Y-12694048D01*
G04 #@! TO.C,L1*
X18641667Y-10662619D02*
X18617857Y-10662619D01*
X18617857Y-10612619D01*
X18684524Y-10662619D02*
X18655952Y-10662619D01*
X18670238Y-10662619D02*
X18670238Y-10612619D01*
X18665476Y-10619762D01*
X18660714Y-10624524D01*
X18655952Y-10626905D01*
G04 #@! TO.C,L2*
X19321667Y-10932619D02*
X19297857Y-10932619D01*
X19297857Y-10882619D01*
X19335952Y-10887381D02*
X19338333Y-10885000D01*
X19343095Y-10882619D01*
X19355000Y-10882619D01*
X19359762Y-10885000D01*
X19362143Y-10887381D01*
X19364524Y-10892143D01*
X19364524Y-10896905D01*
X19362143Y-10904048D01*
X19333571Y-10932619D01*
X19364524Y-10932619D01*
G04 #@! TO.C,R1*
X18591667Y-10882619D02*
X18575000Y-10858810D01*
X18563095Y-10882619D02*
X18563095Y-10832619D01*
X18582143Y-10832619D01*
X18586905Y-10835000D01*
X18589286Y-10837381D01*
X18591667Y-10842143D01*
X18591667Y-10849286D01*
X18589286Y-10854048D01*
X18586905Y-10856429D01*
X18582143Y-10858810D01*
X18563095Y-10858810D01*
X18639286Y-10882619D02*
X18610714Y-10882619D01*
X18625000Y-10882619D02*
X18625000Y-10832619D01*
X18620238Y-10839762D01*
X18615476Y-10844524D01*
X18610714Y-10846905D01*
G04 #@! TO.C,R3*
X19411667Y-11312619D02*
X19395000Y-11288809D01*
X19383095Y-11312619D02*
X19383095Y-11262619D01*
X19402143Y-11262619D01*
X19406905Y-11265000D01*
X19409286Y-11267381D01*
X19411667Y-11272143D01*
X19411667Y-11279286D01*
X19409286Y-11284048D01*
X19406905Y-11286428D01*
X19402143Y-11288809D01*
X19383095Y-11288809D01*
X19428333Y-11262619D02*
X19459286Y-11262619D01*
X19442619Y-11281667D01*
X19449762Y-11281667D01*
X19454524Y-11284048D01*
X19456905Y-11286428D01*
X19459286Y-11291190D01*
X19459286Y-11303095D01*
X19456905Y-11307857D01*
X19454524Y-11310238D01*
X19449762Y-11312619D01*
X19435476Y-11312619D01*
X19430714Y-11310238D01*
X19428333Y-11307857D01*
G04 #@! TO.C,R5*
X19021667Y-13072619D02*
X19005000Y-13048809D01*
X18993095Y-13072619D02*
X18993095Y-13022619D01*
X19012143Y-13022619D01*
X19016905Y-13025000D01*
X19019286Y-13027381D01*
X19021667Y-13032143D01*
X19021667Y-13039286D01*
X19019286Y-13044048D01*
X19016905Y-13046428D01*
X19012143Y-13048809D01*
X18993095Y-13048809D01*
X19066905Y-13022619D02*
X19043095Y-13022619D01*
X19040714Y-13046428D01*
X19043095Y-13044048D01*
X19047857Y-13041667D01*
X19059762Y-13041667D01*
X19064524Y-13044048D01*
X19066905Y-13046428D01*
X19069286Y-13051190D01*
X19069286Y-13063095D01*
X19066905Y-13067857D01*
X19064524Y-13070238D01*
X19059762Y-13072619D01*
X19047857Y-13072619D01*
X19043095Y-13070238D01*
X19040714Y-13067857D01*
G04 #@! TO.C,R6*
X19111667Y-13072619D02*
X19095000Y-13048809D01*
X19083095Y-13072619D02*
X19083095Y-13022619D01*
X19102143Y-13022619D01*
X19106905Y-13025000D01*
X19109286Y-13027381D01*
X19111667Y-13032143D01*
X19111667Y-13039286D01*
X19109286Y-13044048D01*
X19106905Y-13046428D01*
X19102143Y-13048809D01*
X19083095Y-13048809D01*
X19154524Y-13022619D02*
X19145000Y-13022619D01*
X19140238Y-13025000D01*
X19137857Y-13027381D01*
X19133095Y-13034524D01*
X19130714Y-13044048D01*
X19130714Y-13063095D01*
X19133095Y-13067857D01*
X19135476Y-13070238D01*
X19140238Y-13072619D01*
X19149762Y-13072619D01*
X19154524Y-13070238D01*
X19156905Y-13067857D01*
X19159286Y-13063095D01*
X19159286Y-13051190D01*
X19156905Y-13046428D01*
X19154524Y-13044048D01*
X19149762Y-13041667D01*
X19140238Y-13041667D01*
X19135476Y-13044048D01*
X19133095Y-13046428D01*
X19130714Y-13051190D01*
G04 #@! TO.C,U1*
X18942619Y-12388095D02*
X18983095Y-12388095D01*
X18987857Y-12385714D01*
X18990238Y-12383333D01*
X18992619Y-12378571D01*
X18992619Y-12369048D01*
X18990238Y-12364286D01*
X18987857Y-12361905D01*
X18983095Y-12359524D01*
X18942619Y-12359524D01*
X18992619Y-12309524D02*
X18992619Y-12338095D01*
X18992619Y-12323809D02*
X18942619Y-12323809D01*
X18949762Y-12328571D01*
X18954524Y-12333333D01*
X18956905Y-12338095D01*
G04 #@! TO.C,Y1*
X19216190Y-10818810D02*
X19216190Y-10842619D01*
X19199524Y-10792619D02*
X19216190Y-10818810D01*
X19232857Y-10792619D01*
X19275714Y-10842619D02*
X19247143Y-10842619D01*
X19261429Y-10842619D02*
X19261429Y-10792619D01*
X19256667Y-10799762D01*
X19251905Y-10804524D01*
X19247143Y-10806905D01*
G04 #@! TD*
M02*
