M48
; DRILL file {KiCad (5.1.6)-1} date 05/09/21 15:01:26
; FORMAT={-:-/ absolute / metric / decimal}
; #@! TF.CreationDate,2021-05-09T15:01:26+05:30
; #@! TF.GenerationSoftware,Kicad,Pcbnew,(5.1.6)-1
; #@! TF.FileFunction,Plated,1,2,PTH
FMAT,2
METRIC
T1C0.400
%
G90
G05
T1
X183.2Y-106.6
X184.1Y-114.0
X184.172Y-131.603
X184.225Y-110.125
X184.225Y-111.475
X184.525Y-112.5
X184.995Y-131.035
X185.368Y-116.0
X186.0Y-128.8
X186.495Y-126.401
X186.5Y-120.3
X186.812Y-119.287
X187.3Y-125.2
X187.5Y-107.4
X187.918Y-126.945
X187.94Y-131.365
X188.5Y-113.5
X189.2Y-133.4
X189.8Y-125.2
X190.0Y-118.7
X190.0Y-123.65
X190.175Y-127.7
X190.284Y-128.606
X190.5Y-106.925
X191.4Y-118.3
X191.5Y-110.65
X191.65Y-124.6
X191.8Y-120.3
X192.0Y-131.3
X192.2Y-128.8
X192.475Y-114.7
X192.685Y-126.715
X193.3Y-129.0
X193.55Y-124.6
X193.7Y-110.7
T0
M30
