  0
SECTION
  2
HEADER
  9
$ANGBASE
  50
0.0
  9
$ANGDIR
  70
1
  9
$MEASUREMENT
  70
1
  0
ENDSEC
  0
SECTION
  2
TABLES
  0
TABLE
  2
LTYPE
  70
4
  0
LTYPE
  5
40F
  2
CONTINUOUS
  70
0
  3
Solid line
  72
65
  73
0
  40
0.0
  0
LTYPE
  5
410
  2
DASHDOT
 70
0
  3
Dash Dot ____ _ ____ _
 72
65
 73
4
 40
2.0
 49
1.25
 49
-0.25
 49
0.25
 49
-0.25
  0
LTYPE
  5
411
  2
DASHED
 70
0
  3
Dashed __ __ __ __ __
 72
65
 73
2
 40
0.75
 49
0.5
 49
-0.25
  0
LTYPE
  5
43B
  2
DOTTED
 70
0
  3
Dotted .  .  .  .
 72
65
 73
2
 40
0.2
 49
0.0
 49
-0.2
  0
ENDTAB
  0
TABLE
  2
STYLE
  70
4
  0
STYLE
  2
KICAD
  70
0
  40
0
  41
1
  42
1
  50
0
  71
0
  3
isocp.shx
  0
STYLE
  2
KICADB
  70
0
  40
0
  41
1
  42
1
  50
0
  71
0
  3
isocp.shx
  0
STYLE
  2
KICADI
  70
0
  40
0
  41
1
  42
1
  50
15
  71
0
  3
isocp.shx
  0
STYLE
  2
KICADBI
  70
0
  40
0
  41
1
  42
1
  50
15
  71
0
  3
isocp.shx
  0
ENDTAB
  0
TABLE
  2
LAYER
  70
1
  0
LAYER
  2
BLACK
  70
0
  62
7
  6
CONTINUOUS
  0
ENDTAB
  0
ENDSEC
  0
SECTION
  2
ENTITIES
0
LINE
8
BLACK
6
CONTINUOUS
10
191.449
20
-128.642
11
191.473
21
-128.65
0
LINE
8
BLACK
6
CONTINUOUS
10
191.473
20
-128.65
11
191.494
21
-128.661
0
LINE
8
BLACK
6
CONTINUOUS
10
191.494
20
-128.661
11
191.513
21
-128.677
0
LINE
8
BLACK
6
CONTINUOUS
10
191.513
20
-128.677
11
191.529
21
-128.696
0
LINE
8
BLACK
6
CONTINUOUS
10
191.529
20
-128.696
11
191.54
21
-128.717
0
LINE
8
BLACK
6
CONTINUOUS
10
191.54
20
-128.717
11
191.548
21
-128.741
0
LINE
8
BLACK
6
CONTINUOUS
10
191.548
20
-128.741
11
191.55
21
-128.765
0
LINE
8
BLACK
6
CONTINUOUS
10
191.55
20
-128.765
11
191.55
21
-129.075
0
LINE
8
BLACK
6
CONTINUOUS
10
191.55
20
-129.075
11
191.548
21
-129.099
0
LINE
8
BLACK
6
CONTINUOUS
10
191.548
20
-129.099
11
191.54
21
-129.123
0
LINE
8
BLACK
6
CONTINUOUS
10
191.54
20
-129.123
11
191.529
21
-129.144
0
LINE
8
BLACK
6
CONTINUOUS
10
191.529
20
-129.144
11
191.513
21
-129.163
0
LINE
8
BLACK
6
CONTINUOUS
10
191.513
20
-129.163
11
191.494
21
-129.179
0
LINE
8
BLACK
6
CONTINUOUS
10
191.494
20
-129.179
11
191.473
21
-129.19
0
LINE
8
BLACK
6
CONTINUOUS
10
191.473
20
-129.19
11
191.449
21
-129.198
0
LINE
8
BLACK
6
CONTINUOUS
10
191.449
20
-129.198
11
191.425
21
-129.2
0
LINE
8
BLACK
6
CONTINUOUS
10
191.425
20
-129.2
11
191.175
21
-129.2
0
LINE
8
BLACK
6
CONTINUOUS
10
191.175
20
-129.2
11
191.151
21
-129.198
0
LINE
8
BLACK
6
CONTINUOUS
10
191.151
20
-129.198
11
191.127
21
-129.19
0
LINE
8
BLACK
6
CONTINUOUS
10
191.127
20
-129.19
11
191.106
21
-129.179
0
LINE
8
BLACK
6
CONTINUOUS
10
191.106
20
-129.179
11
191.087
21
-129.163
0
LINE
8
BLACK
6
CONTINUOUS
10
191.087
20
-129.163
11
191.071
21
-129.144
0
LINE
8
BLACK
6
CONTINUOUS
10
191.071
20
-129.144
11
191.06
21
-129.123
0
LINE
8
BLACK
6
CONTINUOUS
10
191.06
20
-129.123
11
191.052
21
-129.099
0
LINE
8
BLACK
6
CONTINUOUS
10
191.052
20
-129.099
11
191.05
21
-129.075
0
LINE
8
BLACK
6
CONTINUOUS
10
191.05
20
-129.075
11
191.05
21
-128.765
0
LINE
8
BLACK
6
CONTINUOUS
10
191.05
20
-128.765
11
191.052
21
-128.741
0
LINE
8
BLACK
6
CONTINUOUS
10
191.052
20
-128.741
11
191.06
21
-128.717
0
LINE
8
BLACK
6
CONTINUOUS
10
191.06
20
-128.717
11
191.071
21
-128.696
0
LINE
8
BLACK
6
CONTINUOUS
10
191.071
20
-128.696
11
191.087
21
-128.677
0
LINE
8
BLACK
6
CONTINUOUS
10
191.087
20
-128.677
11
191.106
21
-128.661
0
LINE
8
BLACK
6
CONTINUOUS
10
191.106
20
-128.661
11
191.127
21
-128.65
0
LINE
8
BLACK
6
CONTINUOUS
10
191.127
20
-128.65
11
191.151
21
-128.642
0
LINE
8
BLACK
6
CONTINUOUS
10
191.151
20
-128.642
11
191.175
21
-128.64
0
LINE
8
BLACK
6
CONTINUOUS
10
191.175
20
-128.64
11
191.425
21
-128.64
0
LINE
8
BLACK
6
CONTINUOUS
10
191.425
20
-128.64
11
191.449
21
-128.642
0
LINE
8
BLACK
6
CONTINUOUS
10
188.149
20
-128.142
11
188.173
21
-128.15
0
LINE
8
BLACK
6
CONTINUOUS
10
188.173
20
-128.15
11
188.194
21
-128.161
0
LINE
8
BLACK
6
CONTINUOUS
10
188.194
20
-128.161
11
188.213
21
-128.177
0
LINE
8
BLACK
6
CONTINUOUS
10
188.213
20
-128.177
11
188.229
21
-128.196
0
LINE
8
BLACK
6
CONTINUOUS
10
188.229
20
-128.196
11
188.24
21
-128.217
0
LINE
8
BLACK
6
CONTINUOUS
10
188.24
20
-128.217
11
188.248
21
-128.241
0
LINE
8
BLACK
6
CONTINUOUS
10
188.248
20
-128.241
11
188.25
21
-128.265
0
LINE
8
BLACK
6
CONTINUOUS
10
188.25
20
-128.265
11
188.25
21
-128.575
0
LINE
8
BLACK
6
CONTINUOUS
10
188.25
20
-128.575
11
188.248
21
-128.599
0
LINE
8
BLACK
6
CONTINUOUS
10
188.248
20
-128.599
11
188.24
21
-128.623
0
LINE
8
BLACK
6
CONTINUOUS
10
188.24
20
-128.623
11
188.229
21
-128.644
0
LINE
8
BLACK
6
CONTINUOUS
10
188.229
20
-128.644
11
188.213
21
-128.663
0
LINE
8
BLACK
6
CONTINUOUS
10
188.213
20
-128.663
11
188.194
21
-128.679
0
LINE
8
BLACK
6
CONTINUOUS
10
188.194
20
-128.679
11
188.173
21
-128.69
0
LINE
8
BLACK
6
CONTINUOUS
10
188.173
20
-128.69
11
188.149
21
-128.698
0
LINE
8
BLACK
6
CONTINUOUS
10
188.149
20
-128.698
11
188.125
21
-128.7
0
LINE
8
BLACK
6
CONTINUOUS
10
188.125
20
-128.7
11
187.875
21
-128.7
0
LINE
8
BLACK
6
CONTINUOUS
10
187.875
20
-128.7
11
187.851
21
-128.698
0
LINE
8
BLACK
6
CONTINUOUS
10
187.851
20
-128.698
11
187.827
21
-128.69
0
LINE
8
BLACK
6
CONTINUOUS
10
187.827
20
-128.69
11
187.806
21
-128.679
0
LINE
8
BLACK
6
CONTINUOUS
10
187.806
20
-128.679
11
187.787
21
-128.663
0
LINE
8
BLACK
6
CONTINUOUS
10
187.787
20
-128.663
11
187.771
21
-128.644
0
LINE
8
BLACK
6
CONTINUOUS
10
187.771
20
-128.644
11
187.76
21
-128.623
0
LINE
8
BLACK
6
CONTINUOUS
10
187.76
20
-128.623
11
187.752
21
-128.599
0
LINE
8
BLACK
6
CONTINUOUS
10
187.752
20
-128.599
11
187.75
21
-128.575
0
LINE
8
BLACK
6
CONTINUOUS
10
187.75
20
-128.575
11
187.75
21
-128.265
0
LINE
8
BLACK
6
CONTINUOUS
10
187.75
20
-128.265
11
187.752
21
-128.241
0
LINE
8
BLACK
6
CONTINUOUS
10
187.752
20
-128.241
11
187.76
21
-128.217
0
LINE
8
BLACK
6
CONTINUOUS
10
187.76
20
-128.217
11
187.771
21
-128.196
0
LINE
8
BLACK
6
CONTINUOUS
10
187.771
20
-128.196
11
187.787
21
-128.177
0
LINE
8
BLACK
6
CONTINUOUS
10
187.787
20
-128.177
11
187.806
21
-128.161
0
LINE
8
BLACK
6
CONTINUOUS
10
187.806
20
-128.161
11
187.827
21
-128.15
0
LINE
8
BLACK
6
CONTINUOUS
10
187.827
20
-128.15
11
187.851
21
-128.142
0
LINE
8
BLACK
6
CONTINUOUS
10
187.851
20
-128.142
11
187.875
21
-128.14
0
LINE
8
BLACK
6
CONTINUOUS
10
187.875
20
-128.14
11
188.125
21
-128.14
0
LINE
8
BLACK
6
CONTINUOUS
10
188.125
20
-128.14
11
188.149
21
-128.142
0
LINE
8
BLACK
6
CONTINUOUS
10
191.449
20
-128.002
11
191.473
21
-128.01
0
LINE
8
BLACK
6
CONTINUOUS
10
191.473
20
-128.01
11
191.494
21
-128.021
0
LINE
8
BLACK
6
CONTINUOUS
10
191.494
20
-128.021
11
191.513
21
-128.037
0
LINE
8
BLACK
6
CONTINUOUS
10
191.513
20
-128.037
11
191.529
21
-128.056
0
LINE
8
BLACK
6
CONTINUOUS
10
191.529
20
-128.056
11
191.54
21
-128.077
0
LINE
8
BLACK
6
CONTINUOUS
10
191.54
20
-128.077
11
191.548
21
-128.101
0
LINE
8
BLACK
6
CONTINUOUS
10
191.548
20
-128.101
11
191.55
21
-128.125
0
LINE
8
BLACK
6
CONTINUOUS
10
191.55
20
-128.125
11
191.55
21
-128.435
0
LINE
8
BLACK
6
CONTINUOUS
10
191.55
20
-128.435
11
191.548
21
-128.459
0
LINE
8
BLACK
6
CONTINUOUS
10
191.548
20
-128.459
11
191.54
21
-128.483
0
LINE
8
BLACK
6
CONTINUOUS
10
191.54
20
-128.483
11
191.529
21
-128.504
0
LINE
8
BLACK
6
CONTINUOUS
10
191.529
20
-128.504
11
191.513
21
-128.523
0
LINE
8
BLACK
6
CONTINUOUS
10
191.513
20
-128.523
11
191.494
21
-128.539
0
LINE
8
BLACK
6
CONTINUOUS
10
191.494
20
-128.539
11
191.473
21
-128.55
0
LINE
8
BLACK
6
CONTINUOUS
10
191.473
20
-128.55
11
191.449
21
-128.558
0
LINE
8
BLACK
6
CONTINUOUS
10
191.449
20
-128.558
11
191.425
21
-128.56
0
LINE
8
BLACK
6
CONTINUOUS
10
191.425
20
-128.56
11
191.175
21
-128.56
0
LINE
8
BLACK
6
CONTINUOUS
10
191.175
20
-128.56
11
191.151
21
-128.558
0
LINE
8
BLACK
6
CONTINUOUS
10
191.151
20
-128.558
11
191.127
21
-128.55
0
LINE
8
BLACK
6
CONTINUOUS
10
191.127
20
-128.55
11
191.106
21
-128.539
0
LINE
8
BLACK
6
CONTINUOUS
10
191.106
20
-128.539
11
191.087
21
-128.523
0
LINE
8
BLACK
6
CONTINUOUS
10
191.087
20
-128.523
11
191.071
21
-128.504
0
LINE
8
BLACK
6
CONTINUOUS
10
191.071
20
-128.504
11
191.06
21
-128.483
0
LINE
8
BLACK
6
CONTINUOUS
10
191.06
20
-128.483
11
191.052
21
-128.459
0
LINE
8
BLACK
6
CONTINUOUS
10
191.052
20
-128.459
11
191.05
21
-128.435
0
LINE
8
BLACK
6
CONTINUOUS
10
191.05
20
-128.435
11
191.05
21
-128.125
0
LINE
8
BLACK
6
CONTINUOUS
10
191.05
20
-128.125
11
191.052
21
-128.101
0
LINE
8
BLACK
6
CONTINUOUS
10
191.052
20
-128.101
11
191.06
21
-128.077
0
LINE
8
BLACK
6
CONTINUOUS
10
191.06
20
-128.077
11
191.071
21
-128.056
0
LINE
8
BLACK
6
CONTINUOUS
10
191.071
20
-128.056
11
191.087
21
-128.037
0
LINE
8
BLACK
6
CONTINUOUS
10
191.087
20
-128.037
11
191.106
21
-128.021
0
LINE
8
BLACK
6
CONTINUOUS
10
191.106
20
-128.021
11
191.127
21
-128.01
0
LINE
8
BLACK
6
CONTINUOUS
10
191.127
20
-128.01
11
191.151
21
-128.002
0
LINE
8
BLACK
6
CONTINUOUS
10
191.151
20
-128.002
11
191.175
21
-128
0
LINE
8
BLACK
6
CONTINUOUS
10
191.175
20
-128
11
191.425
21
-128
0
LINE
8
BLACK
6
CONTINUOUS
10
191.425
20
-128
11
191.449
21
-128.002
0
LINE
8
BLACK
6
CONTINUOUS
10
189.525
20
-128.45
11
188.725
21
-128.45
0
LINE
8
BLACK
6
CONTINUOUS
10
188.725
20
-128.45
11
188.725
21
-127.9
0
LINE
8
BLACK
6
CONTINUOUS
10
188.725
20
-127.9
11
189.525
21
-127.9
0
LINE
8
BLACK
6
CONTINUOUS
10
189.525
20
-127.9
11
189.525
21
-128.45
0
LINE
8
BLACK
6
CONTINUOUS
10
188.149
20
-127.502
11
188.173
21
-127.51
0
LINE
8
BLACK
6
CONTINUOUS
10
188.173
20
-127.51
11
188.194
21
-127.521
0
LINE
8
BLACK
6
CONTINUOUS
10
188.194
20
-127.521
11
188.213
21
-127.537
0
LINE
8
BLACK
6
CONTINUOUS
10
188.213
20
-127.537
11
188.229
21
-127.556
0
LINE
8
BLACK
6
CONTINUOUS
10
188.229
20
-127.556
11
188.24
21
-127.577
0
LINE
8
BLACK
6
CONTINUOUS
10
188.24
20
-127.577
11
188.248
21
-127.601
0
LINE
8
BLACK
6
CONTINUOUS
10
188.248
20
-127.601
11
188.25
21
-127.625
0
LINE
8
BLACK
6
CONTINUOUS
10
188.25
20
-127.625
11
188.25
21
-127.935
0
LINE
8
BLACK
6
CONTINUOUS
10
188.25
20
-127.935
11
188.248
21
-127.959
0
LINE
8
BLACK
6
CONTINUOUS
10
188.248
20
-127.959
11
188.24
21
-127.983
0
LINE
8
BLACK
6
CONTINUOUS
10
188.24
20
-127.983
11
188.229
21
-128.004
0
LINE
8
BLACK
6
CONTINUOUS
10
188.229
20
-128.004
11
188.213
21
-128.023
0
LINE
8
BLACK
6
CONTINUOUS
10
188.213
20
-128.023
11
188.194
21
-128.039
0
LINE
8
BLACK
6
CONTINUOUS
10
188.194
20
-128.039
11
188.173
21
-128.05
0
LINE
8
BLACK
6
CONTINUOUS
10
188.173
20
-128.05
11
188.149
21
-128.058
0
LINE
8
BLACK
6
CONTINUOUS
10
188.149
20
-128.058
11
188.125
21
-128.06
0
LINE
8
BLACK
6
CONTINUOUS
10
188.125
20
-128.06
11
187.875
21
-128.06
0
LINE
8
BLACK
6
CONTINUOUS
10
187.875
20
-128.06
11
187.851
21
-128.058
0
LINE
8
BLACK
6
CONTINUOUS
10
187.851
20
-128.058
11
187.827
21
-128.05
0
LINE
8
BLACK
6
CONTINUOUS
10
187.827
20
-128.05
11
187.806
21
-128.039
0
LINE
8
BLACK
6
CONTINUOUS
10
187.806
20
-128.039
11
187.787
21
-128.023
0
LINE
8
BLACK
6
CONTINUOUS
10
187.787
20
-128.023
11
187.771
21
-128.004
0
LINE
8
BLACK
6
CONTINUOUS
10
187.771
20
-128.004
11
187.76
21
-127.983
0
LINE
8
BLACK
6
CONTINUOUS
10
187.76
20
-127.983
11
187.752
21
-127.959
0
LINE
8
BLACK
6
CONTINUOUS
10
187.752
20
-127.959
11
187.75
21
-127.935
0
LINE
8
BLACK
6
CONTINUOUS
10
187.75
20
-127.935
11
187.75
21
-127.625
0
LINE
8
BLACK
6
CONTINUOUS
10
187.75
20
-127.625
11
187.752
21
-127.601
0
LINE
8
BLACK
6
CONTINUOUS
10
187.752
20
-127.601
11
187.76
21
-127.577
0
LINE
8
BLACK
6
CONTINUOUS
10
187.76
20
-127.577
11
187.771
21
-127.556
0
LINE
8
BLACK
6
CONTINUOUS
10
187.771
20
-127.556
11
187.787
21
-127.537
0
LINE
8
BLACK
6
CONTINUOUS
10
187.787
20
-127.537
11
187.806
21
-127.521
0
LINE
8
BLACK
6
CONTINUOUS
10
187.806
20
-127.521
11
187.827
21
-127.51
0
LINE
8
BLACK
6
CONTINUOUS
10
187.827
20
-127.51
11
187.851
21
-127.502
0
LINE
8
BLACK
6
CONTINUOUS
10
187.851
20
-127.502
11
187.875
21
-127.5
0
LINE
8
BLACK
6
CONTINUOUS
10
187.875
20
-127.5
11
188.125
21
-127.5
0
LINE
8
BLACK
6
CONTINUOUS
10
188.125
20
-127.5
11
188.149
21
-127.502
0
LINE
8
BLACK
6
CONTINUOUS
10
191.525
20
-127.8
11
190.725
21
-127.8
0
LINE
8
BLACK
6
CONTINUOUS
10
190.725
20
-127.8
11
190.725
21
-127.25
0
LINE
8
BLACK
6
CONTINUOUS
10
190.725
20
-127.25
11
191.525
21
-127.25
0
LINE
8
BLACK
6
CONTINUOUS
10
191.525
20
-127.25
11
191.525
21
-127.8
0
LINE
8
BLACK
6
CONTINUOUS
10
189.525
20
-127.15
11
188.725
21
-127.15
0
LINE
8
BLACK
6
CONTINUOUS
10
188.725
20
-127.15
11
188.725
21
-126.6
0
LINE
8
BLACK
6
CONTINUOUS
10
188.725
20
-126.6
11
189.525
21
-126.6
0
LINE
8
BLACK
6
CONTINUOUS
10
189.525
20
-126.6
11
189.525
21
-127.15
0
LINE
8
BLACK
6
CONTINUOUS
10
190.55
20
-124.55
11
189.45
21
-124.55
0
LINE
8
BLACK
6
CONTINUOUS
10
189.45
20
-124.55
11
189.45
21
-122.75
0
LINE
8
BLACK
6
CONTINUOUS
10
189.45
20
-122.75
11
190.55
21
-122.75
0
LINE
8
BLACK
6
CONTINUOUS
10
190.55
20
-122.75
11
190.55
21
-124.55
0
LINE
8
BLACK
6
CONTINUOUS
10
186.75
20
-124.55
11
185.65
21
-124.55
0
LINE
8
BLACK
6
CONTINUOUS
10
185.65
20
-124.55
11
185.65
21
-122.75
0
LINE
8
BLACK
6
CONTINUOUS
10
185.65
20
-122.75
11
186.75
21
-122.75
0
LINE
8
BLACK
6
CONTINUOUS
10
186.75
20
-122.75
11
186.75
21
-124.55
0
LINE
8
BLACK
6
CONTINUOUS
10
187.249
20
-118.542
11
187.273
21
-118.55
0
LINE
8
BLACK
6
CONTINUOUS
10
187.273
20
-118.55
11
187.294
21
-118.561
0
LINE
8
BLACK
6
CONTINUOUS
10
187.294
20
-118.561
11
187.313
21
-118.577
0
LINE
8
BLACK
6
CONTINUOUS
10
187.313
20
-118.577
11
187.329
21
-118.596
0
LINE
8
BLACK
6
CONTINUOUS
10
187.329
20
-118.596
11
187.34
21
-118.617
0
LINE
8
BLACK
6
CONTINUOUS
10
187.34
20
-118.617
11
187.348
21
-118.641
0
LINE
8
BLACK
6
CONTINUOUS
10
187.348
20
-118.641
11
187.35
21
-118.665
0
LINE
8
BLACK
6
CONTINUOUS
10
187.35
20
-118.665
11
187.35
21
-118.975
0
LINE
8
BLACK
6
CONTINUOUS
10
187.35
20
-118.975
11
187.348
21
-118.999
0
LINE
8
BLACK
6
CONTINUOUS
10
187.348
20
-118.999
11
187.34
21
-119.023
0
LINE
8
BLACK
6
CONTINUOUS
10
187.34
20
-119.023
11
187.329
21
-119.044
0
LINE
8
BLACK
6
CONTINUOUS
10
187.329
20
-119.044
11
187.313
21
-119.063
0
LINE
8
BLACK
6
CONTINUOUS
10
187.313
20
-119.063
11
187.294
21
-119.079
0
LINE
8
BLACK
6
CONTINUOUS
10
187.294
20
-119.079
11
187.273
21
-119.09
0
LINE
8
BLACK
6
CONTINUOUS
10
187.273
20
-119.09
11
187.249
21
-119.098
0
LINE
8
BLACK
6
CONTINUOUS
10
187.249
20
-119.098
11
187.225
21
-119.1
0
LINE
8
BLACK
6
CONTINUOUS
10
187.225
20
-119.1
11
186.975
21
-119.1
0
LINE
8
BLACK
6
CONTINUOUS
10
186.975
20
-119.1
11
186.951
21
-119.098
0
LINE
8
BLACK
6
CONTINUOUS
10
186.951
20
-119.098
11
186.927
21
-119.09
0
LINE
8
BLACK
6
CONTINUOUS
10
186.927
20
-119.09
11
186.906
21
-119.079
0
LINE
8
BLACK
6
CONTINUOUS
10
186.906
20
-119.079
11
186.887
21
-119.063
0
LINE
8
BLACK
6
CONTINUOUS
10
186.887
20
-119.063
11
186.871
21
-119.044
0
LINE
8
BLACK
6
CONTINUOUS
10
186.871
20
-119.044
11
186.86
21
-119.023
0
LINE
8
BLACK
6
CONTINUOUS
10
186.86
20
-119.023
11
186.852
21
-118.999
0
LINE
8
BLACK
6
CONTINUOUS
10
186.852
20
-118.999
11
186.85
21
-118.975
0
LINE
8
BLACK
6
CONTINUOUS
10
186.85
20
-118.975
11
186.85
21
-118.665
0
LINE
8
BLACK
6
CONTINUOUS
10
186.85
20
-118.665
11
186.852
21
-118.641
0
LINE
8
BLACK
6
CONTINUOUS
10
186.852
20
-118.641
11
186.86
21
-118.617
0
LINE
8
BLACK
6
CONTINUOUS
10
186.86
20
-118.617
11
186.871
21
-118.596
0
LINE
8
BLACK
6
CONTINUOUS
10
186.871
20
-118.596
11
186.887
21
-118.577
0
LINE
8
BLACK
6
CONTINUOUS
10
186.887
20
-118.577
11
186.906
21
-118.561
0
LINE
8
BLACK
6
CONTINUOUS
10
186.906
20
-118.561
11
186.927
21
-118.55
0
LINE
8
BLACK
6
CONTINUOUS
10
186.927
20
-118.55
11
186.951
21
-118.542
0
LINE
8
BLACK
6
CONTINUOUS
10
186.951
20
-118.542
11
186.975
21
-118.54
0
LINE
8
BLACK
6
CONTINUOUS
10
186.975
20
-118.54
11
187.225
21
-118.54
0
LINE
8
BLACK
6
CONTINUOUS
10
187.225
20
-118.54
11
187.249
21
-118.542
0
LINE
8
BLACK
6
CONTINUOUS
10
187.249
20
-117.902
11
187.273
21
-117.91
0
LINE
8
BLACK
6
CONTINUOUS
10
187.273
20
-117.91
11
187.294
21
-117.921
0
LINE
8
BLACK
6
CONTINUOUS
10
187.294
20
-117.921
11
187.313
21
-117.937
0
LINE
8
BLACK
6
CONTINUOUS
10
187.313
20
-117.937
11
187.329
21
-117.956
0
LINE
8
BLACK
6
CONTINUOUS
10
187.329
20
-117.956
11
187.34
21
-117.977
0
LINE
8
BLACK
6
CONTINUOUS
10
187.34
20
-117.977
11
187.348
21
-118.001
0
LINE
8
BLACK
6
CONTINUOUS
10
187.348
20
-118.001
11
187.35
21
-118.025
0
LINE
8
BLACK
6
CONTINUOUS
10
187.35
20
-118.025
11
187.35
21
-118.335
0
LINE
8
BLACK
6
CONTINUOUS
10
187.35
20
-118.335
11
187.348
21
-118.359
0
LINE
8
BLACK
6
CONTINUOUS
10
187.348
20
-118.359
11
187.34
21
-118.383
0
LINE
8
BLACK
6
CONTINUOUS
10
187.34
20
-118.383
11
187.329
21
-118.404
0
LINE
8
BLACK
6
CONTINUOUS
10
187.329
20
-118.404
11
187.313
21
-118.423
0
LINE
8
BLACK
6
CONTINUOUS
10
187.313
20
-118.423
11
187.294
21
-118.439
0
LINE
8
BLACK
6
CONTINUOUS
10
187.294
20
-118.439
11
187.273
21
-118.45
0
LINE
8
BLACK
6
CONTINUOUS
10
187.273
20
-118.45
11
187.249
21
-118.458
0
LINE
8
BLACK
6
CONTINUOUS
10
187.249
20
-118.458
11
187.225
21
-118.46
0
LINE
8
BLACK
6
CONTINUOUS
10
187.225
20
-118.46
11
186.975
21
-118.46
0
LINE
8
BLACK
6
CONTINUOUS
10
186.975
20
-118.46
11
186.951
21
-118.458
0
LINE
8
BLACK
6
CONTINUOUS
10
186.951
20
-118.458
11
186.927
21
-118.45
0
LINE
8
BLACK
6
CONTINUOUS
10
186.927
20
-118.45
11
186.906
21
-118.439
0
LINE
8
BLACK
6
CONTINUOUS
10
186.906
20
-118.439
11
186.887
21
-118.423
0
LINE
8
BLACK
6
CONTINUOUS
10
186.887
20
-118.423
11
186.871
21
-118.404
0
LINE
8
BLACK
6
CONTINUOUS
10
186.871
20
-118.404
11
186.86
21
-118.383
0
LINE
8
BLACK
6
CONTINUOUS
10
186.86
20
-118.383
11
186.852
21
-118.359
0
LINE
8
BLACK
6
CONTINUOUS
10
186.852
20
-118.359
11
186.85
21
-118.335
0
LINE
8
BLACK
6
CONTINUOUS
10
186.85
20
-118.335
11
186.85
21
-118.025
0
LINE
8
BLACK
6
CONTINUOUS
10
186.85
20
-118.025
11
186.852
21
-118.001
0
LINE
8
BLACK
6
CONTINUOUS
10
186.852
20
-118.001
11
186.86
21
-117.977
0
LINE
8
BLACK
6
CONTINUOUS
10
186.86
20
-117.977
11
186.871
21
-117.956
0
LINE
8
BLACK
6
CONTINUOUS
10
186.871
20
-117.956
11
186.887
21
-117.937
0
LINE
8
BLACK
6
CONTINUOUS
10
186.887
20
-117.937
11
186.906
21
-117.921
0
LINE
8
BLACK
6
CONTINUOUS
10
186.906
20
-117.921
11
186.927
21
-117.91
0
LINE
8
BLACK
6
CONTINUOUS
10
186.927
20
-117.91
11
186.951
21
-117.902
0
LINE
8
BLACK
6
CONTINUOUS
10
186.951
20
-117.902
11
186.975
21
-117.9
0
LINE
8
BLACK
6
CONTINUOUS
10
186.975
20
-117.9
11
187.225
21
-117.9
0
LINE
8
BLACK
6
CONTINUOUS
10
187.225
20
-117.9
11
187.249
21
-117.902
0
LINE
8
BLACK
6
CONTINUOUS
10
186.75
20
-118.25
11
185.65
21
-118.25
0
LINE
8
BLACK
6
CONTINUOUS
10
185.65
20
-118.25
11
185.65
21
-116.45
0
LINE
8
BLACK
6
CONTINUOUS
10
185.65
20
-116.45
11
186.75
21
-116.45
0
LINE
8
BLACK
6
CONTINUOUS
10
186.75
20
-116.45
11
186.75
21
-118.25
0
LINE
8
BLACK
6
CONTINUOUS
10
190.55
20
-118.25
11
189.45
21
-118.25
0
LINE
8
BLACK
6
CONTINUOUS
10
189.45
20
-118.25
11
189.45
21
-116.45
0
LINE
8
BLACK
6
CONTINUOUS
10
189.45
20
-116.45
11
190.55
21
-116.45
0
LINE
8
BLACK
6
CONTINUOUS
10
190.55
20
-116.45
11
190.55
21
-118.25
0
LINE
8
BLACK
6
CONTINUOUS
10
183.6
20
-111.95
11
182.75
21
-111.95
0
LINE
8
BLACK
6
CONTINUOUS
10
182.75
20
-111.95
11
182.75
21
-111
0
LINE
8
BLACK
6
CONTINUOUS
10
182.75
20
-111
11
183.6
21
-111
0
LINE
8
BLACK
6
CONTINUOUS
10
183.6
20
-111
11
183.6
21
-111.95
0
LINE
8
BLACK
6
CONTINUOUS
10
184.65
20
-111.95
11
183.8
21
-111.95
0
LINE
8
BLACK
6
CONTINUOUS
10
183.8
20
-111.95
11
183.8
21
-111
0
LINE
8
BLACK
6
CONTINUOUS
10
183.8
20
-111
11
184.65
21
-111
0
LINE
8
BLACK
6
CONTINUOUS
10
184.65
20
-111
11
184.65
21
-111.95
0
LINE
8
BLACK
6
CONTINUOUS
10
177.399
20
-110.352
11
177.423
21
-110.36
0
LINE
8
BLACK
6
CONTINUOUS
10
177.423
20
-110.36
11
177.444
21
-110.371
0
LINE
8
BLACK
6
CONTINUOUS
10
177.444
20
-110.371
11
177.463
21
-110.387
0
LINE
8
BLACK
6
CONTINUOUS
10
177.463
20
-110.387
11
177.479
21
-110.406
0
LINE
8
BLACK
6
CONTINUOUS
10
177.479
20
-110.406
11
177.49
21
-110.427
0
LINE
8
BLACK
6
CONTINUOUS
10
177.49
20
-110.427
11
177.498
21
-110.451
0
LINE
8
BLACK
6
CONTINUOUS
10
177.498
20
-110.451
11
177.5
21
-110.475
0
LINE
8
BLACK
6
CONTINUOUS
10
177.5
20
-110.475
11
177.5
21
-110.725
0
LINE
8
BLACK
6
CONTINUOUS
10
177.5
20
-110.725
11
177.498
21
-110.749
0
LINE
8
BLACK
6
CONTINUOUS
10
177.498
20
-110.749
11
177.49
21
-110.773
0
LINE
8
BLACK
6
CONTINUOUS
10
177.49
20
-110.773
11
177.479
21
-110.794
0
LINE
8
BLACK
6
CONTINUOUS
10
177.479
20
-110.794
11
177.463
21
-110.813
0
LINE
8
BLACK
6
CONTINUOUS
10
177.463
20
-110.813
11
177.444
21
-110.829
0
LINE
8
BLACK
6
CONTINUOUS
10
177.444
20
-110.829
11
177.423
21
-110.84
0
LINE
8
BLACK
6
CONTINUOUS
10
177.423
20
-110.84
11
177.399
21
-110.848
0
LINE
8
BLACK
6
CONTINUOUS
10
177.399
20
-110.848
11
177.375
21
-110.85
0
LINE
8
BLACK
6
CONTINUOUS
10
177.375
20
-110.85
11
177.065
21
-110.85
0
LINE
8
BLACK
6
CONTINUOUS
10
177.065
20
-110.85
11
177.041
21
-110.848
0
LINE
8
BLACK
6
CONTINUOUS
10
177.041
20
-110.848
11
177.017
21
-110.84
0
LINE
8
BLACK
6
CONTINUOUS
10
177.017
20
-110.84
11
176.996
21
-110.829
0
LINE
8
BLACK
6
CONTINUOUS
10
176.996
20
-110.829
11
176.977
21
-110.813
0
LINE
8
BLACK
6
CONTINUOUS
10
176.977
20
-110.813
11
176.961
21
-110.794
0
LINE
8
BLACK
6
CONTINUOUS
10
176.961
20
-110.794
11
176.95
21
-110.773
0
LINE
8
BLACK
6
CONTINUOUS
10
176.95
20
-110.773
11
176.942
21
-110.749
0
LINE
8
BLACK
6
CONTINUOUS
10
176.942
20
-110.749
11
176.94
21
-110.725
0
LINE
8
BLACK
6
CONTINUOUS
10
176.94
20
-110.725
11
176.94
21
-110.475
0
LINE
8
BLACK
6
CONTINUOUS
10
176.94
20
-110.475
11
176.942
21
-110.451
0
LINE
8
BLACK
6
CONTINUOUS
10
176.942
20
-110.451
11
176.95
21
-110.427
0
LINE
8
BLACK
6
CONTINUOUS
10
176.95
20
-110.427
11
176.961
21
-110.406
0
LINE
8
BLACK
6
CONTINUOUS
10
176.961
20
-110.406
11
176.977
21
-110.387
0
LINE
8
BLACK
6
CONTINUOUS
10
176.977
20
-110.387
11
176.996
21
-110.371
0
LINE
8
BLACK
6
CONTINUOUS
10
176.996
20
-110.371
11
177.017
21
-110.36
0
LINE
8
BLACK
6
CONTINUOUS
10
177.017
20
-110.36
11
177.041
21
-110.352
0
LINE
8
BLACK
6
CONTINUOUS
10
177.041
20
-110.352
11
177.065
21
-110.35
0
LINE
8
BLACK
6
CONTINUOUS
10
177.065
20
-110.35
11
177.375
21
-110.35
0
LINE
8
BLACK
6
CONTINUOUS
10
177.375
20
-110.35
11
177.399
21
-110.352
0
LINE
8
BLACK
6
CONTINUOUS
10
178.899
20
-110.352
11
178.923
21
-110.36
0
LINE
8
BLACK
6
CONTINUOUS
10
178.923
20
-110.36
11
178.944
21
-110.371
0
LINE
8
BLACK
6
CONTINUOUS
10
178.944
20
-110.371
11
178.963
21
-110.387
0
LINE
8
BLACK
6
CONTINUOUS
10
178.963
20
-110.387
11
178.979
21
-110.406
0
LINE
8
BLACK
6
CONTINUOUS
10
178.979
20
-110.406
11
178.99
21
-110.427
0
LINE
8
BLACK
6
CONTINUOUS
10
178.99
20
-110.427
11
178.998
21
-110.451
0
LINE
8
BLACK
6
CONTINUOUS
10
178.998
20
-110.451
11
179
21
-110.475
0
LINE
8
BLACK
6
CONTINUOUS
10
179
20
-110.475
11
179
21
-110.725
0
LINE
8
BLACK
6
CONTINUOUS
10
179
20
-110.725
11
178.998
21
-110.749
0
LINE
8
BLACK
6
CONTINUOUS
10
178.998
20
-110.749
11
178.99
21
-110.773
0
LINE
8
BLACK
6
CONTINUOUS
10
178.99
20
-110.773
11
178.979
21
-110.794
0
LINE
8
BLACK
6
CONTINUOUS
10
178.979
20
-110.794
11
178.963
21
-110.813
0
LINE
8
BLACK
6
CONTINUOUS
10
178.963
20
-110.813
11
178.944
21
-110.829
0
LINE
8
BLACK
6
CONTINUOUS
10
178.944
20
-110.829
11
178.923
21
-110.84
0
LINE
8
BLACK
6
CONTINUOUS
10
178.923
20
-110.84
11
178.899
21
-110.848
0
LINE
8
BLACK
6
CONTINUOUS
10
178.899
20
-110.848
11
178.875
21
-110.85
0
LINE
8
BLACK
6
CONTINUOUS
10
178.875
20
-110.85
11
178.565
21
-110.85
0
LINE
8
BLACK
6
CONTINUOUS
10
178.565
20
-110.85
11
178.541
21
-110.848
0
LINE
8
BLACK
6
CONTINUOUS
10
178.541
20
-110.848
11
178.517
21
-110.84
0
LINE
8
BLACK
6
CONTINUOUS
10
178.517
20
-110.84
11
178.496
21
-110.829
0
LINE
8
BLACK
6
CONTINUOUS
10
178.496
20
-110.829
11
178.477
21
-110.813
0
LINE
8
BLACK
6
CONTINUOUS
10
178.477
20
-110.813
11
178.461
21
-110.794
0
LINE
8
BLACK
6
CONTINUOUS
10
178.461
20
-110.794
11
178.45
21
-110.773
0
LINE
8
BLACK
6
CONTINUOUS
10
178.45
20
-110.773
11
178.442
21
-110.749
0
LINE
8
BLACK
6
CONTINUOUS
10
178.442
20
-110.749
11
178.44
21
-110.725
0
LINE
8
BLACK
6
CONTINUOUS
10
178.44
20
-110.725
11
178.44
21
-110.475
0
LINE
8
BLACK
6
CONTINUOUS
10
178.44
20
-110.475
11
178.442
21
-110.451
0
LINE
8
BLACK
6
CONTINUOUS
10
178.442
20
-110.451
11
178.45
21
-110.427
0
LINE
8
BLACK
6
CONTINUOUS
10
178.45
20
-110.427
11
178.461
21
-110.406
0
LINE
8
BLACK
6
CONTINUOUS
10
178.461
20
-110.406
11
178.477
21
-110.387
0
LINE
8
BLACK
6
CONTINUOUS
10
178.477
20
-110.387
11
178.496
21
-110.371
0
LINE
8
BLACK
6
CONTINUOUS
10
178.496
20
-110.371
11
178.517
21
-110.36
0
LINE
8
BLACK
6
CONTINUOUS
10
178.517
20
-110.36
11
178.541
21
-110.352
0
LINE
8
BLACK
6
CONTINUOUS
10
178.541
20
-110.352
11
178.565
21
-110.35
0
LINE
8
BLACK
6
CONTINUOUS
10
178.565
20
-110.35
11
178.875
21
-110.35
0
LINE
8
BLACK
6
CONTINUOUS
10
178.875
20
-110.35
11
178.899
21
-110.352
0
LINE
8
BLACK
6
CONTINUOUS
10
178.259
20
-110.352
11
178.283
21
-110.36
0
LINE
8
BLACK
6
CONTINUOUS
10
178.283
20
-110.36
11
178.304
21
-110.371
0
LINE
8
BLACK
6
CONTINUOUS
10
178.304
20
-110.371
11
178.323
21
-110.387
0
LINE
8
BLACK
6
CONTINUOUS
10
178.323
20
-110.387
11
178.339
21
-110.406
0
LINE
8
BLACK
6
CONTINUOUS
10
178.339
20
-110.406
11
178.35
21
-110.427
0
LINE
8
BLACK
6
CONTINUOUS
10
178.35
20
-110.427
11
178.358
21
-110.451
0
LINE
8
BLACK
6
CONTINUOUS
10
178.358
20
-110.451
11
178.36
21
-110.475
0
LINE
8
BLACK
6
CONTINUOUS
10
178.36
20
-110.475
11
178.36
21
-110.725
0
LINE
8
BLACK
6
CONTINUOUS
10
178.36
20
-110.725
11
178.358
21
-110.749
0
LINE
8
BLACK
6
CONTINUOUS
10
178.358
20
-110.749
11
178.35
21
-110.773
0
LINE
8
BLACK
6
CONTINUOUS
10
178.35
20
-110.773
11
178.339
21
-110.794
0
LINE
8
BLACK
6
CONTINUOUS
10
178.339
20
-110.794
11
178.323
21
-110.813
0
LINE
8
BLACK
6
CONTINUOUS
10
178.323
20
-110.813
11
178.304
21
-110.829
0
LINE
8
BLACK
6
CONTINUOUS
10
178.304
20
-110.829
11
178.283
21
-110.84
0
LINE
8
BLACK
6
CONTINUOUS
10
178.283
20
-110.84
11
178.259
21
-110.848
0
LINE
8
BLACK
6
CONTINUOUS
10
178.259
20
-110.848
11
178.235
21
-110.85
0
LINE
8
BLACK
6
CONTINUOUS
10
178.235
20
-110.85
11
177.925
21
-110.85
0
LINE
8
BLACK
6
CONTINUOUS
10
177.925
20
-110.85
11
177.901
21
-110.848
0
LINE
8
BLACK
6
CONTINUOUS
10
177.901
20
-110.848
11
177.877
21
-110.84
0
LINE
8
BLACK
6
CONTINUOUS
10
177.877
20
-110.84
11
177.856
21
-110.829
0
LINE
8
BLACK
6
CONTINUOUS
10
177.856
20
-110.829
11
177.837
21
-110.813
0
LINE
8
BLACK
6
CONTINUOUS
10
177.837
20
-110.813
11
177.821
21
-110.794
0
LINE
8
BLACK
6
CONTINUOUS
10
177.821
20
-110.794
11
177.81
21
-110.773
0
LINE
8
BLACK
6
CONTINUOUS
10
177.81
20
-110.773
11
177.802
21
-110.749
0
LINE
8
BLACK
6
CONTINUOUS
10
177.802
20
-110.749
11
177.8
21
-110.725
0
LINE
8
BLACK
6
CONTINUOUS
10
177.8
20
-110.725
11
177.8
21
-110.475
0
LINE
8
BLACK
6
CONTINUOUS
10
177.8
20
-110.475
11
177.802
21
-110.451
0
LINE
8
BLACK
6
CONTINUOUS
10
177.802
20
-110.451
11
177.81
21
-110.427
0
LINE
8
BLACK
6
CONTINUOUS
10
177.81
20
-110.427
11
177.821
21
-110.406
0
LINE
8
BLACK
6
CONTINUOUS
10
177.821
20
-110.406
11
177.837
21
-110.387
0
LINE
8
BLACK
6
CONTINUOUS
10
177.837
20
-110.387
11
177.856
21
-110.371
0
LINE
8
BLACK
6
CONTINUOUS
10
177.856
20
-110.371
11
177.877
21
-110.36
0
LINE
8
BLACK
6
CONTINUOUS
10
177.877
20
-110.36
11
177.901
21
-110.352
0
LINE
8
BLACK
6
CONTINUOUS
10
177.901
20
-110.352
11
177.925
21
-110.35
0
LINE
8
BLACK
6
CONTINUOUS
10
177.925
20
-110.35
11
178.235
21
-110.35
0
LINE
8
BLACK
6
CONTINUOUS
10
178.235
20
-110.35
11
178.259
21
-110.352
0
LINE
8
BLACK
6
CONTINUOUS
10
176.759
20
-110.352
11
176.783
21
-110.36
0
LINE
8
BLACK
6
CONTINUOUS
10
176.783
20
-110.36
11
176.804
21
-110.371
0
LINE
8
BLACK
6
CONTINUOUS
10
176.804
20
-110.371
11
176.823
21
-110.387
0
LINE
8
BLACK
6
CONTINUOUS
10
176.823
20
-110.387
11
176.839
21
-110.406
0
LINE
8
BLACK
6
CONTINUOUS
10
176.839
20
-110.406
11
176.85
21
-110.427
0
LINE
8
BLACK
6
CONTINUOUS
10
176.85
20
-110.427
11
176.858
21
-110.451
0
LINE
8
BLACK
6
CONTINUOUS
10
176.858
20
-110.451
11
176.86
21
-110.475
0
LINE
8
BLACK
6
CONTINUOUS
10
176.86
20
-110.475
11
176.86
21
-110.725
0
LINE
8
BLACK
6
CONTINUOUS
10
176.86
20
-110.725
11
176.858
21
-110.749
0
LINE
8
BLACK
6
CONTINUOUS
10
176.858
20
-110.749
11
176.85
21
-110.773
0
LINE
8
BLACK
6
CONTINUOUS
10
176.85
20
-110.773
11
176.839
21
-110.794
0
LINE
8
BLACK
6
CONTINUOUS
10
176.839
20
-110.794
11
176.823
21
-110.813
0
LINE
8
BLACK
6
CONTINUOUS
10
176.823
20
-110.813
11
176.804
21
-110.829
0
LINE
8
BLACK
6
CONTINUOUS
10
176.804
20
-110.829
11
176.783
21
-110.84
0
LINE
8
BLACK
6
CONTINUOUS
10
176.783
20
-110.84
11
176.759
21
-110.848
0
LINE
8
BLACK
6
CONTINUOUS
10
176.759
20
-110.848
11
176.735
21
-110.85
0
LINE
8
BLACK
6
CONTINUOUS
10
176.735
20
-110.85
11
176.425
21
-110.85
0
LINE
8
BLACK
6
CONTINUOUS
10
176.425
20
-110.85
11
176.401
21
-110.848
0
LINE
8
BLACK
6
CONTINUOUS
10
176.401
20
-110.848
11
176.377
21
-110.84
0
LINE
8
BLACK
6
CONTINUOUS
10
176.377
20
-110.84
11
176.356
21
-110.829
0
LINE
8
BLACK
6
CONTINUOUS
10
176.356
20
-110.829
11
176.337
21
-110.813
0
LINE
8
BLACK
6
CONTINUOUS
10
176.337
20
-110.813
11
176.321
21
-110.794
0
LINE
8
BLACK
6
CONTINUOUS
10
176.321
20
-110.794
11
176.31
21
-110.773
0
LINE
8
BLACK
6
CONTINUOUS
10
176.31
20
-110.773
11
176.302
21
-110.749
0
LINE
8
BLACK
6
CONTINUOUS
10
176.302
20
-110.749
11
176.3
21
-110.725
0
LINE
8
BLACK
6
CONTINUOUS
10
176.3
20
-110.725
11
176.3
21
-110.475
0
LINE
8
BLACK
6
CONTINUOUS
10
176.3
20
-110.475
11
176.302
21
-110.451
0
LINE
8
BLACK
6
CONTINUOUS
10
176.302
20
-110.451
11
176.31
21
-110.427
0
LINE
8
BLACK
6
CONTINUOUS
10
176.31
20
-110.427
11
176.321
21
-110.406
0
LINE
8
BLACK
6
CONTINUOUS
10
176.321
20
-110.406
11
176.337
21
-110.387
0
LINE
8
BLACK
6
CONTINUOUS
10
176.337
20
-110.387
11
176.356
21
-110.371
0
LINE
8
BLACK
6
CONTINUOUS
10
176.356
20
-110.371
11
176.377
21
-110.36
0
LINE
8
BLACK
6
CONTINUOUS
10
176.377
20
-110.36
11
176.401
21
-110.352
0
LINE
8
BLACK
6
CONTINUOUS
10
176.401
20
-110.352
11
176.425
21
-110.35
0
LINE
8
BLACK
6
CONTINUOUS
10
176.425
20
-110.35
11
176.735
21
-110.35
0
LINE
8
BLACK
6
CONTINUOUS
10
176.735
20
-110.35
11
176.759
21
-110.352
0
LINE
8
BLACK
6
CONTINUOUS
10
184.65
20
-110.6
11
183.8
21
-110.6
0
LINE
8
BLACK
6
CONTINUOUS
10
183.8
20
-110.6
11
183.8
21
-109.65
0
LINE
8
BLACK
6
CONTINUOUS
10
183.8
20
-109.65
11
184.65
21
-109.65
0
LINE
8
BLACK
6
CONTINUOUS
10
184.65
20
-109.65
11
184.65
21
-110.6
0
LINE
8
BLACK
6
CONTINUOUS
10
183.6
20
-110.6
11
182.75
21
-110.6
0
LINE
8
BLACK
6
CONTINUOUS
10
182.75
20
-110.6
11
182.75
21
-109.65
0
LINE
8
BLACK
6
CONTINUOUS
10
182.75
20
-109.65
11
183.6
21
-109.65
0
LINE
8
BLACK
6
CONTINUOUS
10
183.6
20
-109.65
11
183.6
21
-110.6
  0
ENDSEC
  0
EOF
