  0
SECTION
  2
HEADER
  9
$ANGBASE
  50
0.0
  9
$ANGDIR
  70
1
  9
$MEASUREMENT
  70
1
  0
ENDSEC
  0
SECTION
  2
TABLES
  0
TABLE
  2
LTYPE
  70
4
  0
LTYPE
  5
40F
  2
CONTINUOUS
  70
0
  3
Solid line
  72
65
  73
0
  40
0.0
  0
LTYPE
  5
410
  2
DASHDOT
 70
0
  3
Dash Dot ____ _ ____ _
 72
65
 73
4
 40
2.0
 49
1.25
 49
-0.25
 49
0.25
 49
-0.25
  0
LTYPE
  5
411
  2
DASHED
 70
0
  3
Dashed __ __ __ __ __
 72
65
 73
2
 40
0.75
 49
0.5
 49
-0.25
  0
LTYPE
  5
43B
  2
DOTTED
 70
0
  3
Dotted .  .  .  .
 72
65
 73
2
 40
0.2
 49
0.0
 49
-0.2
  0
ENDTAB
  0
TABLE
  2
STYLE
  70
4
  0
STYLE
  2
KICAD
  70
0
  40
0
  41
1
  42
1
  50
0
  71
0
  3
isocp.shx
  0
STYLE
  2
KICADB
  70
0
  40
0
  41
1
  42
1
  50
0
  71
0
  3
isocp.shx
  0
STYLE
  2
KICADI
  70
0
  40
0
  41
1
  42
1
  50
15
  71
0
  3
isocp.shx
  0
STYLE
  2
KICADBI
  70
0
  40
0
  41
1
  42
1
  50
15
  71
0
  3
isocp.shx
  0
ENDTAB
  0
TABLE
  2
LAYER
  70
1
  0
LAYER
  2
BLACK
  70
0
  62
7
  6
CONTINUOUS
  0
ENDTAB
  0
ENDSEC
  0
SECTION
  2
ENTITIES
0
LINE
8
BLACK
6
CONTINUOUS
10
195
20
-105.495
11
195
21
-105.495
0
LINE
8
BLACK
6
CONTINUOUS
10
195
20
-105.495
11
195.001
21
-105.495
0
LINE
8
BLACK
6
CONTINUOUS
10
195.001
20
-105.495
11
195.002
21
-105.495
0
LINE
8
BLACK
6
CONTINUOUS
10
195.002
20
-105.495
11
195.003
21
-105.496
0
LINE
8
BLACK
6
CONTINUOUS
10
195.003
20
-105.496
11
195.003
21
-105.496
0
LINE
8
BLACK
6
CONTINUOUS
10
195.003
20
-105.496
11
195.003
21
-105.496
0
LINE
8
BLACK
6
CONTINUOUS
10
195.003
20
-105.496
11
195.004
21
-105.496
0
LINE
8
BLACK
6
CONTINUOUS
10
195.004
20
-105.496
11
195.004
21
-105.497
0
LINE
8
BLACK
6
CONTINUOUS
10
195.004
20
-105.497
11
195.005
21
-105.498
0
LINE
8
BLACK
6
CONTINUOUS
10
195.005
20
-105.498
11
195.005
21
-105.499
0
LINE
8
BLACK
6
CONTINUOUS
10
195.005
20
-105.499
11
195.005
21
-105.5
0
LINE
8
BLACK
6
CONTINUOUS
10
195.005
20
-105.5
11
195.005
21
-105.5
0
LINE
8
BLACK
6
CONTINUOUS
10
195.005
20
-105.5
11
195.005
21
-105.5
0
LINE
8
BLACK
6
CONTINUOUS
10
195.005
20
-105.5
11
195.005
21
-105.5
0
LINE
8
BLACK
6
CONTINUOUS
10
195.005
20
-105.5
11
195.005
21
-135.5
0
LINE
8
BLACK
6
CONTINUOUS
10
195.005
20
-135.5
11
195.005
21
-135.5
0
LINE
8
BLACK
6
CONTINUOUS
10
195.005
20
-135.5
11
195.005
21
-135.501
0
LINE
8
BLACK
6
CONTINUOUS
10
195.005
20
-135.501
11
195.005
21
-135.502
0
LINE
8
BLACK
6
CONTINUOUS
10
195.005
20
-135.502
11
195.004
21
-135.503
0
LINE
8
BLACK
6
CONTINUOUS
10
195.004
20
-135.503
11
195.004
21
-135.504
0
LINE
8
BLACK
6
CONTINUOUS
10
195.004
20
-135.504
11
195.003
21
-135.504
0
LINE
8
BLACK
6
CONTINUOUS
10
195.003
20
-135.504
11
195.002
21
-135.505
0
LINE
8
BLACK
6
CONTINUOUS
10
195.002
20
-135.505
11
195.001
21
-135.505
0
LINE
8
BLACK
6
CONTINUOUS
10
195.001
20
-135.505
11
195
21
-135.505
0
LINE
8
BLACK
6
CONTINUOUS
10
195
20
-135.505
11
195
21
-135.505
0
LINE
8
BLACK
6
CONTINUOUS
10
195
20
-135.505
11
195
21
-135.505
0
LINE
8
BLACK
6
CONTINUOUS
10
195
20
-135.505
11
195
21
-135.505
0
LINE
8
BLACK
6
CONTINUOUS
10
195
20
-135.505
11
165
21
-135.505
0
LINE
8
BLACK
6
CONTINUOUS
10
165
20
-135.505
11
165
21
-135.505
0
LINE
8
BLACK
6
CONTINUOUS
10
165
20
-135.505
11
164.999
21
-135.505
0
LINE
8
BLACK
6
CONTINUOUS
10
164.999
20
-135.505
11
164.998
21
-135.505
0
LINE
8
BLACK
6
CONTINUOUS
10
164.998
20
-135.505
11
164.997
21
-135.504
0
LINE
8
BLACK
6
CONTINUOUS
10
164.997
20
-135.504
11
164.996
21
-135.504
0
LINE
8
BLACK
6
CONTINUOUS
10
164.996
20
-135.504
11
164.996
21
-135.503
0
LINE
8
BLACK
6
CONTINUOUS
10
164.996
20
-135.503
11
164.995
21
-135.502
0
LINE
8
BLACK
6
CONTINUOUS
10
164.995
20
-135.502
11
164.995
21
-135.501
0
LINE
8
BLACK
6
CONTINUOUS
10
164.995
20
-135.501
11
164.995
21
-135.5
0
LINE
8
BLACK
6
CONTINUOUS
10
164.995
20
-135.5
11
164.995
21
-135.5
0
LINE
8
BLACK
6
CONTINUOUS
10
164.995
20
-135.5
11
164.995
21
-135.5
0
LINE
8
BLACK
6
CONTINUOUS
10
164.995
20
-135.5
11
164.995
21
-135.5
0
LINE
8
BLACK
6
CONTINUOUS
10
164.995
20
-135.5
11
164.995
21
-133
0
LINE
8
BLACK
6
CONTINUOUS
10
164.995
20
-133
11
164.995
21
-133
0
LINE
8
BLACK
6
CONTINUOUS
10
164.995
20
-133
11
164.995
21
-132.999
0
LINE
8
BLACK
6
CONTINUOUS
10
164.995
20
-132.999
11
164.995
21
-132.998
0
LINE
8
BLACK
6
CONTINUOUS
10
164.995
20
-132.998
11
164.996
21
-132.997
0
LINE
8
BLACK
6
CONTINUOUS
10
164.996
20
-132.997
11
164.996
21
-132.996
0
LINE
8
BLACK
6
CONTINUOUS
10
164.996
20
-132.996
11
164.997
21
-132.996
0
LINE
8
BLACK
6
CONTINUOUS
10
164.997
20
-132.996
11
164.998
21
-132.995
0
LINE
8
BLACK
6
CONTINUOUS
10
164.998
20
-132.995
11
164.999
21
-132.995
0
LINE
8
BLACK
6
CONTINUOUS
10
164.999
20
-132.995
11
165
21
-132.995
0
LINE
8
BLACK
6
CONTINUOUS
10
165
20
-132.995
11
165
21
-132.995
0
LINE
8
BLACK
6
CONTINUOUS
10
165
20
-132.995
11
165
21
-132.995
0
LINE
8
BLACK
6
CONTINUOUS
10
165
20
-132.995
11
175
21
-132.995
0
LINE
8
BLACK
6
CONTINUOUS
10
175
20
-132.995
11
176.253
21
-132.916
0
LINE
8
BLACK
6
CONTINUOUS
10
176.253
20
-132.916
11
177.486
21
-132.681
0
LINE
8
BLACK
6
CONTINUOUS
10
177.486
20
-132.681
11
178.679
21
-132.293
0
LINE
8
BLACK
6
CONTINUOUS
10
178.679
20
-132.293
11
179.815
21
-131.759
0
LINE
8
BLACK
6
CONTINUOUS
10
179.815
20
-131.759
11
180.875
21
-131.086
0
LINE
8
BLACK
6
CONTINUOUS
10
180.875
20
-131.086
11
181.842
21
-130.286
0
LINE
8
BLACK
6
CONTINUOUS
10
181.842
20
-130.286
11
182.701
21
-129.371
0
LINE
8
BLACK
6
CONTINUOUS
10
182.701
20
-129.371
11
183.439
21
-128.356
0
LINE
8
BLACK
6
CONTINUOUS
10
183.439
20
-128.356
11
184.044
21
-127.256
0
LINE
8
BLACK
6
CONTINUOUS
10
184.044
20
-127.256
11
184.506
21
-126.089
0
LINE
8
BLACK
6
CONTINUOUS
10
184.506
20
-126.089
11
184.818
21
-124.873
0
LINE
8
BLACK
6
CONTINUOUS
10
184.818
20
-124.873
11
184.975
21
-123.628
0
LINE
8
BLACK
6
CONTINUOUS
10
184.975
20
-123.628
11
184.975
21
-122.372
0
LINE
8
BLACK
6
CONTINUOUS
10
184.975
20
-122.372
11
184.818
21
-121.127
0
LINE
8
BLACK
6
CONTINUOUS
10
184.818
20
-121.127
11
184.506
21
-119.911
0
LINE
8
BLACK
6
CONTINUOUS
10
184.506
20
-119.911
11
184.044
21
-118.744
0
LINE
8
BLACK
6
CONTINUOUS
10
184.044
20
-118.744
11
183.439
21
-117.644
0
LINE
8
BLACK
6
CONTINUOUS
10
183.439
20
-117.644
11
182.701
21
-116.629
0
LINE
8
BLACK
6
CONTINUOUS
10
182.701
20
-116.629
11
181.842
21
-115.714
0
LINE
8
BLACK
6
CONTINUOUS
10
181.842
20
-115.714
11
180.875
21
-114.914
0
LINE
8
BLACK
6
CONTINUOUS
10
180.875
20
-114.914
11
179.815
21
-114.241
0
LINE
8
BLACK
6
CONTINUOUS
10
179.815
20
-114.241
11
178.679
21
-113.707
0
LINE
8
BLACK
6
CONTINUOUS
10
178.679
20
-113.707
11
177.486
21
-113.319
0
LINE
8
BLACK
6
CONTINUOUS
10
177.486
20
-113.319
11
176.253
21
-113.084
0
LINE
8
BLACK
6
CONTINUOUS
10
176.253
20
-113.084
11
175
21
-113.005
0
LINE
8
BLACK
6
CONTINUOUS
10
175
20
-113.005
11
165
21
-113.005
0
LINE
8
BLACK
6
CONTINUOUS
10
165
20
-113.005
11
165
21
-113.005
0
LINE
8
BLACK
6
CONTINUOUS
10
165
20
-113.005
11
164.999
21
-113.005
0
LINE
8
BLACK
6
CONTINUOUS
10
164.999
20
-113.005
11
164.998
21
-113.005
0
LINE
8
BLACK
6
CONTINUOUS
10
164.998
20
-113.005
11
164.997
21
-113.004
0
LINE
8
BLACK
6
CONTINUOUS
10
164.997
20
-113.004
11
164.996
21
-113.004
0
LINE
8
BLACK
6
CONTINUOUS
10
164.996
20
-113.004
11
164.996
21
-113.003
0
LINE
8
BLACK
6
CONTINUOUS
10
164.996
20
-113.003
11
164.995
21
-113.002
0
LINE
8
BLACK
6
CONTINUOUS
10
164.995
20
-113.002
11
164.995
21
-113.001
0
LINE
8
BLACK
6
CONTINUOUS
10
164.995
20
-113.001
11
164.995
21
-113
0
LINE
8
BLACK
6
CONTINUOUS
10
164.995
20
-113
11
164.995
21
-113
0
LINE
8
BLACK
6
CONTINUOUS
10
164.995
20
-113
11
164.995
21
-113
0
LINE
8
BLACK
6
CONTINUOUS
10
164.995
20
-113
11
164.995
21
-113
0
LINE
8
BLACK
6
CONTINUOUS
10
164.995
20
-113
11
164.995
21
-105.5
0
LINE
8
BLACK
6
CONTINUOUS
10
164.995
20
-105.5
11
164.995
21
-105.5
0
LINE
8
BLACK
6
CONTINUOUS
10
164.995
20
-105.5
11
164.995
21
-105.499
0
LINE
8
BLACK
6
CONTINUOUS
10
164.995
20
-105.499
11
164.995
21
-105.498
0
LINE
8
BLACK
6
CONTINUOUS
10
164.995
20
-105.498
11
164.996
21
-105.497
0
LINE
8
BLACK
6
CONTINUOUS
10
164.996
20
-105.497
11
164.996
21
-105.496
0
LINE
8
BLACK
6
CONTINUOUS
10
164.996
20
-105.496
11
164.997
21
-105.496
0
LINE
8
BLACK
6
CONTINUOUS
10
164.997
20
-105.496
11
164.997
21
-105.496
0
LINE
8
BLACK
6
CONTINUOUS
10
164.997
20
-105.496
11
164.997
21
-105.496
0
LINE
8
BLACK
6
CONTINUOUS
10
164.997
20
-105.496
11
164.998
21
-105.495
0
LINE
8
BLACK
6
CONTINUOUS
10
164.998
20
-105.495
11
164.999
21
-105.495
0
LINE
8
BLACK
6
CONTINUOUS
10
164.999
20
-105.495
11
165
21
-105.495
0
LINE
8
BLACK
6
CONTINUOUS
10
165
20
-105.495
11
165
21
-105.495
0
LINE
8
BLACK
6
CONTINUOUS
10
165
20
-105.495
11
195
21
-105.495
0
LINE
8
BLACK
6
CONTINUOUS
10
195
20
-105.495
11
195
21
-105.495
0
LINE
8
BLACK
6
CONTINUOUS
10
195
20
-105.495
11
195
21
-105.495
0
LINE
8
BLACK
6
CONTINUOUS
10
165.005
20
-105.505
11
165.005
21
-112.995
0
LINE
8
BLACK
6
CONTINUOUS
10
165.005
20
-112.995
11
175
21
-112.995
0
LINE
8
BLACK
6
CONTINUOUS
10
175
20
-112.995
11
175
21
-112.995
0
LINE
8
BLACK
6
CONTINUOUS
10
175
20
-112.995
11
176.254
21
-113.074
0
LINE
8
BLACK
6
CONTINUOUS
10
176.254
20
-113.074
11
176.254
21
-113.074
0
LINE
8
BLACK
6
CONTINUOUS
10
176.254
20
-113.074
11
176.254
21
-113.074
0
LINE
8
BLACK
6
CONTINUOUS
10
176.254
20
-113.074
11
176.254
21
-113.074
0
LINE
8
BLACK
6
CONTINUOUS
10
176.254
20
-113.074
11
176.254
21
-113.074
0
LINE
8
BLACK
6
CONTINUOUS
10
176.254
20
-113.074
11
177.488
21
-113.309
0
LINE
8
BLACK
6
CONTINUOUS
10
177.488
20
-113.309
11
177.488
21
-113.309
0
LINE
8
BLACK
6
CONTINUOUS
10
177.488
20
-113.309
11
177.488
21
-113.309
0
LINE
8
BLACK
6
CONTINUOUS
10
177.488
20
-113.309
11
177.488
21
-113.309
0
LINE
8
BLACK
6
CONTINUOUS
10
177.488
20
-113.309
11
177.488
21
-113.309
0
LINE
8
BLACK
6
CONTINUOUS
10
177.488
20
-113.309
11
178.683
21
-113.697
0
LINE
8
BLACK
6
CONTINUOUS
10
178.683
20
-113.697
11
178.683
21
-113.697
0
LINE
8
BLACK
6
CONTINUOUS
10
178.683
20
-113.697
11
178.683
21
-113.698
0
LINE
8
BLACK
6
CONTINUOUS
10
178.683
20
-113.698
11
179.82
21
-114.232
0
LINE
8
BLACK
6
CONTINUOUS
10
179.82
20
-114.232
11
179.82
21
-114.232
0
LINE
8
BLACK
6
CONTINUOUS
10
179.82
20
-114.232
11
179.82
21
-114.233
0
LINE
8
BLACK
6
CONTINUOUS
10
179.82
20
-114.233
11
180.881
21
-114.906
0
LINE
8
BLACK
6
CONTINUOUS
10
180.881
20
-114.906
11
180.881
21
-114.906
0
LINE
8
BLACK
6
CONTINUOUS
10
180.881
20
-114.906
11
180.881
21
-114.906
0
LINE
8
BLACK
6
CONTINUOUS
10
180.881
20
-114.906
11
180.881
21
-114.906
0
LINE
8
BLACK
6
CONTINUOUS
10
180.881
20
-114.906
11
180.881
21
-114.906
0
LINE
8
BLACK
6
CONTINUOUS
10
180.881
20
-114.906
11
181.849
21
-115.706
0
LINE
8
BLACK
6
CONTINUOUS
10
181.849
20
-115.706
11
181.849
21
-115.706
0
LINE
8
BLACK
6
CONTINUOUS
10
181.849
20
-115.706
11
181.849
21
-115.707
0
LINE
8
BLACK
6
CONTINUOUS
10
181.849
20
-115.707
11
181.849
21
-115.707
0
LINE
8
BLACK
6
CONTINUOUS
10
181.849
20
-115.707
11
181.849
21
-115.707
0
LINE
8
BLACK
6
CONTINUOUS
10
181.849
20
-115.707
11
182.709
21
-116.622
0
LINE
8
BLACK
6
CONTINUOUS
10
182.709
20
-116.622
11
182.709
21
-116.623
0
LINE
8
BLACK
6
CONTINUOUS
10
182.709
20
-116.623
11
183.447
21
-117.639
0
LINE
8
BLACK
6
CONTINUOUS
10
183.447
20
-117.639
11
183.448
21
-117.639
0
LINE
8
BLACK
6
CONTINUOUS
10
183.448
20
-117.639
11
184.053
21
-118.74
0
LINE
8
BLACK
6
CONTINUOUS
10
184.053
20
-118.74
11
184.053
21
-118.74
0
LINE
8
BLACK
6
CONTINUOUS
10
184.053
20
-118.74
11
184.053
21
-118.74
0
LINE
8
BLACK
6
CONTINUOUS
10
184.053
20
-118.74
11
184.515
21
-119.908
0
LINE
8
BLACK
6
CONTINUOUS
10
184.515
20
-119.908
11
184.515
21
-119.909
0
LINE
8
BLACK
6
CONTINUOUS
10
184.515
20
-119.909
11
184.828
21
-121.125
0
LINE
8
BLACK
6
CONTINUOUS
10
184.828
20
-121.125
11
184.828
21
-121.125
0
LINE
8
BLACK
6
CONTINUOUS
10
184.828
20
-121.125
11
184.828
21
-121.126
0
LINE
8
BLACK
6
CONTINUOUS
10
184.828
20
-121.126
11
184.985
21
-122.371
0
LINE
8
BLACK
6
CONTINUOUS
10
184.985
20
-122.371
11
184.985
21
-122.372
0
LINE
8
BLACK
6
CONTINUOUS
10
184.985
20
-122.372
11
184.985
21
-123.628
0
LINE
8
BLACK
6
CONTINUOUS
10
184.985
20
-123.628
11
184.985
21
-123.629
0
LINE
8
BLACK
6
CONTINUOUS
10
184.985
20
-123.629
11
184.828
21
-124.874
0
LINE
8
BLACK
6
CONTINUOUS
10
184.828
20
-124.874
11
184.828
21
-124.875
0
LINE
8
BLACK
6
CONTINUOUS
10
184.828
20
-124.875
11
184.515
21
-126.091
0
LINE
8
BLACK
6
CONTINUOUS
10
184.515
20
-126.091
11
184.515
21
-126.091
0
LINE
8
BLACK
6
CONTINUOUS
10
184.515
20
-126.091
11
184.515
21
-126.092
0
LINE
8
BLACK
6
CONTINUOUS
10
184.515
20
-126.092
11
184.053
21
-127.26
0
LINE
8
BLACK
6
CONTINUOUS
10
184.053
20
-127.26
11
184.053
21
-127.26
0
LINE
8
BLACK
6
CONTINUOUS
10
184.053
20
-127.26
11
184.053
21
-127.26
0
LINE
8
BLACK
6
CONTINUOUS
10
184.053
20
-127.26
11
183.448
21
-128.361
0
LINE
8
BLACK
6
CONTINUOUS
10
183.448
20
-128.361
11
183.447
21
-128.361
0
LINE
8
BLACK
6
CONTINUOUS
10
183.447
20
-128.361
11
182.709
21
-129.377
0
LINE
8
BLACK
6
CONTINUOUS
10
182.709
20
-129.377
11
182.709
21
-129.378
0
LINE
8
BLACK
6
CONTINUOUS
10
182.709
20
-129.378
11
181.849
21
-130.293
0
LINE
8
BLACK
6
CONTINUOUS
10
181.849
20
-130.293
11
181.849
21
-130.293
0
LINE
8
BLACK
6
CONTINUOUS
10
181.849
20
-130.293
11
181.849
21
-130.293
0
LINE
8
BLACK
6
CONTINUOUS
10
181.849
20
-130.293
11
181.849
21
-130.294
0
LINE
8
BLACK
6
CONTINUOUS
10
181.849
20
-130.294
11
181.849
21
-130.294
0
LINE
8
BLACK
6
CONTINUOUS
10
181.849
20
-130.294
11
180.881
21
-131.094
0
LINE
8
BLACK
6
CONTINUOUS
10
180.881
20
-131.094
11
180.881
21
-131.094
0
LINE
8
BLACK
6
CONTINUOUS
10
180.881
20
-131.094
11
180.881
21
-131.094
0
LINE
8
BLACK
6
CONTINUOUS
10
180.881
20
-131.094
11
180.881
21
-131.094
0
LINE
8
BLACK
6
CONTINUOUS
10
180.881
20
-131.094
11
180.881
21
-131.094
0
LINE
8
BLACK
6
CONTINUOUS
10
180.881
20
-131.094
11
179.82
21
-131.767
0
LINE
8
BLACK
6
CONTINUOUS
10
179.82
20
-131.767
11
179.82
21
-131.768
0
LINE
8
BLACK
6
CONTINUOUS
10
179.82
20
-131.768
11
179.82
21
-131.768
0
LINE
8
BLACK
6
CONTINUOUS
10
179.82
20
-131.768
11
178.683
21
-132.302
0
LINE
8
BLACK
6
CONTINUOUS
10
178.683
20
-132.302
11
178.683
21
-132.303
0
LINE
8
BLACK
6
CONTINUOUS
10
178.683
20
-132.303
11
178.683
21
-132.303
0
LINE
8
BLACK
6
CONTINUOUS
10
178.683
20
-132.303
11
177.488
21
-132.691
0
LINE
8
BLACK
6
CONTINUOUS
10
177.488
20
-132.691
11
177.488
21
-132.691
0
LINE
8
BLACK
6
CONTINUOUS
10
177.488
20
-132.691
11
177.488
21
-132.691
0
LINE
8
BLACK
6
CONTINUOUS
10
177.488
20
-132.691
11
177.488
21
-132.691
0
LINE
8
BLACK
6
CONTINUOUS
10
177.488
20
-132.691
11
177.488
21
-132.691
0
LINE
8
BLACK
6
CONTINUOUS
10
177.488
20
-132.691
11
176.254
21
-132.926
0
LINE
8
BLACK
6
CONTINUOUS
10
176.254
20
-132.926
11
176.254
21
-132.926
0
LINE
8
BLACK
6
CONTINUOUS
10
176.254
20
-132.926
11
176.254
21
-132.926
0
LINE
8
BLACK
6
CONTINUOUS
10
176.254
20
-132.926
11
176.254
21
-132.926
0
LINE
8
BLACK
6
CONTINUOUS
10
176.254
20
-132.926
11
176.254
21
-132.926
0
LINE
8
BLACK
6
CONTINUOUS
10
176.254
20
-132.926
11
175
21
-133.005
0
LINE
8
BLACK
6
CONTINUOUS
10
175
20
-133.005
11
175
21
-133.005
0
LINE
8
BLACK
6
CONTINUOUS
10
175
20
-133.005
11
165.005
21
-133.005
0
LINE
8
BLACK
6
CONTINUOUS
10
165.005
20
-133.005
11
165.005
21
-135.495
0
LINE
8
BLACK
6
CONTINUOUS
10
165.005
20
-135.495
11
194.995
21
-135.495
0
LINE
8
BLACK
6
CONTINUOUS
10
194.995
20
-135.495
11
194.995
21
-105.505
0
LINE
8
BLACK
6
CONTINUOUS
10
194.995
20
-105.505
11
165.005
21
-105.505
0
LINE
8
BLACK
6
CONTINUOUS
10
192.019
20
-133.202
11
192.096
21
-133.017
0
LINE
8
BLACK
6
CONTINUOUS
10
192.096
20
-133.017
11
192.208
21
-132.85
0
LINE
8
BLACK
6
CONTINUOUS
10
192.208
20
-132.85
11
192.35
21
-132.708
0
LINE
8
BLACK
6
CONTINUOUS
10
192.35
20
-132.708
11
192.517
21
-132.596
0
LINE
8
BLACK
6
CONTINUOUS
10
192.517
20
-132.596
11
192.702
21
-132.519
0
LINE
8
BLACK
6
CONTINUOUS
10
192.702
20
-132.519
11
192.9
21
-132.48
0
LINE
8
BLACK
6
CONTINUOUS
10
192.9
20
-132.48
11
193.1
21
-132.48
0
LINE
8
BLACK
6
CONTINUOUS
10
193.1
20
-132.48
11
193.298
21
-132.519
0
LINE
8
BLACK
6
CONTINUOUS
10
193.298
20
-132.519
11
193.483
21
-132.596
0
LINE
8
BLACK
6
CONTINUOUS
10
193.483
20
-132.596
11
193.65
21
-132.708
0
LINE
8
BLACK
6
CONTINUOUS
10
193.65
20
-132.708
11
193.792
21
-132.85
0
LINE
8
BLACK
6
CONTINUOUS
10
193.792
20
-132.85
11
193.904
21
-133.017
0
LINE
8
BLACK
6
CONTINUOUS
10
193.904
20
-133.017
11
193.981
21
-133.202
0
LINE
8
BLACK
6
CONTINUOUS
10
193.981
20
-133.202
11
194.02
21
-133.4
0
LINE
8
BLACK
6
CONTINUOUS
10
194.02
20
-133.4
11
194.02
21
-133.6
0
LINE
8
BLACK
6
CONTINUOUS
10
194.02
20
-133.6
11
193.981
21
-133.798
0
LINE
8
BLACK
6
CONTINUOUS
10
193.981
20
-133.798
11
193.904
21
-133.983
0
LINE
8
BLACK
6
CONTINUOUS
10
193.904
20
-133.983
11
193.792
21
-134.15
0
LINE
8
BLACK
6
CONTINUOUS
10
193.792
20
-134.15
11
193.65
21
-134.292
0
LINE
8
BLACK
6
CONTINUOUS
10
193.65
20
-134.292
11
193.483
21
-134.404
0
LINE
8
BLACK
6
CONTINUOUS
10
193.483
20
-134.404
11
193.298
21
-134.481
0
LINE
8
BLACK
6
CONTINUOUS
10
193.298
20
-134.481
11
193.1
21
-134.52
0
LINE
8
BLACK
6
CONTINUOUS
10
193.1
20
-134.52
11
192.9
21
-134.52
0
LINE
8
BLACK
6
CONTINUOUS
10
192.9
20
-134.52
11
192.702
21
-134.481
0
LINE
8
BLACK
6
CONTINUOUS
10
192.702
20
-134.481
11
192.517
21
-134.404
0
LINE
8
BLACK
6
CONTINUOUS
10
192.517
20
-134.404
11
192.35
21
-134.292
0
LINE
8
BLACK
6
CONTINUOUS
10
192.35
20
-134.292
11
192.208
21
-134.15
0
LINE
8
BLACK
6
CONTINUOUS
10
192.208
20
-134.15
11
192.096
21
-133.983
0
LINE
8
BLACK
6
CONTINUOUS
10
192.096
20
-133.983
11
192.019
21
-133.798
0
LINE
8
BLACK
6
CONTINUOUS
10
192.019
20
-133.798
11
191.98
21
-133.6
0
LINE
8
BLACK
6
CONTINUOUS
10
191.98
20
-133.6
11
191.98
21
-133.4
0
LINE
8
BLACK
6
CONTINUOUS
10
191.98
20
-133.4
11
192.019
21
-133.202
0
LINE
8
BLACK
6
CONTINUOUS
10
192.048
20
-133.789
11
192.122
21
-133.969
0
LINE
8
BLACK
6
CONTINUOUS
10
192.122
20
-133.969
11
192.231
21
-134.131
0
LINE
8
BLACK
6
CONTINUOUS
10
192.231
20
-134.131
11
192.369
21
-134.269
0
LINE
8
BLACK
6
CONTINUOUS
10
192.369
20
-134.269
11
192.531
21
-134.378
0
LINE
8
BLACK
6
CONTINUOUS
10
192.531
20
-134.378
11
192.711
21
-134.452
0
LINE
8
BLACK
6
CONTINUOUS
10
192.711
20
-134.452
11
192.902
21
-134.49
0
LINE
8
BLACK
6
CONTINUOUS
10
192.902
20
-134.49
11
193.098
21
-134.49
0
LINE
8
BLACK
6
CONTINUOUS
10
193.098
20
-134.49
11
193.289
21
-134.452
0
LINE
8
BLACK
6
CONTINUOUS
10
193.289
20
-134.452
11
193.469
21
-134.378
0
LINE
8
BLACK
6
CONTINUOUS
10
193.469
20
-134.378
11
193.631
21
-134.269
0
LINE
8
BLACK
6
CONTINUOUS
10
193.631
20
-134.269
11
193.769
21
-134.131
0
LINE
8
BLACK
6
CONTINUOUS
10
193.769
20
-134.131
11
193.878
21
-133.969
0
LINE
8
BLACK
6
CONTINUOUS
10
193.878
20
-133.969
11
193.952
21
-133.789
0
LINE
8
BLACK
6
CONTINUOUS
10
193.952
20
-133.789
11
193.99
21
-133.598
0
LINE
8
BLACK
6
CONTINUOUS
10
193.99
20
-133.598
11
193.99
21
-133.402
0
LINE
8
BLACK
6
CONTINUOUS
10
193.99
20
-133.402
11
193.952
21
-133.211
0
LINE
8
BLACK
6
CONTINUOUS
10
193.952
20
-133.211
11
193.878
21
-133.031
0
LINE
8
BLACK
6
CONTINUOUS
10
193.878
20
-133.031
11
193.769
21
-132.869
0
LINE
8
BLACK
6
CONTINUOUS
10
193.769
20
-132.869
11
193.631
21
-132.731
0
LINE
8
BLACK
6
CONTINUOUS
10
193.631
20
-132.731
11
193.469
21
-132.622
0
LINE
8
BLACK
6
CONTINUOUS
10
193.469
20
-132.622
11
193.289
21
-132.548
0
LINE
8
BLACK
6
CONTINUOUS
10
193.289
20
-132.548
11
193.098
21
-132.51
0
LINE
8
BLACK
6
CONTINUOUS
10
193.098
20
-132.51
11
192.902
21
-132.51
0
LINE
8
BLACK
6
CONTINUOUS
10
192.902
20
-132.51
11
192.711
21
-132.548
0
LINE
8
BLACK
6
CONTINUOUS
10
192.711
20
-132.548
11
192.531
21
-132.622
0
LINE
8
BLACK
6
CONTINUOUS
10
192.531
20
-132.622
11
192.369
21
-132.731
0
LINE
8
BLACK
6
CONTINUOUS
10
192.369
20
-132.731
11
192.231
21
-132.869
0
LINE
8
BLACK
6
CONTINUOUS
10
192.231
20
-132.869
11
192.122
21
-133.031
0
LINE
8
BLACK
6
CONTINUOUS
10
192.122
20
-133.031
11
192.048
21
-133.211
0
LINE
8
BLACK
6
CONTINUOUS
10
192.048
20
-133.211
11
192.01
21
-133.402
0
LINE
8
BLACK
6
CONTINUOUS
10
192.01
20
-133.402
11
192.01
21
-133.598
0
LINE
8
BLACK
6
CONTINUOUS
10
192.01
20
-133.598
11
192.048
21
-133.789
0
LINE
8
BLACK
6
CONTINUOUS
10
165.519
20
-106.702
11
165.596
21
-106.517
0
LINE
8
BLACK
6
CONTINUOUS
10
165.596
20
-106.517
11
165.708
21
-106.35
0
LINE
8
BLACK
6
CONTINUOUS
10
165.708
20
-106.35
11
165.85
21
-106.208
0
LINE
8
BLACK
6
CONTINUOUS
10
165.85
20
-106.208
11
166.017
21
-106.096
0
LINE
8
BLACK
6
CONTINUOUS
10
166.017
20
-106.096
11
166.202
21
-106.019
0
LINE
8
BLACK
6
CONTINUOUS
10
166.202
20
-106.019
11
166.4
21
-105.98
0
LINE
8
BLACK
6
CONTINUOUS
10
166.4
20
-105.98
11
166.6
21
-105.98
0
LINE
8
BLACK
6
CONTINUOUS
10
166.6
20
-105.98
11
166.798
21
-106.019
0
LINE
8
BLACK
6
CONTINUOUS
10
166.798
20
-106.019
11
166.983
21
-106.096
0
LINE
8
BLACK
6
CONTINUOUS
10
166.983
20
-106.096
11
167.15
21
-106.208
0
LINE
8
BLACK
6
CONTINUOUS
10
167.15
20
-106.208
11
167.292
21
-106.35
0
LINE
8
BLACK
6
CONTINUOUS
10
167.292
20
-106.35
11
167.404
21
-106.517
0
LINE
8
BLACK
6
CONTINUOUS
10
167.404
20
-106.517
11
167.481
21
-106.702
0
LINE
8
BLACK
6
CONTINUOUS
10
167.481
20
-106.702
11
167.52
21
-106.9
0
LINE
8
BLACK
6
CONTINUOUS
10
167.52
20
-106.9
11
167.52
21
-107.1
0
LINE
8
BLACK
6
CONTINUOUS
10
167.52
20
-107.1
11
167.481
21
-107.298
0
LINE
8
BLACK
6
CONTINUOUS
10
167.481
20
-107.298
11
167.404
21
-107.483
0
LINE
8
BLACK
6
CONTINUOUS
10
167.404
20
-107.483
11
167.292
21
-107.65
0
LINE
8
BLACK
6
CONTINUOUS
10
167.292
20
-107.65
11
167.15
21
-107.792
0
LINE
8
BLACK
6
CONTINUOUS
10
167.15
20
-107.792
11
166.983
21
-107.904
0
LINE
8
BLACK
6
CONTINUOUS
10
166.983
20
-107.904
11
166.798
21
-107.981
0
LINE
8
BLACK
6
CONTINUOUS
10
166.798
20
-107.981
11
166.6
21
-108.02
0
LINE
8
BLACK
6
CONTINUOUS
10
166.6
20
-108.02
11
166.4
21
-108.02
0
LINE
8
BLACK
6
CONTINUOUS
10
166.4
20
-108.02
11
166.202
21
-107.981
0
LINE
8
BLACK
6
CONTINUOUS
10
166.202
20
-107.981
11
166.017
21
-107.904
0
LINE
8
BLACK
6
CONTINUOUS
10
166.017
20
-107.904
11
165.85
21
-107.792
0
LINE
8
BLACK
6
CONTINUOUS
10
165.85
20
-107.792
11
165.708
21
-107.65
0
LINE
8
BLACK
6
CONTINUOUS
10
165.708
20
-107.65
11
165.596
21
-107.483
0
LINE
8
BLACK
6
CONTINUOUS
10
165.596
20
-107.483
11
165.519
21
-107.298
0
LINE
8
BLACK
6
CONTINUOUS
10
165.519
20
-107.298
11
165.48
21
-107.1
0
LINE
8
BLACK
6
CONTINUOUS
10
165.48
20
-107.1
11
165.48
21
-106.9
0
LINE
8
BLACK
6
CONTINUOUS
10
165.48
20
-106.9
11
165.519
21
-106.702
0
LINE
8
BLACK
6
CONTINUOUS
10
165.548
20
-107.289
11
165.622
21
-107.469
0
LINE
8
BLACK
6
CONTINUOUS
10
165.622
20
-107.469
11
165.731
21
-107.631
0
LINE
8
BLACK
6
CONTINUOUS
10
165.731
20
-107.631
11
165.869
21
-107.769
0
LINE
8
BLACK
6
CONTINUOUS
10
165.869
20
-107.769
11
166.031
21
-107.878
0
LINE
8
BLACK
6
CONTINUOUS
10
166.031
20
-107.878
11
166.211
21
-107.952
0
LINE
8
BLACK
6
CONTINUOUS
10
166.211
20
-107.952
11
166.402
21
-107.99
0
LINE
8
BLACK
6
CONTINUOUS
10
166.402
20
-107.99
11
166.598
21
-107.99
0
LINE
8
BLACK
6
CONTINUOUS
10
166.598
20
-107.99
11
166.789
21
-107.952
0
LINE
8
BLACK
6
CONTINUOUS
10
166.789
20
-107.952
11
166.969
21
-107.878
0
LINE
8
BLACK
6
CONTINUOUS
10
166.969
20
-107.878
11
167.131
21
-107.769
0
LINE
8
BLACK
6
CONTINUOUS
10
167.131
20
-107.769
11
167.269
21
-107.631
0
LINE
8
BLACK
6
CONTINUOUS
10
167.269
20
-107.631
11
167.378
21
-107.469
0
LINE
8
BLACK
6
CONTINUOUS
10
167.378
20
-107.469
11
167.452
21
-107.289
0
LINE
8
BLACK
6
CONTINUOUS
10
167.452
20
-107.289
11
167.49
21
-107.098
0
LINE
8
BLACK
6
CONTINUOUS
10
167.49
20
-107.098
11
167.49
21
-106.902
0
LINE
8
BLACK
6
CONTINUOUS
10
167.49
20
-106.902
11
167.452
21
-106.711
0
LINE
8
BLACK
6
CONTINUOUS
10
167.452
20
-106.711
11
167.378
21
-106.531
0
LINE
8
BLACK
6
CONTINUOUS
10
167.378
20
-106.531
11
167.269
21
-106.369
0
LINE
8
BLACK
6
CONTINUOUS
10
167.269
20
-106.369
11
167.131
21
-106.231
0
LINE
8
BLACK
6
CONTINUOUS
10
167.131
20
-106.231
11
166.969
21
-106.122
0
LINE
8
BLACK
6
CONTINUOUS
10
166.969
20
-106.122
11
166.789
21
-106.048
0
LINE
8
BLACK
6
CONTINUOUS
10
166.789
20
-106.048
11
166.598
21
-106.01
0
LINE
8
BLACK
6
CONTINUOUS
10
166.598
20
-106.01
11
166.402
21
-106.01
0
LINE
8
BLACK
6
CONTINUOUS
10
166.402
20
-106.01
11
166.211
21
-106.048
0
LINE
8
BLACK
6
CONTINUOUS
10
166.211
20
-106.048
11
166.031
21
-106.122
0
LINE
8
BLACK
6
CONTINUOUS
10
166.031
20
-106.122
11
165.869
21
-106.231
0
LINE
8
BLACK
6
CONTINUOUS
10
165.869
20
-106.231
11
165.731
21
-106.369
0
LINE
8
BLACK
6
CONTINUOUS
10
165.731
20
-106.369
11
165.622
21
-106.531
0
LINE
8
BLACK
6
CONTINUOUS
10
165.622
20
-106.531
11
165.548
21
-106.711
0
LINE
8
BLACK
6
CONTINUOUS
10
165.548
20
-106.711
11
165.51
21
-106.902
0
LINE
8
BLACK
6
CONTINUOUS
10
165.51
20
-106.902
11
165.51
21
-107.098
0
LINE
8
BLACK
6
CONTINUOUS
10
165.51
20
-107.098
11
165.548
21
-107.289
0
LINE
8
BLACK
6
CONTINUOUS
10
192.519
20
-106.702
11
192.596
21
-106.517
0
LINE
8
BLACK
6
CONTINUOUS
10
192.596
20
-106.517
11
192.708
21
-106.35
0
LINE
8
BLACK
6
CONTINUOUS
10
192.708
20
-106.35
11
192.85
21
-106.208
0
LINE
8
BLACK
6
CONTINUOUS
10
192.85
20
-106.208
11
193.017
21
-106.096
0
LINE
8
BLACK
6
CONTINUOUS
10
193.017
20
-106.096
11
193.202
21
-106.019
0
LINE
8
BLACK
6
CONTINUOUS
10
193.202
20
-106.019
11
193.4
21
-105.98
0
LINE
8
BLACK
6
CONTINUOUS
10
193.4
20
-105.98
11
193.6
21
-105.98
0
LINE
8
BLACK
6
CONTINUOUS
10
193.6
20
-105.98
11
193.798
21
-106.019
0
LINE
8
BLACK
6
CONTINUOUS
10
193.798
20
-106.019
11
193.983
21
-106.096
0
LINE
8
BLACK
6
CONTINUOUS
10
193.983
20
-106.096
11
194.15
21
-106.208
0
LINE
8
BLACK
6
CONTINUOUS
10
194.15
20
-106.208
11
194.292
21
-106.35
0
LINE
8
BLACK
6
CONTINUOUS
10
194.292
20
-106.35
11
194.404
21
-106.517
0
LINE
8
BLACK
6
CONTINUOUS
10
194.404
20
-106.517
11
194.481
21
-106.702
0
LINE
8
BLACK
6
CONTINUOUS
10
194.481
20
-106.702
11
194.52
21
-106.9
0
LINE
8
BLACK
6
CONTINUOUS
10
194.52
20
-106.9
11
194.52
21
-107.1
0
LINE
8
BLACK
6
CONTINUOUS
10
194.52
20
-107.1
11
194.481
21
-107.298
0
LINE
8
BLACK
6
CONTINUOUS
10
194.481
20
-107.298
11
194.404
21
-107.483
0
LINE
8
BLACK
6
CONTINUOUS
10
194.404
20
-107.483
11
194.292
21
-107.65
0
LINE
8
BLACK
6
CONTINUOUS
10
194.292
20
-107.65
11
194.15
21
-107.792
0
LINE
8
BLACK
6
CONTINUOUS
10
194.15
20
-107.792
11
193.983
21
-107.904
0
LINE
8
BLACK
6
CONTINUOUS
10
193.983
20
-107.904
11
193.798
21
-107.981
0
LINE
8
BLACK
6
CONTINUOUS
10
193.798
20
-107.981
11
193.6
21
-108.02
0
LINE
8
BLACK
6
CONTINUOUS
10
193.6
20
-108.02
11
193.4
21
-108.02
0
LINE
8
BLACK
6
CONTINUOUS
10
193.4
20
-108.02
11
193.202
21
-107.981
0
LINE
8
BLACK
6
CONTINUOUS
10
193.202
20
-107.981
11
193.017
21
-107.904
0
LINE
8
BLACK
6
CONTINUOUS
10
193.017
20
-107.904
11
192.85
21
-107.792
0
LINE
8
BLACK
6
CONTINUOUS
10
192.85
20
-107.792
11
192.708
21
-107.65
0
LINE
8
BLACK
6
CONTINUOUS
10
192.708
20
-107.65
11
192.596
21
-107.483
0
LINE
8
BLACK
6
CONTINUOUS
10
192.596
20
-107.483
11
192.519
21
-107.298
0
LINE
8
BLACK
6
CONTINUOUS
10
192.519
20
-107.298
11
192.48
21
-107.1
0
LINE
8
BLACK
6
CONTINUOUS
10
192.48
20
-107.1
11
192.48
21
-106.9
0
LINE
8
BLACK
6
CONTINUOUS
10
192.48
20
-106.9
11
192.519
21
-106.702
0
LINE
8
BLACK
6
CONTINUOUS
10
192.548
20
-107.289
11
192.622
21
-107.469
0
LINE
8
BLACK
6
CONTINUOUS
10
192.622
20
-107.469
11
192.731
21
-107.631
0
LINE
8
BLACK
6
CONTINUOUS
10
192.731
20
-107.631
11
192.869
21
-107.769
0
LINE
8
BLACK
6
CONTINUOUS
10
192.869
20
-107.769
11
193.031
21
-107.878
0
LINE
8
BLACK
6
CONTINUOUS
10
193.031
20
-107.878
11
193.211
21
-107.952
0
LINE
8
BLACK
6
CONTINUOUS
10
193.211
20
-107.952
11
193.402
21
-107.99
0
LINE
8
BLACK
6
CONTINUOUS
10
193.402
20
-107.99
11
193.598
21
-107.99
0
LINE
8
BLACK
6
CONTINUOUS
10
193.598
20
-107.99
11
193.789
21
-107.952
0
LINE
8
BLACK
6
CONTINUOUS
10
193.789
20
-107.952
11
193.969
21
-107.878
0
LINE
8
BLACK
6
CONTINUOUS
10
193.969
20
-107.878
11
194.131
21
-107.769
0
LINE
8
BLACK
6
CONTINUOUS
10
194.131
20
-107.769
11
194.269
21
-107.631
0
LINE
8
BLACK
6
CONTINUOUS
10
194.269
20
-107.631
11
194.378
21
-107.469
0
LINE
8
BLACK
6
CONTINUOUS
10
194.378
20
-107.469
11
194.452
21
-107.289
0
LINE
8
BLACK
6
CONTINUOUS
10
194.452
20
-107.289
11
194.49
21
-107.098
0
LINE
8
BLACK
6
CONTINUOUS
10
194.49
20
-107.098
11
194.49
21
-106.902
0
LINE
8
BLACK
6
CONTINUOUS
10
194.49
20
-106.902
11
194.452
21
-106.711
0
LINE
8
BLACK
6
CONTINUOUS
10
194.452
20
-106.711
11
194.378
21
-106.531
0
LINE
8
BLACK
6
CONTINUOUS
10
194.378
20
-106.531
11
194.269
21
-106.369
0
LINE
8
BLACK
6
CONTINUOUS
10
194.269
20
-106.369
11
194.131
21
-106.231
0
LINE
8
BLACK
6
CONTINUOUS
10
194.131
20
-106.231
11
193.969
21
-106.122
0
LINE
8
BLACK
6
CONTINUOUS
10
193.969
20
-106.122
11
193.789
21
-106.048
0
LINE
8
BLACK
6
CONTINUOUS
10
193.789
20
-106.048
11
193.598
21
-106.01
0
LINE
8
BLACK
6
CONTINUOUS
10
193.598
20
-106.01
11
193.402
21
-106.01
0
LINE
8
BLACK
6
CONTINUOUS
10
193.402
20
-106.01
11
193.211
21
-106.048
0
LINE
8
BLACK
6
CONTINUOUS
10
193.211
20
-106.048
11
193.031
21
-106.122
0
LINE
8
BLACK
6
CONTINUOUS
10
193.031
20
-106.122
11
192.869
21
-106.231
0
LINE
8
BLACK
6
CONTINUOUS
10
192.869
20
-106.231
11
192.731
21
-106.369
0
LINE
8
BLACK
6
CONTINUOUS
10
192.731
20
-106.369
11
192.622
21
-106.531
0
LINE
8
BLACK
6
CONTINUOUS
10
192.622
20
-106.531
11
192.548
21
-106.711
0
LINE
8
BLACK
6
CONTINUOUS
10
192.548
20
-106.711
11
192.51
21
-106.902
0
LINE
8
BLACK
6
CONTINUOUS
10
192.51
20
-106.902
11
192.51
21
-107.098
0
LINE
8
BLACK
6
CONTINUOUS
10
192.51
20
-107.098
11
192.548
21
-107.289
  0
ENDSEC
  0
EOF
