  0
SECTION
  2
HEADER
  9
$ANGBASE
  50
0.0
  9
$ANGDIR
  70
1
  9
$MEASUREMENT
  70
1
  0
ENDSEC
  0
SECTION
  2
TABLES
  0
TABLE
  2
LTYPE
  70
4
  0
LTYPE
  5
40F
  2
CONTINUOUS
  70
0
  3
Solid line
  72
65
  73
0
  40
0.0
  0
LTYPE
  5
410
  2
DASHDOT
 70
0
  3
Dash Dot ____ _ ____ _
 72
65
 73
4
 40
2.0
 49
1.25
 49
-0.25
 49
0.25
 49
-0.25
  0
LTYPE
  5
411
  2
DASHED
 70
0
  3
Dashed __ __ __ __ __
 72
65
 73
2
 40
0.75
 49
0.5
 49
-0.25
  0
LTYPE
  5
43B
  2
DOTTED
 70
0
  3
Dotted .  .  .  .
 72
65
 73
2
 40
0.2
 49
0.0
 49
-0.2
  0
ENDTAB
  0
TABLE
  2
STYLE
  70
4
  0
STYLE
  2
KICAD
  70
0
  40
0
  41
1
  42
1
  50
0
  71
0
  3
isocp.shx
  0
STYLE
  2
KICADB
  70
0
  40
0
  41
1
  42
1
  50
0
  71
0
  3
isocp.shx
  0
STYLE
  2
KICADI
  70
0
  40
0
  41
1
  42
1
  50
15
  71
0
  3
isocp.shx
  0
STYLE
  2
KICADBI
  70
0
  40
0
  41
1
  42
1
  50
15
  71
0
  3
isocp.shx
  0
ENDTAB
  0
TABLE
  2
LAYER
  70
1
  0
LAYER
  2
BLACK
  70
0
  62
7
  6
CONTINUOUS
  0
ENDTAB
  0
ENDSEC
  0
SECTION
  2
ENTITIES
0
LINE
8
BLACK
6
CONTINUOUS
10
191.416
20
-128.788
11
191.431
21
-128.792
0
LINE
8
BLACK
6
CONTINUOUS
10
191.431
20
-128.792
11
191.445
21
-128.799
0
LINE
8
BLACK
6
CONTINUOUS
10
191.445
20
-128.799
11
191.457
21
-128.809
0
LINE
8
BLACK
6
CONTINUOUS
10
191.457
20
-128.809
11
191.467
21
-128.821
0
LINE
8
BLACK
6
CONTINUOUS
10
191.467
20
-128.821
11
191.474
21
-128.835
0
LINE
8
BLACK
6
CONTINUOUS
10
191.474
20
-128.835
11
191.478
21
-128.85
0
LINE
8
BLACK
6
CONTINUOUS
10
191.478
20
-128.85
11
191.48
21
-128.865
0
LINE
8
BLACK
6
CONTINUOUS
10
191.48
20
-128.865
11
191.48
21
-129.024
0
LINE
8
BLACK
6
CONTINUOUS
10
191.48
20
-129.024
11
191.478
21
-129.04
0
LINE
8
BLACK
6
CONTINUOUS
10
191.478
20
-129.04
11
191.474
21
-129.055
0
LINE
8
BLACK
6
CONTINUOUS
10
191.474
20
-129.055
11
191.467
21
-129.069
0
LINE
8
BLACK
6
CONTINUOUS
10
191.467
20
-129.069
11
191.457
21
-129.081
0
LINE
8
BLACK
6
CONTINUOUS
10
191.457
20
-129.081
11
191.445
21
-129.091
0
LINE
8
BLACK
6
CONTINUOUS
10
191.445
20
-129.091
11
191.431
21
-129.098
0
LINE
8
BLACK
6
CONTINUOUS
10
191.431
20
-129.098
11
191.416
21
-129.102
0
LINE
8
BLACK
6
CONTINUOUS
10
191.416
20
-129.102
11
191.4
21
-129.104
0
LINE
8
BLACK
6
CONTINUOUS
10
191.4
20
-129.104
11
191.2
21
-129.104
0
LINE
8
BLACK
6
CONTINUOUS
10
191.2
20
-129.104
11
191.184
21
-129.102
0
LINE
8
BLACK
6
CONTINUOUS
10
191.184
20
-129.102
11
191.169
21
-129.098
0
LINE
8
BLACK
6
CONTINUOUS
10
191.169
20
-129.098
11
191.155
21
-129.091
0
LINE
8
BLACK
6
CONTINUOUS
10
191.155
20
-129.091
11
191.143
21
-129.081
0
LINE
8
BLACK
6
CONTINUOUS
10
191.143
20
-129.081
11
191.133
21
-129.069
0
LINE
8
BLACK
6
CONTINUOUS
10
191.133
20
-129.069
11
191.126
21
-129.055
0
LINE
8
BLACK
6
CONTINUOUS
10
191.126
20
-129.055
11
191.122
21
-129.04
0
LINE
8
BLACK
6
CONTINUOUS
10
191.122
20
-129.04
11
191.12
21
-129.024
0
LINE
8
BLACK
6
CONTINUOUS
10
191.12
20
-129.024
11
191.12
21
-128.865
0
LINE
8
BLACK
6
CONTINUOUS
10
191.12
20
-128.865
11
191.122
21
-128.85
0
LINE
8
BLACK
6
CONTINUOUS
10
191.122
20
-128.85
11
191.126
21
-128.835
0
LINE
8
BLACK
6
CONTINUOUS
10
191.126
20
-128.835
11
191.133
21
-128.821
0
LINE
8
BLACK
6
CONTINUOUS
10
191.133
20
-128.821
11
191.143
21
-128.809
0
LINE
8
BLACK
6
CONTINUOUS
10
191.143
20
-128.809
11
191.155
21
-128.799
0
LINE
8
BLACK
6
CONTINUOUS
10
191.155
20
-128.799
11
191.169
21
-128.792
0
LINE
8
BLACK
6
CONTINUOUS
10
191.169
20
-128.792
11
191.184
21
-128.788
0
LINE
8
BLACK
6
CONTINUOUS
10
191.184
20
-128.788
11
191.2
21
-128.786
0
LINE
8
BLACK
6
CONTINUOUS
10
191.2
20
-128.786
11
191.4
21
-128.786
0
LINE
8
BLACK
6
CONTINUOUS
10
191.4
20
-128.786
11
191.416
21
-128.788
0
LINE
8
BLACK
6
CONTINUOUS
10
188.116
20
-128.288
11
188.131
21
-128.292
0
LINE
8
BLACK
6
CONTINUOUS
10
188.131
20
-128.292
11
188.145
21
-128.299
0
LINE
8
BLACK
6
CONTINUOUS
10
188.145
20
-128.299
11
188.157
21
-128.309
0
LINE
8
BLACK
6
CONTINUOUS
10
188.157
20
-128.309
11
188.167
21
-128.321
0
LINE
8
BLACK
6
CONTINUOUS
10
188.167
20
-128.321
11
188.174
21
-128.335
0
LINE
8
BLACK
6
CONTINUOUS
10
188.174
20
-128.335
11
188.178
21
-128.35
0
LINE
8
BLACK
6
CONTINUOUS
10
188.178
20
-128.35
11
188.18
21
-128.365
0
LINE
8
BLACK
6
CONTINUOUS
10
188.18
20
-128.365
11
188.18
21
-128.524
0
LINE
8
BLACK
6
CONTINUOUS
10
188.18
20
-128.524
11
188.178
21
-128.54
0
LINE
8
BLACK
6
CONTINUOUS
10
188.178
20
-128.54
11
188.174
21
-128.555
0
LINE
8
BLACK
6
CONTINUOUS
10
188.174
20
-128.555
11
188.167
21
-128.569
0
LINE
8
BLACK
6
CONTINUOUS
10
188.167
20
-128.569
11
188.157
21
-128.581
0
LINE
8
BLACK
6
CONTINUOUS
10
188.157
20
-128.581
11
188.145
21
-128.591
0
LINE
8
BLACK
6
CONTINUOUS
10
188.145
20
-128.591
11
188.131
21
-128.598
0
LINE
8
BLACK
6
CONTINUOUS
10
188.131
20
-128.598
11
188.116
21
-128.602
0
LINE
8
BLACK
6
CONTINUOUS
10
188.116
20
-128.602
11
188.1
21
-128.604
0
LINE
8
BLACK
6
CONTINUOUS
10
188.1
20
-128.604
11
187.899
21
-128.604
0
LINE
8
BLACK
6
CONTINUOUS
10
187.899
20
-128.604
11
187.884
21
-128.602
0
LINE
8
BLACK
6
CONTINUOUS
10
187.884
20
-128.602
11
187.869
21
-128.598
0
LINE
8
BLACK
6
CONTINUOUS
10
187.869
20
-128.598
11
187.855
21
-128.591
0
LINE
8
BLACK
6
CONTINUOUS
10
187.855
20
-128.591
11
187.843
21
-128.581
0
LINE
8
BLACK
6
CONTINUOUS
10
187.843
20
-128.581
11
187.833
21
-128.569
0
LINE
8
BLACK
6
CONTINUOUS
10
187.833
20
-128.569
11
187.826
21
-128.555
0
LINE
8
BLACK
6
CONTINUOUS
10
187.826
20
-128.555
11
187.822
21
-128.54
0
LINE
8
BLACK
6
CONTINUOUS
10
187.822
20
-128.54
11
187.82
21
-128.524
0
LINE
8
BLACK
6
CONTINUOUS
10
187.82
20
-128.524
11
187.82
21
-128.365
0
LINE
8
BLACK
6
CONTINUOUS
10
187.82
20
-128.365
11
187.822
21
-128.35
0
LINE
8
BLACK
6
CONTINUOUS
10
187.822
20
-128.35
11
187.826
21
-128.335
0
LINE
8
BLACK
6
CONTINUOUS
10
187.826
20
-128.335
11
187.833
21
-128.321
0
LINE
8
BLACK
6
CONTINUOUS
10
187.833
20
-128.321
11
187.843
21
-128.309
0
LINE
8
BLACK
6
CONTINUOUS
10
187.843
20
-128.309
11
187.855
21
-128.299
0
LINE
8
BLACK
6
CONTINUOUS
10
187.855
20
-128.299
11
187.869
21
-128.292
0
LINE
8
BLACK
6
CONTINUOUS
10
187.869
20
-128.292
11
187.884
21
-128.288
0
LINE
8
BLACK
6
CONTINUOUS
10
187.884
20
-128.288
11
187.899
21
-128.286
0
LINE
8
BLACK
6
CONTINUOUS
10
187.899
20
-128.286
11
188.1
21
-128.286
0
LINE
8
BLACK
6
CONTINUOUS
10
188.1
20
-128.286
11
188.116
21
-128.288
0
LINE
8
BLACK
6
CONTINUOUS
10
191.416
20
-128.098
11
191.431
21
-128.102
0
LINE
8
BLACK
6
CONTINUOUS
10
191.431
20
-128.102
11
191.445
21
-128.109
0
LINE
8
BLACK
6
CONTINUOUS
10
191.445
20
-128.109
11
191.457
21
-128.119
0
LINE
8
BLACK
6
CONTINUOUS
10
191.457
20
-128.119
11
191.467
21
-128.131
0
LINE
8
BLACK
6
CONTINUOUS
10
191.467
20
-128.131
11
191.474
21
-128.145
0
LINE
8
BLACK
6
CONTINUOUS
10
191.474
20
-128.145
11
191.478
21
-128.16
0
LINE
8
BLACK
6
CONTINUOUS
10
191.478
20
-128.16
11
191.48
21
-128.175
0
LINE
8
BLACK
6
CONTINUOUS
10
191.48
20
-128.175
11
191.48
21
-128.334
0
LINE
8
BLACK
6
CONTINUOUS
10
191.48
20
-128.334
11
191.478
21
-128.35
0
LINE
8
BLACK
6
CONTINUOUS
10
191.478
20
-128.35
11
191.474
21
-128.365
0
LINE
8
BLACK
6
CONTINUOUS
10
191.474
20
-128.365
11
191.467
21
-128.379
0
LINE
8
BLACK
6
CONTINUOUS
10
191.467
20
-128.379
11
191.457
21
-128.391
0
LINE
8
BLACK
6
CONTINUOUS
10
191.457
20
-128.391
11
191.445
21
-128.401
0
LINE
8
BLACK
6
CONTINUOUS
10
191.445
20
-128.401
11
191.431
21
-128.408
0
LINE
8
BLACK
6
CONTINUOUS
10
191.431
20
-128.408
11
191.416
21
-128.412
0
LINE
8
BLACK
6
CONTINUOUS
10
191.416
20
-128.412
11
191.4
21
-128.414
0
LINE
8
BLACK
6
CONTINUOUS
10
191.4
20
-128.414
11
191.2
21
-128.414
0
LINE
8
BLACK
6
CONTINUOUS
10
191.2
20
-128.414
11
191.184
21
-128.412
0
LINE
8
BLACK
6
CONTINUOUS
10
191.184
20
-128.412
11
191.169
21
-128.408
0
LINE
8
BLACK
6
CONTINUOUS
10
191.169
20
-128.408
11
191.155
21
-128.401
0
LINE
8
BLACK
6
CONTINUOUS
10
191.155
20
-128.401
11
191.143
21
-128.391
0
LINE
8
BLACK
6
CONTINUOUS
10
191.143
20
-128.391
11
191.133
21
-128.379
0
LINE
8
BLACK
6
CONTINUOUS
10
191.133
20
-128.379
11
191.126
21
-128.365
0
LINE
8
BLACK
6
CONTINUOUS
10
191.126
20
-128.365
11
191.122
21
-128.35
0
LINE
8
BLACK
6
CONTINUOUS
10
191.122
20
-128.35
11
191.12
21
-128.334
0
LINE
8
BLACK
6
CONTINUOUS
10
191.12
20
-128.334
11
191.12
21
-128.175
0
LINE
8
BLACK
6
CONTINUOUS
10
191.12
20
-128.175
11
191.122
21
-128.16
0
LINE
8
BLACK
6
CONTINUOUS
10
191.122
20
-128.16
11
191.126
21
-128.145
0
LINE
8
BLACK
6
CONTINUOUS
10
191.126
20
-128.145
11
191.133
21
-128.131
0
LINE
8
BLACK
6
CONTINUOUS
10
191.133
20
-128.131
11
191.143
21
-128.119
0
LINE
8
BLACK
6
CONTINUOUS
10
191.143
20
-128.119
11
191.155
21
-128.109
0
LINE
8
BLACK
6
CONTINUOUS
10
191.155
20
-128.109
11
191.169
21
-128.102
0
LINE
8
BLACK
6
CONTINUOUS
10
191.169
20
-128.102
11
191.184
21
-128.098
0
LINE
8
BLACK
6
CONTINUOUS
10
191.184
20
-128.098
11
191.2
21
-128.096
0
LINE
8
BLACK
6
CONTINUOUS
10
191.2
20
-128.096
11
191.4
21
-128.096
0
LINE
8
BLACK
6
CONTINUOUS
10
191.4
20
-128.096
11
191.416
21
-128.098
0
LINE
8
BLACK
6
CONTINUOUS
10
189.475
20
-128.4
11
188.775
21
-128.4
0
LINE
8
BLACK
6
CONTINUOUS
10
188.775
20
-128.4
11
188.775
21
-127.95
0
LINE
8
BLACK
6
CONTINUOUS
10
188.775
20
-127.95
11
189.475
21
-127.95
0
LINE
8
BLACK
6
CONTINUOUS
10
189.475
20
-127.95
11
189.475
21
-128.4
0
LINE
8
BLACK
6
CONTINUOUS
10
188.116
20
-127.598
11
188.131
21
-127.602
0
LINE
8
BLACK
6
CONTINUOUS
10
188.131
20
-127.602
11
188.145
21
-127.609
0
LINE
8
BLACK
6
CONTINUOUS
10
188.145
20
-127.609
11
188.157
21
-127.619
0
LINE
8
BLACK
6
CONTINUOUS
10
188.157
20
-127.619
11
188.167
21
-127.631
0
LINE
8
BLACK
6
CONTINUOUS
10
188.167
20
-127.631
11
188.174
21
-127.645
0
LINE
8
BLACK
6
CONTINUOUS
10
188.174
20
-127.645
11
188.178
21
-127.66
0
LINE
8
BLACK
6
CONTINUOUS
10
188.178
20
-127.66
11
188.18
21
-127.675
0
LINE
8
BLACK
6
CONTINUOUS
10
188.18
20
-127.675
11
188.18
21
-127.834
0
LINE
8
BLACK
6
CONTINUOUS
10
188.18
20
-127.834
11
188.178
21
-127.85
0
LINE
8
BLACK
6
CONTINUOUS
10
188.178
20
-127.85
11
188.174
21
-127.865
0
LINE
8
BLACK
6
CONTINUOUS
10
188.174
20
-127.865
11
188.167
21
-127.879
0
LINE
8
BLACK
6
CONTINUOUS
10
188.167
20
-127.879
11
188.157
21
-127.891
0
LINE
8
BLACK
6
CONTINUOUS
10
188.157
20
-127.891
11
188.145
21
-127.901
0
LINE
8
BLACK
6
CONTINUOUS
10
188.145
20
-127.901
11
188.131
21
-127.908
0
LINE
8
BLACK
6
CONTINUOUS
10
188.131
20
-127.908
11
188.116
21
-127.912
0
LINE
8
BLACK
6
CONTINUOUS
10
188.116
20
-127.912
11
188.1
21
-127.914
0
LINE
8
BLACK
6
CONTINUOUS
10
188.1
20
-127.914
11
187.899
21
-127.914
0
LINE
8
BLACK
6
CONTINUOUS
10
187.899
20
-127.914
11
187.884
21
-127.912
0
LINE
8
BLACK
6
CONTINUOUS
10
187.884
20
-127.912
11
187.869
21
-127.908
0
LINE
8
BLACK
6
CONTINUOUS
10
187.869
20
-127.908
11
187.855
21
-127.901
0
LINE
8
BLACK
6
CONTINUOUS
10
187.855
20
-127.901
11
187.843
21
-127.891
0
LINE
8
BLACK
6
CONTINUOUS
10
187.843
20
-127.891
11
187.833
21
-127.879
0
LINE
8
BLACK
6
CONTINUOUS
10
187.833
20
-127.879
11
187.826
21
-127.865
0
LINE
8
BLACK
6
CONTINUOUS
10
187.826
20
-127.865
11
187.822
21
-127.85
0
LINE
8
BLACK
6
CONTINUOUS
10
187.822
20
-127.85
11
187.82
21
-127.834
0
LINE
8
BLACK
6
CONTINUOUS
10
187.82
20
-127.834
11
187.82
21
-127.675
0
LINE
8
BLACK
6
CONTINUOUS
10
187.82
20
-127.675
11
187.822
21
-127.66
0
LINE
8
BLACK
6
CONTINUOUS
10
187.822
20
-127.66
11
187.826
21
-127.645
0
LINE
8
BLACK
6
CONTINUOUS
10
187.826
20
-127.645
11
187.833
21
-127.631
0
LINE
8
BLACK
6
CONTINUOUS
10
187.833
20
-127.631
11
187.843
21
-127.619
0
LINE
8
BLACK
6
CONTINUOUS
10
187.843
20
-127.619
11
187.855
21
-127.609
0
LINE
8
BLACK
6
CONTINUOUS
10
187.855
20
-127.609
11
187.869
21
-127.602
0
LINE
8
BLACK
6
CONTINUOUS
10
187.869
20
-127.602
11
187.884
21
-127.598
0
LINE
8
BLACK
6
CONTINUOUS
10
187.884
20
-127.598
11
187.899
21
-127.596
0
LINE
8
BLACK
6
CONTINUOUS
10
187.899
20
-127.596
11
188.1
21
-127.596
0
LINE
8
BLACK
6
CONTINUOUS
10
188.1
20
-127.596
11
188.116
21
-127.598
0
LINE
8
BLACK
6
CONTINUOUS
10
191.475
20
-127.75
11
190.775
21
-127.75
0
LINE
8
BLACK
6
CONTINUOUS
10
190.775
20
-127.75
11
190.775
21
-127.3
0
LINE
8
BLACK
6
CONTINUOUS
10
190.775
20
-127.3
11
191.475
21
-127.3
0
LINE
8
BLACK
6
CONTINUOUS
10
191.475
20
-127.3
11
191.475
21
-127.75
0
LINE
8
BLACK
6
CONTINUOUS
10
189.475
20
-127.1
11
188.775
21
-127.1
0
LINE
8
BLACK
6
CONTINUOUS
10
188.775
20
-127.1
11
188.775
21
-126.65
0
LINE
8
BLACK
6
CONTINUOUS
10
188.775
20
-126.65
11
189.475
21
-126.65
0
LINE
8
BLACK
6
CONTINUOUS
10
189.475
20
-126.65
11
189.475
21
-127.1
0
LINE
8
BLACK
6
CONTINUOUS
10
190.5
20
-124.5
11
189.5
21
-124.5
0
LINE
8
BLACK
6
CONTINUOUS
10
189.5
20
-124.5
11
189.5
21
-122.8
0
LINE
8
BLACK
6
CONTINUOUS
10
189.5
20
-122.8
11
190.5
21
-122.8
0
LINE
8
BLACK
6
CONTINUOUS
10
190.5
20
-122.8
11
190.5
21
-124.5
0
LINE
8
BLACK
6
CONTINUOUS
10
186.7
20
-124.5
11
185.7
21
-124.5
0
LINE
8
BLACK
6
CONTINUOUS
10
185.7
20
-124.5
11
185.7
21
-122.8
0
LINE
8
BLACK
6
CONTINUOUS
10
185.7
20
-122.8
11
186.7
21
-122.8
0
LINE
8
BLACK
6
CONTINUOUS
10
186.7
20
-122.8
11
186.7
21
-124.5
0
LINE
8
BLACK
6
CONTINUOUS
10
187.216
20
-118.688
11
187.231
21
-118.692
0
LINE
8
BLACK
6
CONTINUOUS
10
187.231
20
-118.692
11
187.245
21
-118.699
0
LINE
8
BLACK
6
CONTINUOUS
10
187.245
20
-118.699
11
187.257
21
-118.709
0
LINE
8
BLACK
6
CONTINUOUS
10
187.257
20
-118.709
11
187.267
21
-118.721
0
LINE
8
BLACK
6
CONTINUOUS
10
187.267
20
-118.721
11
187.274
21
-118.735
0
LINE
8
BLACK
6
CONTINUOUS
10
187.274
20
-118.735
11
187.278
21
-118.75
0
LINE
8
BLACK
6
CONTINUOUS
10
187.278
20
-118.75
11
187.28
21
-118.765
0
LINE
8
BLACK
6
CONTINUOUS
10
187.28
20
-118.765
11
187.28
21
-118.924
0
LINE
8
BLACK
6
CONTINUOUS
10
187.28
20
-118.924
11
187.278
21
-118.94
0
LINE
8
BLACK
6
CONTINUOUS
10
187.278
20
-118.94
11
187.274
21
-118.955
0
LINE
8
BLACK
6
CONTINUOUS
10
187.274
20
-118.955
11
187.267
21
-118.969
0
LINE
8
BLACK
6
CONTINUOUS
10
187.267
20
-118.969
11
187.257
21
-118.981
0
LINE
8
BLACK
6
CONTINUOUS
10
187.257
20
-118.981
11
187.245
21
-118.991
0
LINE
8
BLACK
6
CONTINUOUS
10
187.245
20
-118.991
11
187.231
21
-118.998
0
LINE
8
BLACK
6
CONTINUOUS
10
187.231
20
-118.998
11
187.216
21
-119.002
0
LINE
8
BLACK
6
CONTINUOUS
10
187.216
20
-119.002
11
187.201
21
-119.004
0
LINE
8
BLACK
6
CONTINUOUS
10
187.201
20
-119.004
11
186.999
21
-119.004
0
LINE
8
BLACK
6
CONTINUOUS
10
186.999
20
-119.004
11
186.984
21
-119.002
0
LINE
8
BLACK
6
CONTINUOUS
10
186.984
20
-119.002
11
186.969
21
-118.998
0
LINE
8
BLACK
6
CONTINUOUS
10
186.969
20
-118.998
11
186.955
21
-118.991
0
LINE
8
BLACK
6
CONTINUOUS
10
186.955
20
-118.991
11
186.943
21
-118.981
0
LINE
8
BLACK
6
CONTINUOUS
10
186.943
20
-118.981
11
186.933
21
-118.969
0
LINE
8
BLACK
6
CONTINUOUS
10
186.933
20
-118.969
11
186.926
21
-118.955
0
LINE
8
BLACK
6
CONTINUOUS
10
186.926
20
-118.955
11
186.922
21
-118.94
0
LINE
8
BLACK
6
CONTINUOUS
10
186.922
20
-118.94
11
186.92
21
-118.924
0
LINE
8
BLACK
6
CONTINUOUS
10
186.92
20
-118.924
11
186.92
21
-118.765
0
LINE
8
BLACK
6
CONTINUOUS
10
186.92
20
-118.765
11
186.922
21
-118.75
0
LINE
8
BLACK
6
CONTINUOUS
10
186.922
20
-118.75
11
186.926
21
-118.735
0
LINE
8
BLACK
6
CONTINUOUS
10
186.926
20
-118.735
11
186.933
21
-118.721
0
LINE
8
BLACK
6
CONTINUOUS
10
186.933
20
-118.721
11
186.943
21
-118.709
0
LINE
8
BLACK
6
CONTINUOUS
10
186.943
20
-118.709
11
186.955
21
-118.699
0
LINE
8
BLACK
6
CONTINUOUS
10
186.955
20
-118.699
11
186.969
21
-118.692
0
LINE
8
BLACK
6
CONTINUOUS
10
186.969
20
-118.692
11
186.984
21
-118.688
0
LINE
8
BLACK
6
CONTINUOUS
10
186.984
20
-118.688
11
186.999
21
-118.686
0
LINE
8
BLACK
6
CONTINUOUS
10
186.999
20
-118.686
11
187.201
21
-118.686
0
LINE
8
BLACK
6
CONTINUOUS
10
187.201
20
-118.686
11
187.216
21
-118.688
0
LINE
8
BLACK
6
CONTINUOUS
10
187.216
20
-117.998
11
187.231
21
-118.002
0
LINE
8
BLACK
6
CONTINUOUS
10
187.231
20
-118.002
11
187.245
21
-118.009
0
LINE
8
BLACK
6
CONTINUOUS
10
187.245
20
-118.009
11
187.257
21
-118.019
0
LINE
8
BLACK
6
CONTINUOUS
10
187.257
20
-118.019
11
187.267
21
-118.031
0
LINE
8
BLACK
6
CONTINUOUS
10
187.267
20
-118.031
11
187.274
21
-118.045
0
LINE
8
BLACK
6
CONTINUOUS
10
187.274
20
-118.045
11
187.278
21
-118.06
0
LINE
8
BLACK
6
CONTINUOUS
10
187.278
20
-118.06
11
187.28
21
-118.075
0
LINE
8
BLACK
6
CONTINUOUS
10
187.28
20
-118.075
11
187.28
21
-118.234
0
LINE
8
BLACK
6
CONTINUOUS
10
187.28
20
-118.234
11
187.278
21
-118.25
0
LINE
8
BLACK
6
CONTINUOUS
10
187.278
20
-118.25
11
187.274
21
-118.265
0
LINE
8
BLACK
6
CONTINUOUS
10
187.274
20
-118.265
11
187.267
21
-118.279
0
LINE
8
BLACK
6
CONTINUOUS
10
187.267
20
-118.279
11
187.257
21
-118.291
0
LINE
8
BLACK
6
CONTINUOUS
10
187.257
20
-118.291
11
187.245
21
-118.301
0
LINE
8
BLACK
6
CONTINUOUS
10
187.245
20
-118.301
11
187.231
21
-118.308
0
LINE
8
BLACK
6
CONTINUOUS
10
187.231
20
-118.308
11
187.216
21
-118.312
0
LINE
8
BLACK
6
CONTINUOUS
10
187.216
20
-118.312
11
187.201
21
-118.314
0
LINE
8
BLACK
6
CONTINUOUS
10
187.201
20
-118.314
11
186.999
21
-118.314
0
LINE
8
BLACK
6
CONTINUOUS
10
186.999
20
-118.314
11
186.984
21
-118.312
0
LINE
8
BLACK
6
CONTINUOUS
10
186.984
20
-118.312
11
186.969
21
-118.308
0
LINE
8
BLACK
6
CONTINUOUS
10
186.969
20
-118.308
11
186.955
21
-118.301
0
LINE
8
BLACK
6
CONTINUOUS
10
186.955
20
-118.301
11
186.943
21
-118.291
0
LINE
8
BLACK
6
CONTINUOUS
10
186.943
20
-118.291
11
186.933
21
-118.279
0
LINE
8
BLACK
6
CONTINUOUS
10
186.933
20
-118.279
11
186.926
21
-118.265
0
LINE
8
BLACK
6
CONTINUOUS
10
186.926
20
-118.265
11
186.922
21
-118.25
0
LINE
8
BLACK
6
CONTINUOUS
10
186.922
20
-118.25
11
186.92
21
-118.234
0
LINE
8
BLACK
6
CONTINUOUS
10
186.92
20
-118.234
11
186.92
21
-118.075
0
LINE
8
BLACK
6
CONTINUOUS
10
186.92
20
-118.075
11
186.922
21
-118.06
0
LINE
8
BLACK
6
CONTINUOUS
10
186.922
20
-118.06
11
186.926
21
-118.045
0
LINE
8
BLACK
6
CONTINUOUS
10
186.926
20
-118.045
11
186.933
21
-118.031
0
LINE
8
BLACK
6
CONTINUOUS
10
186.933
20
-118.031
11
186.943
21
-118.019
0
LINE
8
BLACK
6
CONTINUOUS
10
186.943
20
-118.019
11
186.955
21
-118.009
0
LINE
8
BLACK
6
CONTINUOUS
10
186.955
20
-118.009
11
186.969
21
-118.002
0
LINE
8
BLACK
6
CONTINUOUS
10
186.969
20
-118.002
11
186.984
21
-117.998
0
LINE
8
BLACK
6
CONTINUOUS
10
186.984
20
-117.998
11
186.999
21
-117.996
0
LINE
8
BLACK
6
CONTINUOUS
10
186.999
20
-117.996
11
187.201
21
-117.996
0
LINE
8
BLACK
6
CONTINUOUS
10
187.201
20
-117.996
11
187.216
21
-117.998
0
LINE
8
BLACK
6
CONTINUOUS
10
186.7
20
-118.2
11
185.7
21
-118.2
0
LINE
8
BLACK
6
CONTINUOUS
10
185.7
20
-118.2
11
185.7
21
-116.5
0
LINE
8
BLACK
6
CONTINUOUS
10
185.7
20
-116.5
11
186.7
21
-116.5
0
LINE
8
BLACK
6
CONTINUOUS
10
186.7
20
-116.5
11
186.7
21
-118.2
0
LINE
8
BLACK
6
CONTINUOUS
10
190.5
20
-118.2
11
189.5
21
-118.2
0
LINE
8
BLACK
6
CONTINUOUS
10
189.5
20
-118.2
11
189.5
21
-116.5
0
LINE
8
BLACK
6
CONTINUOUS
10
189.5
20
-116.5
11
190.5
21
-116.5
0
LINE
8
BLACK
6
CONTINUOUS
10
190.5
20
-116.5
11
190.5
21
-118.2
0
LINE
8
BLACK
6
CONTINUOUS
10
183.55
20
-111.9
11
182.8
21
-111.9
0
LINE
8
BLACK
6
CONTINUOUS
10
182.8
20
-111.9
11
182.8
21
-111.05
0
LINE
8
BLACK
6
CONTINUOUS
10
182.8
20
-111.05
11
183.55
21
-111.05
0
LINE
8
BLACK
6
CONTINUOUS
10
183.55
20
-111.05
11
183.55
21
-111.9
0
LINE
8
BLACK
6
CONTINUOUS
10
184.6
20
-111.9
11
183.85
21
-111.9
0
LINE
8
BLACK
6
CONTINUOUS
10
183.85
20
-111.9
11
183.85
21
-111.05
0
LINE
8
BLACK
6
CONTINUOUS
10
183.85
20
-111.05
11
184.6
21
-111.05
0
LINE
8
BLACK
6
CONTINUOUS
10
184.6
20
-111.05
11
184.6
21
-111.9
0
LINE
8
BLACK
6
CONTINUOUS
10
177.34
20
-110.422
11
177.355
21
-110.426
0
LINE
8
BLACK
6
CONTINUOUS
10
177.355
20
-110.426
11
177.369
21
-110.433
0
LINE
8
BLACK
6
CONTINUOUS
10
177.369
20
-110.433
11
177.381
21
-110.443
0
LINE
8
BLACK
6
CONTINUOUS
10
177.381
20
-110.443
11
177.391
21
-110.455
0
LINE
8
BLACK
6
CONTINUOUS
10
177.391
20
-110.455
11
177.398
21
-110.469
0
LINE
8
BLACK
6
CONTINUOUS
10
177.398
20
-110.469
11
177.402
21
-110.484
0
LINE
8
BLACK
6
CONTINUOUS
10
177.402
20
-110.484
11
177.404
21
-110.499
0
LINE
8
BLACK
6
CONTINUOUS
10
177.404
20
-110.499
11
177.404
21
-110.7
0
LINE
8
BLACK
6
CONTINUOUS
10
177.404
20
-110.7
11
177.402
21
-110.716
0
LINE
8
BLACK
6
CONTINUOUS
10
177.402
20
-110.716
11
177.398
21
-110.731
0
LINE
8
BLACK
6
CONTINUOUS
10
177.398
20
-110.731
11
177.391
21
-110.745
0
LINE
8
BLACK
6
CONTINUOUS
10
177.391
20
-110.745
11
177.381
21
-110.757
0
LINE
8
BLACK
6
CONTINUOUS
10
177.381
20
-110.757
11
177.369
21
-110.767
0
LINE
8
BLACK
6
CONTINUOUS
10
177.369
20
-110.767
11
177.355
21
-110.774
0
LINE
8
BLACK
6
CONTINUOUS
10
177.355
20
-110.774
11
177.34
21
-110.778
0
LINE
8
BLACK
6
CONTINUOUS
10
177.34
20
-110.778
11
177.325
21
-110.78
0
LINE
8
BLACK
6
CONTINUOUS
10
177.325
20
-110.78
11
177.165
21
-110.78
0
LINE
8
BLACK
6
CONTINUOUS
10
177.165
20
-110.78
11
177.15
21
-110.778
0
LINE
8
BLACK
6
CONTINUOUS
10
177.15
20
-110.778
11
177.135
21
-110.774
0
LINE
8
BLACK
6
CONTINUOUS
10
177.135
20
-110.774
11
177.121
21
-110.767
0
LINE
8
BLACK
6
CONTINUOUS
10
177.121
20
-110.767
11
177.109
21
-110.757
0
LINE
8
BLACK
6
CONTINUOUS
10
177.109
20
-110.757
11
177.099
21
-110.745
0
LINE
8
BLACK
6
CONTINUOUS
10
177.099
20
-110.745
11
177.092
21
-110.731
0
LINE
8
BLACK
6
CONTINUOUS
10
177.092
20
-110.731
11
177.088
21
-110.716
0
LINE
8
BLACK
6
CONTINUOUS
10
177.088
20
-110.716
11
177.086
21
-110.7
0
LINE
8
BLACK
6
CONTINUOUS
10
177.086
20
-110.7
11
177.086
21
-110.499
0
LINE
8
BLACK
6
CONTINUOUS
10
177.086
20
-110.499
11
177.088
21
-110.484
0
LINE
8
BLACK
6
CONTINUOUS
10
177.088
20
-110.484
11
177.092
21
-110.469
0
LINE
8
BLACK
6
CONTINUOUS
10
177.092
20
-110.469
11
177.099
21
-110.455
0
LINE
8
BLACK
6
CONTINUOUS
10
177.099
20
-110.455
11
177.109
21
-110.443
0
LINE
8
BLACK
6
CONTINUOUS
10
177.109
20
-110.443
11
177.121
21
-110.433
0
LINE
8
BLACK
6
CONTINUOUS
10
177.121
20
-110.433
11
177.135
21
-110.426
0
LINE
8
BLACK
6
CONTINUOUS
10
177.135
20
-110.426
11
177.15
21
-110.422
0
LINE
8
BLACK
6
CONTINUOUS
10
177.15
20
-110.422
11
177.165
21
-110.42
0
LINE
8
BLACK
6
CONTINUOUS
10
177.165
20
-110.42
11
177.325
21
-110.42
0
LINE
8
BLACK
6
CONTINUOUS
10
177.325
20
-110.42
11
177.34
21
-110.422
0
LINE
8
BLACK
6
CONTINUOUS
10
178.84
20
-110.422
11
178.855
21
-110.426
0
LINE
8
BLACK
6
CONTINUOUS
10
178.855
20
-110.426
11
178.869
21
-110.433
0
LINE
8
BLACK
6
CONTINUOUS
10
178.869
20
-110.433
11
178.881
21
-110.443
0
LINE
8
BLACK
6
CONTINUOUS
10
178.881
20
-110.443
11
178.891
21
-110.455
0
LINE
8
BLACK
6
CONTINUOUS
10
178.891
20
-110.455
11
178.898
21
-110.469
0
LINE
8
BLACK
6
CONTINUOUS
10
178.898
20
-110.469
11
178.902
21
-110.484
0
LINE
8
BLACK
6
CONTINUOUS
10
178.902
20
-110.484
11
178.904
21
-110.499
0
LINE
8
BLACK
6
CONTINUOUS
10
178.904
20
-110.499
11
178.904
21
-110.7
0
LINE
8
BLACK
6
CONTINUOUS
10
178.904
20
-110.7
11
178.902
21
-110.716
0
LINE
8
BLACK
6
CONTINUOUS
10
178.902
20
-110.716
11
178.898
21
-110.731
0
LINE
8
BLACK
6
CONTINUOUS
10
178.898
20
-110.731
11
178.891
21
-110.745
0
LINE
8
BLACK
6
CONTINUOUS
10
178.891
20
-110.745
11
178.881
21
-110.757
0
LINE
8
BLACK
6
CONTINUOUS
10
178.881
20
-110.757
11
178.869
21
-110.767
0
LINE
8
BLACK
6
CONTINUOUS
10
178.869
20
-110.767
11
178.855
21
-110.774
0
LINE
8
BLACK
6
CONTINUOUS
10
178.855
20
-110.774
11
178.84
21
-110.778
0
LINE
8
BLACK
6
CONTINUOUS
10
178.84
20
-110.778
11
178.825
21
-110.78
0
LINE
8
BLACK
6
CONTINUOUS
10
178.825
20
-110.78
11
178.665
21
-110.78
0
LINE
8
BLACK
6
CONTINUOUS
10
178.665
20
-110.78
11
178.65
21
-110.778
0
LINE
8
BLACK
6
CONTINUOUS
10
178.65
20
-110.778
11
178.635
21
-110.774
0
LINE
8
BLACK
6
CONTINUOUS
10
178.635
20
-110.774
11
178.621
21
-110.767
0
LINE
8
BLACK
6
CONTINUOUS
10
178.621
20
-110.767
11
178.609
21
-110.757
0
LINE
8
BLACK
6
CONTINUOUS
10
178.609
20
-110.757
11
178.599
21
-110.745
0
LINE
8
BLACK
6
CONTINUOUS
10
178.599
20
-110.745
11
178.592
21
-110.731
0
LINE
8
BLACK
6
CONTINUOUS
10
178.592
20
-110.731
11
178.588
21
-110.716
0
LINE
8
BLACK
6
CONTINUOUS
10
178.588
20
-110.716
11
178.586
21
-110.7
0
LINE
8
BLACK
6
CONTINUOUS
10
178.586
20
-110.7
11
178.586
21
-110.499
0
LINE
8
BLACK
6
CONTINUOUS
10
178.586
20
-110.499
11
178.588
21
-110.484
0
LINE
8
BLACK
6
CONTINUOUS
10
178.588
20
-110.484
11
178.592
21
-110.469
0
LINE
8
BLACK
6
CONTINUOUS
10
178.592
20
-110.469
11
178.599
21
-110.455
0
LINE
8
BLACK
6
CONTINUOUS
10
178.599
20
-110.455
11
178.609
21
-110.443
0
LINE
8
BLACK
6
CONTINUOUS
10
178.609
20
-110.443
11
178.621
21
-110.433
0
LINE
8
BLACK
6
CONTINUOUS
10
178.621
20
-110.433
11
178.635
21
-110.426
0
LINE
8
BLACK
6
CONTINUOUS
10
178.635
20
-110.426
11
178.65
21
-110.422
0
LINE
8
BLACK
6
CONTINUOUS
10
178.65
20
-110.422
11
178.665
21
-110.42
0
LINE
8
BLACK
6
CONTINUOUS
10
178.665
20
-110.42
11
178.825
21
-110.42
0
LINE
8
BLACK
6
CONTINUOUS
10
178.825
20
-110.42
11
178.84
21
-110.422
0
LINE
8
BLACK
6
CONTINUOUS
10
178.15
20
-110.422
11
178.165
21
-110.426
0
LINE
8
BLACK
6
CONTINUOUS
10
178.165
20
-110.426
11
178.179
21
-110.433
0
LINE
8
BLACK
6
CONTINUOUS
10
178.179
20
-110.433
11
178.191
21
-110.443
0
LINE
8
BLACK
6
CONTINUOUS
10
178.191
20
-110.443
11
178.201
21
-110.455
0
LINE
8
BLACK
6
CONTINUOUS
10
178.201
20
-110.455
11
178.208
21
-110.469
0
LINE
8
BLACK
6
CONTINUOUS
10
178.208
20
-110.469
11
178.212
21
-110.484
0
LINE
8
BLACK
6
CONTINUOUS
10
178.212
20
-110.484
11
178.214
21
-110.499
0
LINE
8
BLACK
6
CONTINUOUS
10
178.214
20
-110.499
11
178.214
21
-110.7
0
LINE
8
BLACK
6
CONTINUOUS
10
178.214
20
-110.7
11
178.212
21
-110.716
0
LINE
8
BLACK
6
CONTINUOUS
10
178.212
20
-110.716
11
178.208
21
-110.731
0
LINE
8
BLACK
6
CONTINUOUS
10
178.208
20
-110.731
11
178.201
21
-110.745
0
LINE
8
BLACK
6
CONTINUOUS
10
178.201
20
-110.745
11
178.191
21
-110.757
0
LINE
8
BLACK
6
CONTINUOUS
10
178.191
20
-110.757
11
178.179
21
-110.767
0
LINE
8
BLACK
6
CONTINUOUS
10
178.179
20
-110.767
11
178.165
21
-110.774
0
LINE
8
BLACK
6
CONTINUOUS
10
178.165
20
-110.774
11
178.15
21
-110.778
0
LINE
8
BLACK
6
CONTINUOUS
10
178.15
20
-110.778
11
178.135
21
-110.78
0
LINE
8
BLACK
6
CONTINUOUS
10
178.135
20
-110.78
11
177.975
21
-110.78
0
LINE
8
BLACK
6
CONTINUOUS
10
177.975
20
-110.78
11
177.96
21
-110.778
0
LINE
8
BLACK
6
CONTINUOUS
10
177.96
20
-110.778
11
177.945
21
-110.774
0
LINE
8
BLACK
6
CONTINUOUS
10
177.945
20
-110.774
11
177.931
21
-110.767
0
LINE
8
BLACK
6
CONTINUOUS
10
177.931
20
-110.767
11
177.919
21
-110.757
0
LINE
8
BLACK
6
CONTINUOUS
10
177.919
20
-110.757
11
177.909
21
-110.745
0
LINE
8
BLACK
6
CONTINUOUS
10
177.909
20
-110.745
11
177.902
21
-110.731
0
LINE
8
BLACK
6
CONTINUOUS
10
177.902
20
-110.731
11
177.898
21
-110.716
0
LINE
8
BLACK
6
CONTINUOUS
10
177.898
20
-110.716
11
177.896
21
-110.7
0
LINE
8
BLACK
6
CONTINUOUS
10
177.896
20
-110.7
11
177.896
21
-110.499
0
LINE
8
BLACK
6
CONTINUOUS
10
177.896
20
-110.499
11
177.898
21
-110.484
0
LINE
8
BLACK
6
CONTINUOUS
10
177.898
20
-110.484
11
177.902
21
-110.469
0
LINE
8
BLACK
6
CONTINUOUS
10
177.902
20
-110.469
11
177.909
21
-110.455
0
LINE
8
BLACK
6
CONTINUOUS
10
177.909
20
-110.455
11
177.919
21
-110.443
0
LINE
8
BLACK
6
CONTINUOUS
10
177.919
20
-110.443
11
177.931
21
-110.433
0
LINE
8
BLACK
6
CONTINUOUS
10
177.931
20
-110.433
11
177.945
21
-110.426
0
LINE
8
BLACK
6
CONTINUOUS
10
177.945
20
-110.426
11
177.96
21
-110.422
0
LINE
8
BLACK
6
CONTINUOUS
10
177.96
20
-110.422
11
177.975
21
-110.42
0
LINE
8
BLACK
6
CONTINUOUS
10
177.975
20
-110.42
11
178.135
21
-110.42
0
LINE
8
BLACK
6
CONTINUOUS
10
178.135
20
-110.42
11
178.15
21
-110.422
0
LINE
8
BLACK
6
CONTINUOUS
10
176.65
20
-110.422
11
176.665
21
-110.426
0
LINE
8
BLACK
6
CONTINUOUS
10
176.665
20
-110.426
11
176.679
21
-110.433
0
LINE
8
BLACK
6
CONTINUOUS
10
176.679
20
-110.433
11
176.691
21
-110.443
0
LINE
8
BLACK
6
CONTINUOUS
10
176.691
20
-110.443
11
176.701
21
-110.455
0
LINE
8
BLACK
6
CONTINUOUS
10
176.701
20
-110.455
11
176.708
21
-110.469
0
LINE
8
BLACK
6
CONTINUOUS
10
176.708
20
-110.469
11
176.712
21
-110.484
0
LINE
8
BLACK
6
CONTINUOUS
10
176.712
20
-110.484
11
176.714
21
-110.499
0
LINE
8
BLACK
6
CONTINUOUS
10
176.714
20
-110.499
11
176.714
21
-110.7
0
LINE
8
BLACK
6
CONTINUOUS
10
176.714
20
-110.7
11
176.712
21
-110.716
0
LINE
8
BLACK
6
CONTINUOUS
10
176.712
20
-110.716
11
176.708
21
-110.731
0
LINE
8
BLACK
6
CONTINUOUS
10
176.708
20
-110.731
11
176.701
21
-110.745
0
LINE
8
BLACK
6
CONTINUOUS
10
176.701
20
-110.745
11
176.691
21
-110.757
0
LINE
8
BLACK
6
CONTINUOUS
10
176.691
20
-110.757
11
176.679
21
-110.767
0
LINE
8
BLACK
6
CONTINUOUS
10
176.679
20
-110.767
11
176.665
21
-110.774
0
LINE
8
BLACK
6
CONTINUOUS
10
176.665
20
-110.774
11
176.65
21
-110.778
0
LINE
8
BLACK
6
CONTINUOUS
10
176.65
20
-110.778
11
176.635
21
-110.78
0
LINE
8
BLACK
6
CONTINUOUS
10
176.635
20
-110.78
11
176.475
21
-110.78
0
LINE
8
BLACK
6
CONTINUOUS
10
176.475
20
-110.78
11
176.46
21
-110.778
0
LINE
8
BLACK
6
CONTINUOUS
10
176.46
20
-110.778
11
176.445
21
-110.774
0
LINE
8
BLACK
6
CONTINUOUS
10
176.445
20
-110.774
11
176.431
21
-110.767
0
LINE
8
BLACK
6
CONTINUOUS
10
176.431
20
-110.767
11
176.419
21
-110.757
0
LINE
8
BLACK
6
CONTINUOUS
10
176.419
20
-110.757
11
176.409
21
-110.745
0
LINE
8
BLACK
6
CONTINUOUS
10
176.409
20
-110.745
11
176.402
21
-110.731
0
LINE
8
BLACK
6
CONTINUOUS
10
176.402
20
-110.731
11
176.398
21
-110.716
0
LINE
8
BLACK
6
CONTINUOUS
10
176.398
20
-110.716
11
176.396
21
-110.7
0
LINE
8
BLACK
6
CONTINUOUS
10
176.396
20
-110.7
11
176.396
21
-110.499
0
LINE
8
BLACK
6
CONTINUOUS
10
176.396
20
-110.499
11
176.398
21
-110.484
0
LINE
8
BLACK
6
CONTINUOUS
10
176.398
20
-110.484
11
176.402
21
-110.469
0
LINE
8
BLACK
6
CONTINUOUS
10
176.402
20
-110.469
11
176.409
21
-110.455
0
LINE
8
BLACK
6
CONTINUOUS
10
176.409
20
-110.455
11
176.419
21
-110.443
0
LINE
8
BLACK
6
CONTINUOUS
10
176.419
20
-110.443
11
176.431
21
-110.433
0
LINE
8
BLACK
6
CONTINUOUS
10
176.431
20
-110.433
11
176.445
21
-110.426
0
LINE
8
BLACK
6
CONTINUOUS
10
176.445
20
-110.426
11
176.46
21
-110.422
0
LINE
8
BLACK
6
CONTINUOUS
10
176.46
20
-110.422
11
176.475
21
-110.42
0
LINE
8
BLACK
6
CONTINUOUS
10
176.475
20
-110.42
11
176.635
21
-110.42
0
LINE
8
BLACK
6
CONTINUOUS
10
176.635
20
-110.42
11
176.65
21
-110.422
0
LINE
8
BLACK
6
CONTINUOUS
10
184.6
20
-110.55
11
183.85
21
-110.55
0
LINE
8
BLACK
6
CONTINUOUS
10
183.85
20
-110.55
11
183.85
21
-109.7
0
LINE
8
BLACK
6
CONTINUOUS
10
183.85
20
-109.7
11
184.6
21
-109.7
0
LINE
8
BLACK
6
CONTINUOUS
10
184.6
20
-109.7
11
184.6
21
-110.55
0
LINE
8
BLACK
6
CONTINUOUS
10
183.55
20
-110.55
11
182.8
21
-110.55
0
LINE
8
BLACK
6
CONTINUOUS
10
182.8
20
-110.55
11
182.8
21
-109.7
0
LINE
8
BLACK
6
CONTINUOUS
10
182.8
20
-109.7
11
183.55
21
-109.7
0
LINE
8
BLACK
6
CONTINUOUS
10
183.55
20
-109.7
11
183.55
21
-110.55
  0
ENDSEC
  0
EOF
